<?xml version="1.0" encoding="UTF-8"?> <svg xmlns="http://www.w3.org/2000/svg" width="135" height="138" viewBox="0 0 135 138" fill="none"> <g clip-path="url(#clip0)"> <path d="M21.6357 101.07C21.1248 100.595 22.0695 101.734 22.0561 101.904L22.8248 102.893L22.5718 102.458C23.2325 103.327 23.815 104.104 24.4537 104.792L23.8735 104.228L25.2821 105.712L24.5278 104.834C25.3145 105.606 24.5554 104.649 25.5162 105.736C25.6848 105.942 25.7419 106.008 26.5866 107C27.1852 107.599 27.3795 107.784 27.9244 108.337C28.0569 108.503 27.7167 108.322 27.7983 108.434C29.2486 109.593 28.7601 109.202 30.3089 110.449C30.1249 110.325 30.076 110.358 30.1243 110.421L30.5066 110.654C30.8715 111.007 30.9224 111.062 30.8315 111.043C31.9626 112.046 30.5439 110.627 31.8843 111.829C31.7627 111.753 31.8022 111.814 31.5814 111.621C33.242 112.786 34.1155 113.401 35.7761 114.566C36.1152 114.941 34.574 113.764 34.981 114.168C36.8671 115.48 39.1016 116.473 41.0519 117.544C41.4829 117.618 42.5179 118.273 43.5458 118.636C43.2776 118.534 43.1705 118.569 43.2438 118.582C44.6677 119.259 46.2061 119.846 48.5135 120.475L48.2203 120.424C49.0947 120.721 50.5178 121.243 51.4987 121.476C51.8 121.501 52.358 121.633 52.0334 121.495C54.9806 122.494 57.818 122.59 60.5127 123.057C60.1876 123.016 59.7316 122.992 59.9895 123.032C60.7707 123.098 61.5336 123.254 62.3127 123.232C62.1381 123.14 62.0052 123.196 61.5266 123.088C62.2507 123.087 62.7821 123.086 63.0624 123.084C62.0058 123.099 63.0564 123.199 63.5105 123.26C63.431 123.236 63.5586 123.198 63.5586 123.198C64.7715 123.366 63.7742 123.061 65.4275 123.21L65.3407 123.241C65.9304 123.238 66.7102 123.245 67.2124 123.244C67.4948 123.331 66.5474 123.272 66.502 123.326C67.4467 123.393 68.3652 123.104 69.2251 123.165C68.6395 123.217 68.421 123.237 67.8469 123.284C68.7794 123.328 68.8839 123.302 69.5754 123.282L69.5082 123.28L71.1131 123.241L70.6985 123.239C71.8749 122.991 73.1061 123.068 74.6813 122.652C73.1542 123.006 74.4331 122.769 74.3246 122.871C74.7297 122.841 75.3472 122.779 75.179 122.824C75.9191 122.645 76.4431 122.699 77.4791 122.436C77.5293 122.461 78.2851 122.326 78.121 122.42C79.0783 122.163 77.8849 122.435 77.9588 122.351C79.4254 121.912 81.4658 121.648 83.5606 120.985C84.7171 120.518 85.9835 120.007 87.0504 119.581C87.1488 119.543 87.2417 119.523 87.3401 119.486C87.6366 119.432 86.8532 119.752 86.8532 119.752C87.6353 119.499 88.2553 119.302 88.9309 118.987C88.7945 119.023 88.7592 119.012 88.8134 118.961C89.1662 118.818 89.512 118.634 89.8675 118.482L89.0204 118.947C89.1011 118.904 89.1887 118.902 89.2721 118.85C89.1141 118.957 89.2877 118.894 89.5543 118.811C90.2183 118.503 89.9557 118.509 90.8463 118.154C90.6768 118.266 90.4096 118.445 90.2286 118.564C90.8688 118.238 91.8984 117.713 92.5474 117.39C92.7856 117.337 92.0904 117.685 91.8198 117.843C92.3509 117.59 92.9884 117.274 93.5303 116.986C92.9619 117.266 92.6227 117.365 92.5671 117.357L93.1354 117.077C92.4752 117.184 90.8463 118.154 89.6851 118.668L90.0404 118.39C92.9848 117.128 95.8774 115.656 98.6109 113.885C98.6454 113.867 98.6766 113.828 98.7112 113.809C98.6321 114.036 98.3434 114.412 99.9349 113.344L101.03 112.414L101.333 112.245C101.45 112.146 101.62 112.034 101.737 111.934C101.856 111.894 102.031 111.793 102.264 111.632L103.192 110.554C103.351 110.477 102.802 111.072 103.505 110.447C103.94 109.943 102.965 110.794 103.728 110.003C104.263 109.578 104.163 109.75 104.7 109.161C104.804 109.106 104.702 109.249 104.48 109.471C104.984 108.958 105.816 108.131 105.974 107.774C106.493 107.276 107.511 105.907 107.567 106.04C107.858 105.626 108.507 104.705 108.676 104.467C108.119 105.561 110.078 102.442 110.037 102.797C110.473 102.003 111.786 100.077 112.443 98.6261C112.373 98.7593 112.312 98.8952 112.265 98.987C112.517 98.5716 112.886 97.9986 113.175 97.5269C113.142 97.3816 113.79 96.1501 113.994 95.4205C114.543 94.4778 113.84 96.0787 114.082 95.8244C113.975 95.83 114.789 94.0509 114.56 94.3576C114.966 93.6317 114.892 93.7153 115.152 93.3699C115.078 93.1731 115.45 92.6497 115.653 91.9873C116.154 90.885 115.901 91.7444 116.305 90.4869C116.569 89.9106 116.214 91.0384 116.214 91.0384C116.67 89.7678 116.332 90.3985 116.363 90.1085C116.889 88.5791 116.694 89.4371 116.936 88.9315C117.13 88.2664 117.545 86.8479 117.642 86.5007C117.675 86.4531 117.719 86.3118 117.696 86.4789C118.244 84.2507 118.066 84.9885 118.754 82.2046C118.779 82.1543 118.829 82.0537 118.829 82.0537C118.92 81.9463 118.606 83.1929 119.015 81.6664L118.832 82.0449C118.728 82.2257 118.665 82.2448 118.631 82.196C118.807 81.6219 118.815 81.0929 118.938 80.8795C118.865 81.2436 118.883 81.2782 118.876 81.4595L118.963 80.8292C119.166 80.2924 118.835 81.6884 118.908 81.7012C119.104 80.5247 119.341 79.0902 119.501 78.125C119.643 77.9462 119.122 80.3081 119.44 79.0819L119.127 80.5125C119.493 79.4458 118.947 81.3847 119.315 80.4056C119.683 78.4126 119.694 78.3773 120.063 76.3844C120.061 75.9491 119.964 76.5183 119.965 76.0742C120.161 73.3522 120.448 73.9616 120.533 71.9494C120.511 71.4211 120.465 71.2236 120.556 69.7927L120.656 70.2869C120.715 68.4214 120.519 69.221 120.643 67.2692C120.681 67.6189 120.647 68.7387 120.666 68.4548C120.793 67.1895 120.621 67.5619 120.65 66.5854L120.75 66.3842C120.789 64.3966 120.45 62.2255 120.327 60.0433C120.367 60.162 120.417 60.5347 120.422 60.0146C119.953 57.2917 119.628 54.159 118.888 51.5948L118.543 50.6392C118.488 50.4098 118.466 50.2 118.553 50.4491C118.324 49.4322 118.488 50.4098 118.331 49.9463C118.177 49.3775 118.181 49.1758 118.303 49.5321C117.643 47.8423 116.445 44.6935 115.666 42.9482L115.858 43.2677C115.206 41.9283 114.927 41.8622 114.368 40.5994L114.502 40.824C113.108 37.905 110.989 35.0536 109.617 33.0398C109.23 32.7572 107.684 30.5256 107.426 30.4853C106.276 29.0707 106.621 29.4565 104.884 27.5627C104.405 27.078 104.117 26.8835 103.468 26.3563L103.513 26.2734L102.565 25.6162L102.171 25.1381L101.549 24.6482C101.796 24.8495 102.045 25.1091 101.989 25.1018C101.016 24.3401 99.6861 23.1023 99.6861 23.1023L97.1903 21.575C97.2663 21.579 97.6813 21.8316 98.0161 22.0307C96.6626 21.2493 97.8292 21.7899 96.5912 21.0728C96.7372 21.1948 96.4392 21.0649 96.4392 21.0649C95.8821 20.6143 94.4168 19.9145 93.3494 19.3655L93.5754 19.4154C91.7031 18.3109 89.3882 17.6118 87.1165 16.7714C87.9406 17.0431 87.714 17.0896 87.0264 16.908L86.7798 16.736C86.3169 16.6715 87.4805 16.9698 86.5505 16.7913C85.6829 16.5354 85.9978 16.5159 86.5055 16.623L85.4364 16.3633C85.3827 16.3179 85.6379 16.3671 85.7105 16.3506C85.2565 16.2889 83.9087 15.741 83.2443 15.6729L83.1906 15.6274C80.7925 15.2314 79.7234 14.9716 77.7592 14.7664C77.7145 14.8493 76.9414 14.7575 76.3551 14.7808C74.9115 14.6093 73.3151 14.4007 71.5589 14.462C70.3306 14.5013 71.1986 14.5352 70.6449 14.5782C70.5525 14.5016 68.8064 14.4983 69.7103 14.4466C67.6147 14.4812 67.0313 14.6214 64.3828 14.8538C64.6781 14.8669 65.0017 14.8501 64.8335 14.8952C64.3558 14.9421 63.7396 14.937 63.7972 14.9064L63.9282 14.8885C60.9822 15.3679 57.0743 15.6785 54.7767 16.4047L54.9042 16.3664C54.103 16.5558 53.2963 16.7629 52.5115 17.0249C51.409 17.3153 53.1538 16.7869 52.3377 16.962C49.7945 17.7966 48.2495 18.0191 46.1936 18.8387C44.4537 18.9725 40.5384 21.0099 38.4203 22.0326L38.5689 22.0201C38.0569 22.3367 37.8988 22.3173 37.4945 22.5026C37.5705 22.5066 38.1016 22.2538 37.7822 22.4458C33.3252 24.8969 29.0433 28.5415 25.8568 32.8016C24.6296 34.3192 25.3382 33.802 23.9181 35.7919L24.2119 35.1476C22.1616 38.4708 20.0764 42.0345 18.7723 45.6634C18.8399 45.4426 18.8162 45.4257 18.9508 45.0805C18.5832 45.8083 17.8276 47.8664 17.8751 47.9003C17.6491 48.4493 17.7755 48.005 17.6144 48.3421C17.2882 49.0923 17.0847 50.3244 16.8782 50.7152C16.8477 50.7831 16.9281 50.489 16.9626 50.345C16.8322 50.8653 16.2203 52.7066 16.4484 52.2451C15.9445 53.6074 15.7282 54.9129 15.437 56.0216C15.3619 56.7714 14.8562 58.423 14.9326 58.6782C14.7627 58.5392 14.3797 61.1461 14.3319 62.0588C14.339 61.7518 14.1788 62.8427 14.1757 62.4746C14.0256 63.5009 13.9174 64.4531 14.0095 64.2784C13.6148 66.1668 13.8465 68.1215 13.5396 69.1867C13.5155 72.2608 13.504 75.1359 13.8337 77.874C13.7923 77.8517 13.7554 77.6568 13.7164 77.3744C13.8747 78.7173 14.0405 80.0045 14.2006 81.6571C14.3072 82.3176 14.0603 81.2954 14.0255 81.0625C14.564 83.623 14.7644 86.0897 15.5739 88.2695L15.4077 87.8033C15.544 88.241 15.6811 88.8336 15.7231 88.7595L15.5814 88.3394C15.4672 87.609 16.2532 90.0231 16.3218 90.0827C15.9084 89.4152 16.9624 92.2784 16.3578 91.1949C16.487 91.4664 16.653 91.807 16.6685 91.7248C16.8217 92.1388 16.8545 92.284 16.6402 91.8803C17.1036 92.9206 17.3438 93.4288 17.6806 94.1888C17.6806 94.1888 17.5283 93.9296 17.4345 93.7947C17.8037 94.4487 18.0258 95.1735 18.6304 96.257C18.5795 96.2028 18.6265 96.3331 18.4462 96.0074C19.5688 97.858 20.2213 99.2266 21.6357 101.07Z" fill="#FAD954"></path> <path d="M110.281 81.6683C103.018 105.392 77.9239 118.743 54.2329 111.49C30.542 104.237 17.2235 79.1255 24.4867 55.4019C31.7498 31.6783 56.8436 18.3274 80.5345 25.5805C104.225 32.8337 117.544 57.9447 110.281 81.6683Z" stroke="#1A1A1A" stroke-width="0.75"></path> <path d="M45.2961 58.0736C44.5962 57.8593 44.0979 57.3554 43.8162 56.5538C43.771 56.4144 43.6738 56.3219 43.5247 56.2763C43.4099 56.2411 43.2926 56.2554 43.1992 56.3147C43.0907 56.3819 43.0247 56.4746 42.9826 56.6123C42.8947 56.8992 43.0488 57.2977 43.4448 57.808C43.8407 58.3183 44.3732 58.6695 45.0502 58.8768C45.8993 59.1368 46.606 59.1649 47.1969 58.9567C47.7727 58.7565 48.1471 58.3943 48.3087 57.8664C48.379 57.637 48.3884 57.4014 48.3528 57.1897C48.3172 56.978 48.2561 56.8087 48.1694 56.6818C48.0828 56.5548 47.9697 56.4324 47.8416 56.3179C47.7021 56.1998 47.6093 56.1338 47.5555 56.1048L47.4283 56.0282L47.4494 55.9593L47.5712 55.9715C47.655 55.9846 47.7573 55.9783 47.8896 55.9561C48.0184 55.9453 48.1428 55.9081 48.2821 55.8629C48.4214 55.8177 48.5484 55.731 48.6779 55.595C48.8039 55.4704 48.9024 55.3124 48.9622 55.1173C49.0957 54.6813 48.9936 54.2359 48.6629 53.7582C48.3288 53.2919 47.7963 52.9406 47.0619 52.7158C46.4079 52.5156 45.808 52.5076 45.2541 52.6769C44.6968 52.8576 44.383 53.0628 44.3057 53.3152C44.2636 53.4529 44.2629 53.5782 44.3186 53.6831C44.3593 53.796 44.4521 53.862 44.5668 53.8971C44.6815 53.9323 44.8139 53.91 44.9637 53.8304C45.5613 53.4361 46.1849 53.3258 46.816 53.519C47.298 53.6666 47.637 53.8708 47.8368 54.1202C48.033 54.381 48.111 54.6183 48.0442 54.8363C47.8545 55.4559 47.2583 55.5996 46.2715 55.2975L45.5831 55.0867C45.3536 55.0165 45.2002 55.1076 45.1229 55.36C45.0456 55.6124 45.1252 55.7623 45.3547 55.8326L45.9284 56.0082C46.5136 56.1874 46.9295 56.4277 47.1646 56.7255C47.3997 57.0234 47.4751 57.31 47.3908 57.5854C47.303 57.8723 47.08 58.0676 46.7185 58.1828C46.3569 58.298 45.8813 58.2528 45.2961 58.0736Z" fill="#1A1A1A"></path> <path d="M55.49 61.4455C55.5251 61.3308 55.5073 61.2249 55.4631 61.1235C55.4038 61.0301 55.3261 60.9561 55.2113 60.921L54.6376 60.7453L56.0603 56.0982C56.0955 55.9835 56.0777 55.8776 56.0334 55.7762C55.9742 55.6828 55.8964 55.6088 55.7817 55.5737L51.9952 54.4144C51.8804 54.3793 51.7631 54.3936 51.6732 54.4413C51.5683 54.497 51.5058 54.5783 51.4706 54.693L50.6978 57.2174C50.6135 57.4928 50.5018 57.7347 50.3706 57.9581C50.236 58.1929 50.1074 58.3669 49.9929 58.495C49.8749 58.6346 49.7524 58.7477 49.622 58.8458C49.488 58.9554 49.3946 59.0146 49.3496 59.0385C49.3011 59.0739 49.2712 59.0898 49.2447 59.0942L48.9578 59.0064C48.8431 58.9713 48.7258 58.9856 48.6359 59.0333C48.5309 59.0891 48.4684 59.1703 48.4333 59.2851L47.9415 60.8915C47.9063 61.0062 47.9092 61.12 47.9684 61.2134C48.0241 61.3184 48.1169 61.3844 48.2431 61.423C48.3693 61.4617 48.4831 61.4589 48.588 61.4031C48.6894 61.3589 48.7669 61.2697 48.802 61.1549L49.1709 59.9501L54.5065 61.5836L54.1376 62.7884C54.1025 62.9032 54.1053 63.017 54.1645 63.1104C54.2202 63.2153 54.313 63.2814 54.4507 63.3235C54.5654 63.3587 54.6792 63.3558 54.7841 63.3001C54.8855 63.2559 54.963 63.1666 54.9982 63.0519L55.49 61.4455ZM52.2083 55.3581L55.0768 56.2363L53.777 60.4818L50.1626 59.3753L50.1802 59.3179L50.4235 59.179C50.5769 59.0879 50.7769 58.8856 51.0085 58.58C51.2401 58.2745 51.4249 57.9169 51.5584 57.4809L52.2083 55.3581Z" fill="#1A1A1A"></path> <path d="M57.0395 59.8492C56.8217 60.5606 56.895 61.2231 57.2559 61.8481C57.6167 62.4731 58.2119 62.9063 59.0381 63.1593C59.8528 63.4087 60.5885 63.383 61.2374 63.0671C61.8863 62.7512 62.3294 62.2468 62.5472 61.5354L62.9336 60.2732C63.1479 59.5733 63.0632 58.9073 62.7023 58.2823C62.3415 57.6573 61.7497 57.2126 60.9351 56.9632C60.1089 56.7102 59.3696 56.7474 58.7207 57.0633C58.0718 57.3792 57.6403 57.8871 57.426 58.587L57.0395 59.8492ZM61.6866 61.2719C61.5426 61.7424 61.2396 62.0763 60.797 62.2922C60.3429 62.5046 59.8348 62.5247 59.284 62.3561C58.7218 62.1839 58.312 61.8828 58.0661 61.4561C57.8088 61.0259 57.7561 60.5831 57.9001 60.1127L58.2865 58.8505C58.4271 58.3915 58.7221 58.0426 59.1762 57.8302C59.6188 57.6143 60.1269 57.5942 60.6892 57.7664C61.2399 57.935 61.6497 58.2361 61.9071 58.6663C62.1529 59.093 62.2136 59.5508 62.0731 60.0098L61.6866 61.2719Z" fill="#1A1A1A"></path> <path d="M67.6867 59.9087C68.2145 60.0703 68.6128 60.3679 68.8587 60.7946C69.1046 61.2213 69.1537 61.6756 69.0132 62.1345L68.6268 63.3967C68.4828 63.8671 68.1912 64.2046 67.7486 64.4205C67.306 64.6364 66.8093 64.66 66.2815 64.4984C65.7422 64.3333 65.3554 64.0392 65.1095 63.6125C64.8637 63.1858 64.811 62.743 64.955 62.2726L65.3766 60.8957C65.503 60.4826 65.784 60.1796 66.2231 59.9751C66.6622 59.7707 67.1589 59.7471 67.6867 59.9087ZM67.9326 59.1055C67.7031 59.0352 67.486 59.0064 67.2584 59.012C67.0308 59.0176 66.8376 59.0338 66.6868 59.0755C66.536 59.1172 66.3932 59.1738 66.2468 59.242C66.0969 59.3216 66.007 59.3693 65.97 59.4082C65.9215 59.4436 65.8916 59.4595 65.8731 59.4789L65.8157 59.4614L65.9386 59.0598C65.9738 58.945 65.956 58.8392 65.9002 58.7343C65.841 58.6408 65.7518 58.5633 65.6256 58.5247C65.4993 58.486 65.382 58.5003 65.2806 58.5446C65.1757 58.6003 65.1132 58.6816 65.0781 58.7963L62.742 66.4267C62.7068 66.5414 62.7096 66.6553 62.7689 66.7487C62.8246 66.8536 62.9173 66.9196 63.0436 66.9583C63.1698 66.9969 63.2836 66.9941 63.3885 66.9384C63.4934 66.8827 63.5674 66.8049 63.6025 66.6902L64.4632 63.879L64.5206 63.8965L64.5613 64.0094C64.5782 64.0773 64.6259 64.1672 64.6896 64.2871C64.7533 64.407 64.8435 64.5225 64.9566 64.645C65.0547 64.7754 65.2057 64.8969 65.3947 65.0175C65.5837 65.1381 65.7947 65.2278 66.0356 65.3016C66.8159 65.5405 67.5402 65.5112 68.1926 65.1839C68.8415 64.868 69.2731 64.3601 69.4874 63.6602L69.8738 62.398C70.0846 61.7095 70.0113 61.0471 69.654 60.4106C69.2931 59.7856 68.7128 59.3444 67.9326 59.1055Z" fill="#1A1A1A"></path> <path d="M70.7549 64.0482C70.5371 64.7596 70.6104 65.4221 70.9712 66.0471C71.3321 66.6721 71.9273 67.1054 72.7535 67.3583C73.5681 67.6077 74.3039 67.582 74.9528 67.2661C75.6017 66.9502 76.0448 66.4458 76.2626 65.7344L76.649 64.4723C76.8633 63.7723 76.7785 63.1064 76.4177 62.4813C76.0568 61.8563 75.4651 61.4116 74.6504 61.1622C73.8243 60.9093 73.085 60.9465 72.4361 61.2624C71.7872 61.5782 71.3556 62.0861 71.1413 62.7861L70.7549 64.0482ZM75.402 65.471C75.258 65.9414 74.9549 66.2753 74.5124 66.4912C74.0583 66.7036 73.5501 66.7237 72.9994 66.5551C72.4371 66.383 72.0273 66.0818 71.7815 65.6552C71.5241 65.225 71.4715 64.7822 71.6155 64.3117L72.0019 63.0495C72.1424 62.5906 72.4375 62.2417 72.8915 62.0293C73.3341 61.8134 73.8423 61.7933 74.4045 61.9654C74.9553 62.134 75.3651 62.4352 75.6224 62.8654C75.8683 63.292 75.9289 63.7498 75.7884 64.2088L75.402 65.471Z" fill="#1A1A1A"></path> <path d="M81.5215 64.3325C81.9001 64.4485 82.1624 64.6166 82.3153 64.814C82.4567 65.0079 82.5038 65.2231 82.4406 65.4297C82.3633 65.6821 82.2003 65.8455 81.9746 65.927C81.7338 66.0165 81.4259 65.9975 81.0472 65.8816L79.0392 65.2668L79.5135 63.7178L81.5215 64.3325ZM78.2137 67.9633L78.8109 66.0126L80.8763 66.645C81.3352 66.7855 81.6593 66.9977 81.8556 67.2585C82.0403 67.5159 82.0963 67.784 82.012 68.0594C81.9276 68.3348 81.7277 68.5371 81.442 68.6504C81.1448 68.7602 80.7839 68.7502 80.3479 68.6167L78.2137 67.9633ZM79.3004 62.7741C79.1857 62.7389 79.0684 62.7532 78.9784 62.801C78.8735 62.8567 78.811 62.938 78.7759 63.0527L77.2302 68.1014C77.1459 68.3768 77.2334 68.5416 77.5088 68.6259L80.102 69.4199C80.8364 69.6447 81.4443 69.6677 81.9328 69.4658C82.4177 69.2755 82.7472 68.9371 82.8948 68.4552C82.9615 68.2372 82.9788 68.0166 82.9433 67.8049C82.9077 67.5932 82.8466 67.4239 82.7599 67.297C82.6733 67.17 82.5752 67.0396 82.4586 66.9286C82.3305 66.8141 82.2377 66.748 82.1874 66.7075C82.1335 66.6785 82.0911 66.653 82.0717 66.6345L82.0893 66.5771L82.1916 66.5708C82.256 66.5654 82.3469 66.5556 82.4597 66.5148C82.5691 66.4855 82.682 66.4448 82.8019 66.3811C82.9218 66.3174 83.0257 66.2238 83.1438 66.0842C83.2503 65.9411 83.3374 65.7795 83.3936 65.596C83.5131 65.2058 83.4349 64.8054 83.1635 64.4211C82.8806 64.0333 82.4214 63.7296 81.7674 63.5293L79.3004 62.7741Z" fill="#1A1A1A"></path> <path d="M85.9057 70.5065C85.4123 70.3554 85.0732 70.1512 84.8805 69.8789C84.6843 69.618 84.6354 69.3269 84.7302 69.0171C84.8215 68.7188 85.025 68.505 85.3487 68.3907C85.6688 68.2879 86.102 68.3076 86.6528 68.4762L88.4887 69.0383L88.3306 69.5546C88.2006 69.9792 87.9046 70.2902 87.4576 70.4796C86.9955 70.677 86.4794 70.6821 85.9057 70.5065ZM87.901 65.2189C87.247 65.0187 86.647 65.0107 86.0932 65.18C85.5359 65.3608 85.2221 65.5659 85.1448 65.8183C85.1026 65.956 85.1019 66.0813 85.1577 66.1862C85.1984 66.2991 85.2911 66.3651 85.4059 66.4003C85.5321 66.4389 85.6644 66.4167 85.8028 66.3335C86.4004 65.9392 87.024 65.8289 87.6551 66.0221C88.1141 66.1627 88.4471 66.4277 88.6655 66.8209C88.8725 67.2106 88.9208 67.627 88.7873 68.063L88.7346 68.2351L86.8987 67.673C86.0725 67.4201 85.3887 67.399 84.8588 67.6132C84.3174 67.824 83.9774 68.1968 83.8123 68.7361C83.6436 69.2868 83.7167 69.7861 84.0244 70.2568C84.3321 70.7275 84.8795 71.0708 85.6598 71.3097C85.9008 71.3834 86.1373 71.4307 86.3878 71.4322C86.6269 71.4301 86.8201 71.4139 86.9824 71.3757C87.1447 71.3376 87.299 71.2844 87.4489 71.2048C87.5952 71.1367 87.6852 71.0889 87.7336 71.0535C87.7706 71.0147 87.8041 70.9873 87.8341 70.9714L87.8915 70.9889L87.7685 71.3905C87.7334 71.5053 87.7362 71.6191 87.7954 71.7125C87.8512 71.8174 87.9439 71.8835 88.0701 71.9221C88.1963 71.9607 88.3101 71.9579 88.415 71.9022C88.5164 71.858 88.5939 71.7687 88.6291 71.654L89.6478 68.3264C89.8516 67.6609 89.7792 67.0364 89.4608 66.4369C89.1273 65.8454 88.6124 65.4367 87.901 65.2189Z" fill="#1A1A1A"></path> <path d="M94.1067 67.3071C93.3494 67.0753 92.7195 67.0832 92.201 67.301C91.6826 67.5187 91.347 67.918 91.1749 68.4802C91.1046 68.7097 91.0873 68.9303 91.1194 69.1535C91.1514 69.3766 91.1975 69.5539 91.2772 69.7038C91.3568 69.8536 91.4549 69.9841 91.576 70.1215C91.6855 70.2555 91.7712 70.3445 91.8216 70.385C91.8719 70.4255 91.9108 70.4625 91.9452 70.473L91.9277 70.5304L90.1912 71.693L90.1163 71.7328C90.0564 71.7647 90.0009 71.823 89.9454 71.8813C89.8749 71.9476 89.8423 72.0129 89.8212 72.0817C89.751 72.3112 89.8306 72.4611 90.0601 72.5313C90.2437 72.5876 90.4439 72.5485 90.6643 72.4026L92.718 71.0234L94.7834 71.6557L94.2564 73.3768C94.2213 73.4916 94.2241 73.6054 94.2833 73.6988C94.3391 73.8037 94.4318 73.8698 94.5695 73.9119C94.6842 73.9471 94.798 73.9442 94.9029 73.8885C95.0043 73.8443 95.0819 73.755 95.117 73.6403L96.6802 68.5342C96.7154 68.4195 96.6976 68.3137 96.6533 68.2123C96.5941 68.1188 96.5163 68.0448 96.4016 68.0097L94.1067 67.3071ZM95.6967 68.6724L95.0293 70.8525L93.1934 70.2904C92.7114 70.1429 92.3838 69.9422 92.2061 69.6619C92.0249 69.393 91.9909 69.094 92.0928 68.7612C92.1912 68.44 92.3867 68.2112 92.6909 68.0784C92.9916 67.9571 93.3789 67.9628 93.8608 68.1103L95.6967 68.6724Z" fill="#1A1A1A"></path> <path d="M50.7272 73.7294L50.7712 73.6675C50.8047 73.6402 50.8337 73.5863 50.8813 73.513C50.9253 73.4512 50.9614 73.3744 50.9824 73.3055C51.0176 73.1908 50.9998 73.0849 50.9555 72.9835C50.8963 72.8901 50.8185 72.8161 50.7038 72.781C50.4743 72.7107 50.26 72.7957 50.0645 73.0245L46.8073 76.8589L46.7614 76.8449L46.1632 71.8301C46.1178 71.5275 45.9879 71.3372 45.7698 71.2704C45.6551 71.2353 45.5378 71.2496 45.4479 71.2973C45.3429 71.3531 45.2804 71.4343 45.2453 71.5491C45.1961 71.7097 45.1849 71.8694 45.2195 72.0432L45.9464 77.6621L44.5062 79.2919L44.3435 79.6186C44.3084 79.7333 44.3112 79.8471 44.3704 79.9406C44.4147 80.042 44.5074 80.108 44.6221 80.1431C44.8516 80.2134 45.0624 80.1399 45.2614 79.8996L50.7272 73.7294Z" fill="#1A1A1A"></path> <path d="M53.3035 74.5181L56.1721 75.3964L54.7318 80.1008C54.6967 80.2156 54.6995 80.3294 54.7587 80.4228C54.8144 80.5277 54.9072 80.5938 55.0449 80.6359C55.1596 80.671 55.2734 80.6682 55.3783 80.6125C55.4797 80.5683 55.5572 80.479 55.5924 80.3643L57.1556 75.2582C57.1907 75.1435 57.1729 75.0376 57.1287 74.9362C57.0694 74.8428 56.9917 74.7688 56.877 74.7337L53.0904 73.5744C52.9757 73.5393 52.8584 73.5536 52.7685 73.6013C52.6635 73.6571 52.601 73.7383 52.5659 73.8531L51.793 76.3774C51.4172 77.6052 50.7917 78.2545 49.943 78.321C49.6854 78.3425 49.5285 78.4451 49.4759 78.6172C49.4407 78.7319 49.4435 78.8457 49.5028 78.9392C49.5585 79.0441 49.6398 79.1066 49.7545 79.1417C50.202 79.2787 50.7258 79.1254 51.3295 78.6702C51.9297 78.2264 52.3761 77.5473 52.6536 76.6409L53.3035 74.5181Z" fill="#1A1A1A"></path> <path d="M65.7829 77.8368C65.8181 77.722 65.8003 77.6162 65.7445 77.5113C65.6853 77.4179 65.5961 77.3403 65.4699 77.3017C65.3436 77.2631 65.2263 77.2773 65.1249 77.3216C65.02 77.3773 64.9575 77.4586 64.9224 77.5733L63.3415 82.7367C63.3064 82.8515 63.3092 82.9653 63.3685 83.0587C63.4242 83.1636 63.5169 83.2297 63.6431 83.2683C63.7693 83.307 63.8832 83.3042 63.9881 83.2484C64.0895 83.2042 64.167 83.115 64.2021 83.0002L65.7829 77.8368ZM58.4334 80.7321L59.1359 78.4372L60.685 78.9115C61.1784 79.0625 61.5139 79.2782 61.7031 79.562C61.8923 79.8459 61.9342 80.1599 61.8253 80.5156C61.7129 80.8828 61.5024 81.1195 61.1867 81.2488C60.8711 81.378 60.4758 81.3574 59.9824 81.2063L58.4334 80.7321ZM59.7365 82.0095C60.5397 82.2554 61.197 82.281 61.704 82.0597C62.1995 81.8349 62.5536 81.4162 62.7433 80.7966C62.9154 80.2344 62.8414 79.6972 62.5293 79.2C62.2057 78.6994 61.6767 78.3366 60.9309 78.1083L59.3819 77.634L59.8737 76.0276C59.9088 75.9129 59.891 75.807 59.8353 75.7021C59.776 75.6087 59.6868 75.5312 59.5606 75.4925C59.4344 75.4539 59.3171 75.4682 59.2157 75.5124C59.1107 75.5682 59.0482 75.6494 59.0131 75.7642L57.4498 80.8702C57.4147 80.985 57.4175 81.0988 57.4768 81.1922C57.521 81.2936 57.6137 81.3596 57.7285 81.3948L59.7365 82.0095Z" fill="#1A1A1A"></path> <path d="M67.9337 79.6247L67.8764 79.6072L67.9466 79.3777C68.1574 78.6892 68.4867 78.1877 68.9424 77.8879C69.3981 77.5882 69.9458 77.4798 70.5776 77.5477L72.938 77.8311C73.1816 77.8555 73.3385 77.753 73.4052 77.5349C73.4403 77.4202 73.4226 77.3144 73.3668 77.2094C73.2961 77.1125 73.2069 77.035 73.0692 76.9928C72.9545 76.9577 72.7868 76.9315 72.5927 76.9097L70.7263 76.652C69.858 76.5368 69.0986 76.6808 68.471 77.091C67.8319 77.4978 67.3741 78.1733 67.086 79.1142L66.3835 81.4091C66.1586 82.1434 66.2249 82.8289 66.6016 83.4839C66.9634 84.1468 67.5437 84.588 68.3469 84.8339C69.1616 85.0833 69.8973 85.0576 70.5462 84.7417C71.1951 84.4258 71.6382 83.9214 71.856 83.21L72.0141 82.6937C72.2284 81.9938 72.1436 81.3278 71.7828 80.7028C71.4219 80.0777 70.8302 79.633 70.0155 79.3836C69.6713 79.2782 69.3254 79.2602 68.9585 79.311C68.5915 79.3618 68.3384 79.4098 68.2185 79.4735C68.0986 79.5372 67.9972 79.5814 67.9337 79.6247ZM70.9954 82.9466C70.8514 83.417 70.5484 83.7509 70.1058 83.9668C69.6517 84.1792 69.1436 84.1993 68.5928 84.0307C68.0535 83.8656 67.6587 83.5565 67.3969 83.0998C67.1351 82.6432 67.093 82.166 67.244 81.6726L67.367 81.271C67.5075 80.812 67.8026 80.4631 68.2566 80.2507C68.6992 80.0348 69.2074 80.0147 69.7696 80.1868C70.3204 80.3554 70.7302 80.6566 70.9875 81.0868C71.2334 81.5134 71.294 81.9713 71.1535 82.4302L70.9954 82.9466Z" fill="#1A1A1A"></path> <path d="M78.9299 82.2383L78.9898 82.2065C79.0198 82.1905 79.0683 82.1552 79.1088 82.1048C79.1493 82.0545 79.1898 82.0041 79.2074 81.9468C79.2425 81.832 79.2247 81.7262 79.1805 81.6248C79.1212 81.5313 79.0435 81.4573 78.9288 81.4222C78.814 81.3871 78.6817 81.4093 78.5318 81.4889L74.401 83.299L75.1914 80.7172C75.2265 80.6025 75.2087 80.4967 75.153 80.3917C75.0938 80.2983 75.0045 80.2208 74.8783 80.1822C74.7521 80.1435 74.6348 80.1578 74.5334 80.2021C74.4285 80.2578 74.366 80.339 74.3308 80.4538L72.75 85.6172C72.7149 85.7319 72.7177 85.8458 72.7769 85.9392C72.8327 86.0441 72.9254 86.1101 73.0516 86.1488C73.1778 86.1874 73.2916 86.1846 73.3965 86.1289C73.4979 86.0846 73.5755 85.9954 73.6106 85.8807L74.0848 84.3316L75.6058 83.6678L76.8679 87.1289L76.8882 87.1853C76.9006 87.2268 76.9245 87.2718 76.9749 87.3123C77.0252 87.3528 77.0906 87.3853 77.1594 87.4064C77.2971 87.4486 77.4109 87.4458 77.5273 87.3935C77.6287 87.3493 77.7062 87.2601 77.7413 87.1453C77.7765 87.0306 77.7542 86.8983 77.6746 86.7484L76.395 83.3447L78.9299 82.2383Z" fill="#1A1A1A"></path> <path d="M80.8156 87.7728C80.3222 87.6217 79.9831 87.4175 79.7904 87.1452C79.5942 86.8843 79.5453 86.5932 79.6401 86.2834C79.7314 85.9851 79.9349 85.7713 80.2586 85.657C80.5787 85.5542 81.0119 85.5739 81.5627 85.7425L83.3986 86.3046L83.2405 86.821C83.1105 87.2455 82.8145 87.5565 82.3675 87.7459C81.9054 87.9433 81.3893 87.9484 80.8156 87.7728ZM82.8109 82.4853C82.1569 82.285 81.5569 82.277 81.0031 82.4463C80.4458 82.6271 80.132 82.8322 80.0547 83.0847C80.0125 83.2224 80.0118 83.3476 80.0676 83.4525C80.1083 83.5654 80.201 83.6315 80.3158 83.6666C80.442 83.7052 80.5743 83.683 80.7127 83.5999C81.3103 83.2055 81.9339 83.0953 82.565 83.2885C83.024 83.429 83.357 83.6941 83.5754 84.0873C83.7824 84.4769 83.8307 84.8933 83.6972 85.3293L83.6445 85.5014L81.8086 84.9393C80.9824 84.6864 80.2986 84.6653 79.7687 84.8796C79.2273 85.0903 78.8873 85.4631 78.7222 86.0024C78.5535 86.5532 78.6266 87.0524 78.9343 87.5231C79.242 87.9938 79.7894 88.3371 80.5697 88.576C80.8107 88.6498 81.0472 88.6971 81.2977 88.6985C81.5368 88.6964 81.73 88.6802 81.8923 88.6421C82.0546 88.6039 82.2089 88.5508 82.3588 88.4711C82.5051 88.403 82.5951 88.3552 82.6435 88.3199C82.6805 88.281 82.714 88.2536 82.744 88.2377L82.8014 88.2552L82.6784 88.6568C82.6433 88.7716 82.6461 88.8854 82.7053 88.9788C82.7611 89.0837 82.8538 89.1498 82.98 89.1884C83.1062 89.2271 83.22 89.2243 83.3249 89.1685C83.4263 89.1243 83.5038 89.0351 83.539 88.9203L84.5577 85.5928C84.7615 84.9273 84.6891 84.3027 84.3707 83.7032C84.0372 83.1117 83.5223 82.7031 82.8109 82.4853Z" fill="#1A1A1A"></path> </g> <defs> <clipPath id="clip0"> <rect width="106.908" height="110.563" fill="white" transform="translate(32.3667) rotate(17.0223)"></rect> </clipPath> </defs> </svg> 