<?xml version="1.0" encoding="UTF-8"?> <svg xmlns="http://www.w3.org/2000/svg" width="196" height="196" viewBox="0 0 196 196" fill="none"> <g clip-path="url(#clip0)"> <path d="M85.1254 156.863C84.327 156.945 86.0089 156.975 86.1231 157.126L87.5331 157.205L86.9772 157.093C88.197 157.174 89.2998 157.241 90.3557 157.227L89.4403 157.296L91.7597 157.202L90.4493 157.2C91.7011 157.1 90.335 157.05 91.9613 157.031C92.2685 157.044 92.3737 157.037 93.8334 157.061C94.781 157.001 95.0969 156.981 95.9801 156.904C96.2229 156.899 95.799 157.063 95.9482 157.085C98.0303 156.722 97.3402 156.85 99.5686 156.457C99.3288 156.514 99.3113 156.578 99.3962 156.583L99.8845 156.437C100.452 156.38 100.537 156.385 100.467 156.453C102.177 156.25 99.9137 156.393 101.929 156.15C101.762 156.192 101.847 156.197 101.522 156.249C103.786 155.728 104.985 155.442 107.248 154.92C107.818 154.915 105.654 155.326 106.286 155.286C108.85 154.671 111.45 153.55 113.853 152.704C114.247 152.395 115.61 152.014 116.718 151.429C116.42 151.574 116.353 151.694 116.434 151.647C118.107 150.952 119.834 150.117 122.161 148.665L121.898 148.871C122.831 148.36 124.392 147.567 125.359 146.927C125.61 146.701 126.16 146.329 125.8 146.51C128.957 144.796 131.312 142.542 133.846 140.646C133.554 140.896 133.183 141.246 133.405 141.064C134.068 140.464 134.811 139.954 135.439 139.294C135.243 139.38 135.155 139.512 134.688 139.836C135.266 139.231 135.675 138.805 135.915 138.559C135.088 139.442 135.994 138.648 136.397 138.307C136.315 138.355 136.37 138.214 136.37 138.214C137.472 137.335 136.429 137.937 137.878 136.667L137.831 136.775C138.31 136.282 138.93 135.654 139.339 135.228C139.625 135.063 138.822 135.797 138.836 135.87C139.64 135.135 140.145 134.167 140.89 133.52C140.475 134.03 140.297 134.242 139.882 134.752C140.665 134.029 140.733 133.909 141.27 133.328L141.22 133.384L142.465 132.042L142.135 132.368C142.862 131.218 143.917 130.257 144.851 128.661C143.922 130.172 144.74 128.942 144.761 129.12C145.067 128.753 145.511 128.199 145.406 128.395C145.85 127.651 146.315 127.275 146.931 126.215C146.992 126.18 147.48 125.465 147.439 125.678C147.996 124.706 147.261 125.889 147.264 125.752C148.075 124.228 149.5 122.349 150.633 120.152C151.172 118.866 151.779 117.46 152.292 116.27C152.339 116.162 152.397 116.074 152.444 115.966C152.64 115.69 152.266 116.556 152.266 116.556C152.695 115.74 153.028 115.087 153.311 114.301C153.235 114.453 153.194 114.477 153.188 114.372C153.366 113.971 153.48 113.554 153.637 113.165L153.337 114.205C153.363 114.108 153.434 114.041 153.46 113.945C153.419 114.158 153.524 113.962 153.667 113.689C153.941 112.936 153.751 113.126 154.171 112.153C154.131 112.366 154.067 112.728 154.006 112.953C154.247 112.19 154.664 110.975 154.906 110.213C155.052 109.993 154.781 110.799 154.706 111.141C154.924 110.527 155.187 109.753 155.393 109.119C155.178 109.785 154.976 110.145 154.915 110.18L155.151 109.503C154.71 110.109 154.183 112.173 153.667 113.5L153.734 113.001C155.075 109.655 156.192 106.249 156.951 102.697C156.96 102.665 156.957 102.612 156.974 102.548C157.083 102.783 157.153 103.284 157.564 101.206L157.696 99.6403L157.813 99.2752C157.824 99.1061 157.865 98.8931 157.877 98.724C157.944 98.604 158.005 98.3792 158.051 98.0816L157.921 96.5325C157.985 96.3601 158.024 97.231 158.081 96.1962C158.019 95.4741 157.93 96.8792 157.905 95.7022C157.989 94.9498 158.054 95.1562 157.994 94.2971C158.029 94.1686 158.062 94.3665 158.071 94.7132C158.058 93.9353 158.06 92.662 157.89 92.2729C157.898 91.4832 157.615 89.6701 157.776 89.7126C157.681 89.1714 157.455 87.9756 157.384 87.6644C157.824 88.8993 156.866 85.0664 157.136 85.344C156.851 84.4255 156.351 81.9527 155.712 80.3726C155.773 80.5265 155.823 80.6602 155.861 80.7735C155.738 80.2762 155.57 79.5608 155.42 78.9704C155.268 78.8959 154.807 77.4834 154.377 76.7845C154.048 75.6478 154.781 77.3903 154.769 76.9912C154.69 77.0909 153.912 75.1302 153.957 75.5377C153.707 74.6801 153.704 74.8171 153.645 74.3368C153.429 74.2452 153.317 73.5789 152.942 72.9291C152.461 71.7178 152.941 72.5503 152.258 71.3202C152 70.6841 152.613 71.7924 152.613 71.7924C151.947 70.498 152.191 71.2508 151.986 70.9901C151.18 69.4521 151.71 70.2288 151.499 69.674C151.124 69.0242 150.318 67.6756 150.098 67.3422C150.083 67.2694 150.013 67.1476 150.116 67.2779C148.762 65.2168 149.213 65.9038 147.514 63.3383C147.479 63.2774 147.452 63.1844 147.452 63.1844C147.443 63.0271 148.196 64.1897 147.291 62.7631L147.452 63.1844C147.517 63.3908 147.479 63.4668 147.414 63.4498C147.086 62.8813 146.673 62.4969 146.597 62.2703C146.837 62.5918 146.869 62.6003 147.004 62.7391L146.562 62.2094C146.298 61.6578 147.142 62.9304 147.224 62.8831C146.427 61.8811 145.469 60.6473 144.83 59.8248C144.795 59.5745 146.269 61.7017 145.56 60.5679L146.468 61.8575C145.899 60.778 147.03 62.6428 146.529 61.6327C145.225 59.8946 145.202 59.8539 143.878 58.1276C143.532 57.8127 143.898 58.3052 143.553 57.9903C141.509 55.8674 142.249 56.0627 140.694 54.5509C140.24 54.1902 140.065 54.075 138.978 52.9966L139.458 53.261C138.006 51.8795 138.481 52.6071 137.011 51.1005C137.33 51.3223 138.191 52.1519 137.977 51.9234C137.063 50.9077 137.213 51.3087 136.454 50.6094L136.378 50.3828C134.806 48.9352 132.777 47.6426 130.939 46.1592C131.059 46.2253 131.398 46.4353 130.985 46.051C128.412 44.4771 125.637 42.5056 122.989 41.2733L121.941 40.8764C121.713 40.7645 121.525 40.629 121.795 40.7172C120.802 40.1801 121.721 40.7324 121.204 40.5441C120.627 40.2543 120.46 40.107 120.849 40.2613C118.962 39.5912 115.465 38.3071 113.455 37.7079L113.87 37.7658C112.282 37.3294 112.007 37.5151 110.523 37.0721L110.822 37.1164C107.355 36.1671 103.364 35.8717 100.641 35.549C100.109 35.6667 97.078 35.3318 96.8355 35.526C94.7821 35.4662 95.3729 35.4499 92.4392 35.5193C91.6495 35.5691 91.2957 35.6651 90.3219 35.8212L90.2954 35.7282L89.0029 36.0412L88.3038 36.0117L87.4148 36.173C87.7716 36.1294 88.1928 36.1029 88.1314 36.1383C86.7511 36.3937 84.6921 36.6078 84.6921 36.6078L81.5195 37.492C81.5896 37.4244 82.1306 37.2745 82.5458 37.1431C80.8441 37.6924 82.2065 37.1224 80.6392 37.6212C80.8703 37.5961 80.5195 37.7445 80.5195 37.7445C79.7036 37.8906 77.9786 38.5887 76.6746 39.0709L76.888 38.9206C74.5108 39.6704 72.0759 41.0762 69.6116 42.3365C70.4827 41.8606 70.3571 42.0685 69.6527 42.5023L69.3193 42.5864C68.9044 42.9072 70.0677 42.1814 69.1734 42.8061C68.273 43.3259 68.5009 43.059 69.0094 42.7112L67.9514 43.4303C67.8783 43.4455 68.1121 43.2834 68.1705 43.1956C67.7555 43.5164 66.2324 44.2333 65.648 44.7331L65.5749 44.7483C63.3363 46.4468 62.287 47.1339 60.5425 48.6013C60.5689 48.6944 59.8939 49.2736 59.4148 49.7668C58.1231 50.8374 56.6883 51.9907 55.3153 53.4874C54.36 54.5262 55.0817 53.8388 54.6756 54.3169C54.5499 54.3354 53.1417 55.7711 53.8369 54.9906C52.1834 56.7575 51.836 57.3371 49.9082 59.6685C50.1595 59.4422 50.4078 59.1634 50.3114 59.3274C49.9668 59.77 49.4672 60.275 49.4934 60.1787L49.581 60.0469C47.6039 62.8128 44.7355 66.2557 43.4894 68.6808L43.577 68.549C43.0835 69.3483 42.6223 70.1561 42.205 70.9926C41.5598 72.0961 42.5347 70.2879 42.0209 71.0989C40.6638 73.8047 39.6037 75.2289 38.6235 77.5005C37.347 79.0226 35.8607 83.7252 34.9655 86.1914L35.0853 86.0681C34.9223 86.7307 34.7907 86.8337 34.6275 87.307C34.6976 87.2395 34.9163 86.6259 34.8231 87.0316C33.2411 92.4663 32.745 98.6007 33.6291 104.29C33.8655 106.401 34.0223 105.444 34.4757 108.025L34.2029 107.316C35.208 111.419 36.4238 115.699 38.3029 119.379C38.174 119.156 38.1331 119.179 37.9747 118.811C38.2652 119.645 39.3148 121.746 39.3879 121.731C39.643 122.315 39.3969 121.888 39.5348 122.269C39.8662 123.079 40.6981 124.142 40.8508 124.595C40.8655 124.668 40.7013 124.384 40.631 124.262C40.9533 124.726 41.9353 126.568 41.7475 126.054C42.4394 127.441 43.3065 128.565 43.9892 129.606C44.531 130.214 45.4571 131.818 45.7176 131.938C45.4661 131.975 47.2704 134.155 47.9556 134.869C47.7097 134.632 48.4595 135.553 48.1492 135.299C48.8639 136.159 49.5317 136.938 49.4671 136.731C50.6829 138.412 52.4217 139.628 53.0401 140.652C55.5026 142.885 57.7864 144.951 60.2717 146.656C60.2308 146.68 60.023 146.556 59.7712 146.404C60.9715 147.254 62.1453 148.011 63.6119 149.087C64.2266 149.49 63.2022 148.944 63.0149 148.809C65.5144 150.208 67.6662 151.809 70.0627 152.699L69.5448 152.511C69.9896 152.714 70.5984 153.013 70.5837 152.94L70.1184 152.748C69.4393 152.328 72.0262 153.407 72.1198 153.38C71.2451 153.235 74.3879 154.426 73.0508 154.142C73.3727 154.227 73.7911 154.337 73.7237 154.268C74.1773 154.439 74.3295 154.513 73.8262 154.398C75.0405 154.753 75.6316 154.926 76.524 155.196C76.524 155.196 76.1934 155.143 76.012 155.112C76.8341 155.26 77.5951 155.633 78.9526 155.905C78.8677 155.9 79.0199 155.975 78.6132 155.885C80.9069 156.266 82.5278 156.711 85.1254 156.863Z" fill="#7AB883"></path> <path d="M143.126 84.9615C149.266 111.604 132.674 138.173 106.068 144.304C79.462 150.436 52.9151 133.809 46.775 107.166C40.6349 80.5234 57.2272 53.9552 83.8333 47.8236C110.439 41.692 136.986 58.3184 143.126 84.9615Z" stroke="white"></path> <path d="M68.5129 92.7516C68.5129 92.5916 68.4489 92.4636 68.3369 92.3516C68.2249 92.2556 68.0809 92.1916 67.9049 92.1916C67.7289 92.1916 67.5849 92.2556 67.4729 92.3516C67.3609 92.4636 67.3129 92.5916 67.3129 92.7516L67.3129 95.7916L62.4329 95.7916L62.4329 92.7516C62.4329 92.5916 62.3689 92.4636 62.2569 92.3516C62.1449 92.2556 62.0009 92.1916 61.8249 92.1916C61.6489 92.1916 61.5049 92.2556 61.3929 92.3516C61.2809 92.4636 61.2329 92.5916 61.2329 92.7516L61.2329 99.9516C61.2329 100.112 61.2809 100.256 61.3929 100.352C61.5049 100.464 61.6489 100.512 61.8249 100.512C62.0009 100.512 62.1449 100.464 62.2569 100.352C62.3689 100.256 62.4329 100.112 62.4329 99.9516L62.4329 96.9116L67.3129 96.9116L67.3129 99.9516C67.3129 100.112 67.3609 100.256 67.4729 100.352C67.5849 100.464 67.7289 100.512 67.9049 100.512C68.0809 100.512 68.2249 100.464 68.3369 100.352C68.4489 100.256 68.5129 100.112 68.5129 99.9516L68.5129 92.7516Z" fill="white"></path> <path d="M73.7167 99.5516C73.0287 99.5516 72.5167 99.4236 72.1647 99.1516C71.8127 98.8956 71.6367 98.5436 71.6367 98.1116C71.6367 97.6956 71.8127 97.3436 72.1807 97.0716C72.5487 96.8156 73.1087 96.6716 73.8767 96.6716L76.4367 96.6716L76.4367 97.3916C76.4367 97.9836 76.1807 98.4956 75.6847 98.9116C75.1727 99.3436 74.5167 99.5516 73.7167 99.5516ZM74.1967 92.0316C73.2847 92.0316 72.5167 92.2556 71.8767 92.6876C71.2367 93.1356 70.9167 93.5196 70.9167 93.8716C70.9167 94.0636 70.9647 94.2236 71.0767 94.3356C71.1727 94.4636 71.3167 94.5116 71.4767 94.5116C71.6527 94.5116 71.8127 94.4316 71.9567 94.2716C72.5647 93.5356 73.3167 93.1516 74.1967 93.1516C74.8367 93.1516 75.3647 93.3596 75.7967 93.7756C76.2127 94.1916 76.4367 94.7036 76.4367 95.3116L76.4367 95.5516L73.8767 95.5516C72.7247 95.5516 71.8447 95.7916 71.2527 96.2716C70.6447 96.7516 70.3567 97.3596 70.3567 98.1116C70.3567 98.8796 70.6447 99.4876 71.2207 99.9676C71.7967 100.448 72.6287 100.672 73.7167 100.672C74.0527 100.672 74.3727 100.64 74.6927 100.544C74.9967 100.448 75.2367 100.352 75.4287 100.24C75.6207 100.128 75.7967 99.9996 75.9567 99.8396C76.1167 99.6956 76.2127 99.5996 76.2607 99.5356C76.2927 99.4716 76.3247 99.4236 76.3567 99.3916L76.4367 99.3916L76.4367 99.9516C76.4367 100.112 76.4847 100.256 76.5967 100.352C76.7087 100.464 76.8527 100.512 77.0287 100.512C77.2047 100.512 77.3487 100.464 77.4607 100.352C77.5727 100.256 77.6367 100.112 77.6367 99.9516L77.6367 95.3116C77.6367 94.3836 77.3007 93.6156 76.6607 92.9756C76.0047 92.3516 75.1887 92.0316 74.1967 92.0316Z" fill="white"></path> <path d="M88.6835 99.8716C88.6835 99.7116 88.6195 99.5836 88.5235 99.4716C88.4115 99.3756 88.2835 99.3116 88.1235 99.3116L87.3235 99.3116L87.3235 92.8316C87.3235 92.6716 87.2595 92.5436 87.1635 92.4316C87.0515 92.3356 86.9235 92.2716 86.7635 92.2716L81.4835 92.2716C81.3235 92.2716 81.1795 92.3356 81.0835 92.4316C80.9715 92.5436 80.9235 92.6716 80.9235 92.8316L80.9235 96.3516C80.9235 96.7356 80.8755 97.0876 80.7955 97.4236C80.7155 97.7756 80.6195 98.0476 80.5235 98.2556C80.4275 98.4796 80.3155 98.6716 80.1875 98.8476C80.0595 99.0396 79.9635 99.1516 79.9155 99.1996C79.8675 99.2636 79.8355 99.2956 79.8035 99.3116L79.4035 99.3116C79.2435 99.3116 79.0995 99.3756 79.0035 99.4716C78.8915 99.5836 78.8435 99.7116 78.8435 99.8716L78.8435 102.112C78.8435 102.272 78.8915 102.416 79.0035 102.512C79.1155 102.624 79.2595 102.672 79.4355 102.672C79.6115 102.672 79.7555 102.624 79.8675 102.512C79.9795 102.416 80.0435 102.272 80.0435 102.112L80.0435 100.432L87.4835 100.432L87.4835 102.112C87.4835 102.272 87.5315 102.416 87.6435 102.512C87.7555 102.624 87.8995 102.672 88.0915 102.672C88.2515 102.672 88.3955 102.624 88.5075 102.512C88.6195 102.416 88.6835 102.272 88.6835 102.112L88.6835 99.8716ZM82.1235 93.3916L86.1235 93.3916L86.1235 99.3116L81.0835 99.3116L81.0835 99.2316L81.3395 98.9596C81.4995 98.7836 81.6755 98.4476 81.8515 97.9676C82.0275 97.4876 82.1235 96.9596 82.1235 96.3516L82.1235 93.3916Z" fill="white"></path> <path d="M93.876 100.672C94.804 100.672 95.636 100.432 96.34 99.9356C97.044 99.4396 97.396 98.9916 97.396 98.5916C97.396 98.3996 97.332 98.2556 97.236 98.1276C97.124 98.0156 96.996 97.9516 96.836 97.9516C96.612 97.9516 96.452 98.0316 96.356 98.1916C95.668 99.1036 94.836 99.5516 93.876 99.5516C93.092 99.5516 92.452 99.3276 91.972 98.8796C91.476 98.4316 91.236 97.8876 91.236 97.2316L91.236 96.9116L96.996 96.9116C97.156 96.9116 97.284 96.8636 97.396 96.7516C97.492 96.6556 97.556 96.5116 97.556 96.3516L97.556 95.4716C97.556 94.5116 97.204 93.6956 96.5 93.0236C95.796 92.3676 94.884 92.0316 93.796 92.0316C92.692 92.0316 91.796 92.3676 91.092 93.0236C90.388 93.6956 90.036 94.5116 90.036 95.4716L90.036 97.2316C90.036 98.2236 90.388 99.0396 91.092 99.6956C91.796 100.352 92.724 100.672 93.876 100.672ZM91.236 95.4716C91.236 94.8316 91.476 94.2716 91.956 93.8236C92.436 93.3756 93.044 93.1516 93.796 93.1516C94.532 93.1516 95.156 93.3756 95.636 93.8236C96.116 94.2716 96.356 94.8316 96.356 95.4716L96.356 95.7916L91.236 95.7916L91.236 95.4716Z" fill="white"></path> <path d="M103.959 96.0316L99.7992 92.4316L99.7352 92.3676C99.6872 92.3356 99.6232 92.2876 99.5432 92.2556C99.4632 92.2236 99.3832 92.1916 99.3192 92.1916C99.1592 92.1916 99.0152 92.2556 98.9192 92.3516C98.8072 92.4636 98.7592 92.5916 98.7592 92.7516C98.7592 92.9116 98.8392 93.0716 98.9992 93.2316L101.799 95.6316L98.8392 99.4716L98.7752 99.5356C98.7272 99.5836 98.6792 99.6476 98.6472 99.7276C98.6152 99.8076 98.5992 99.8876 98.5992 99.9516C98.5992 100.112 98.6472 100.256 98.7752 100.352C98.8872 100.464 99.0472 100.512 99.2392 100.512C99.4472 100.512 99.6072 100.432 99.7192 100.272L102.679 96.3516L103.959 97.4716L103.959 99.9516C103.959 100.112 104.007 100.256 104.119 100.352C104.231 100.464 104.375 100.512 104.551 100.512C104.727 100.512 104.871 100.464 104.983 100.352C105.095 100.256 105.159 100.112 105.159 99.9516L105.159 97.4716L106.439 96.3516L109.399 100.272L109.447 100.336C109.479 100.384 109.527 100.432 109.607 100.464C109.687 100.496 109.783 100.512 109.879 100.512C110.071 100.512 110.215 100.464 110.343 100.352C110.455 100.256 110.519 100.112 110.519 99.9516C110.519 99.7916 110.439 99.6316 110.279 99.4716L107.319 95.6316L110.119 93.2316L110.167 93.1676C110.199 93.1356 110.247 93.0716 110.295 92.9916C110.327 92.9116 110.359 92.8316 110.359 92.7516C110.359 92.5916 110.295 92.4636 110.199 92.3516C110.087 92.2556 109.959 92.1916 109.799 92.1916C109.639 92.1916 109.479 92.2716 109.319 92.4316L105.159 96.0316L105.159 92.7516C105.159 92.5916 105.095 92.4636 104.983 92.3516C104.871 92.2556 104.727 92.1916 104.551 92.1916C104.375 92.1916 104.231 92.2556 104.119 92.3516C104.007 92.4636 103.959 92.5916 103.959 92.7516L103.959 96.0316Z" fill="white"></path> <path d="M119.325 92.7516C119.325 92.5916 119.261 92.4636 119.149 92.3516C119.037 92.2556 118.893 92.1916 118.717 92.1916C118.541 92.1916 118.397 92.2556 118.285 92.3516C118.173 92.4636 118.125 92.5916 118.125 92.7516L118.125 95.7916L113.245 95.7916L113.245 92.7516C113.245 92.5916 113.181 92.4636 113.069 92.3516C112.957 92.2556 112.813 92.1916 112.637 92.1916C112.461 92.1916 112.317 92.2556 112.205 92.3516C112.093 92.4636 112.045 92.5916 112.045 92.7516L112.045 99.9516C112.045 100.112 112.093 100.256 112.205 100.352C112.317 100.464 112.461 100.512 112.637 100.512C112.813 100.512 112.957 100.464 113.069 100.352C113.181 100.256 113.245 100.112 113.245 99.9516L113.245 96.9116L118.125 96.9116L118.125 99.9516C118.125 100.112 118.173 100.256 118.285 100.352C118.397 100.464 118.541 100.512 118.717 100.512C118.893 100.512 119.037 100.464 119.149 100.352C119.261 100.256 119.325 100.112 119.325 99.9516L119.325 92.7516Z" fill="white"></path> <path d="M121.489 97.2316C121.489 98.2236 121.841 99.0396 122.545 99.6956C123.249 100.352 124.177 100.672 125.329 100.672C126.465 100.672 127.393 100.352 128.097 99.6956C128.801 99.0396 129.169 98.2236 129.169 97.2316L129.169 95.4716C129.169 94.4956 128.801 93.6796 128.097 93.0236C127.393 92.3676 126.465 92.0316 125.329 92.0316C124.177 92.0316 123.249 92.3676 122.545 93.0236C121.841 93.6796 121.489 94.4956 121.489 95.4716L121.489 97.2316ZM127.969 97.2316C127.969 97.8876 127.713 98.4316 127.233 98.8796C126.737 99.3276 126.097 99.5516 125.329 99.5516C124.545 99.5516 123.905 99.3276 123.425 98.8796C122.929 98.4316 122.689 97.8876 122.689 97.2316L122.689 95.4716C122.689 94.8316 122.929 94.2716 123.425 93.8236C123.905 93.3756 124.545 93.1516 125.329 93.1516C126.097 93.1516 126.737 93.3756 127.233 93.8236C127.713 94.2716 127.969 94.8316 127.969 95.4716L127.969 97.2316Z" fill="white"></path> </g> <defs> <clipPath id="clip0"> <rect width="143.205" height="143.205" fill="white" transform="translate(0 71.6025) rotate(-30)"></rect> </clipPath> </defs> </svg> 