<?xml version="1.0" encoding="UTF-8"?> <svg xmlns="http://www.w3.org/2000/svg" width="246" height="246" viewBox="0 0 246 246" fill="none"> <g clip-path="url(#clip0)"> <path d="M106.718 196.761C105.717 196.864 107.825 196.902 107.969 197.091L109.736 197.191L109.039 197.05C110.569 197.152 111.951 197.236 113.275 197.218L112.127 197.304L115.035 197.186L113.392 197.184C114.961 197.059 113.249 196.996 115.288 196.973C115.673 196.988 115.805 196.979 117.635 197.009C118.823 196.934 119.219 196.909 120.326 196.813C120.63 196.807 120.099 197.012 120.286 197.04C122.896 196.585 122.031 196.745 124.825 196.252C124.524 196.324 124.502 196.404 124.608 196.411L125.221 196.227C125.932 196.156 126.038 196.162 125.95 196.247C128.095 195.993 125.257 196.172 127.783 195.868C127.574 195.92 127.681 195.927 127.274 195.992C130.111 195.338 131.614 194.979 134.452 194.326C135.167 194.32 132.454 194.834 133.246 194.784C136.461 194.014 139.719 192.608 142.732 191.547C143.227 191.16 144.935 190.683 146.324 189.949C145.95 190.131 145.866 190.281 145.969 190.222C148.065 189.351 150.231 188.304 153.148 186.484L152.818 186.742C153.987 186.102 155.944 185.107 157.157 184.305C157.472 184.022 158.161 183.556 157.71 183.782C161.668 181.633 164.62 178.808 167.797 176.431C167.43 176.745 166.965 177.183 167.244 176.954C168.075 176.203 169.006 175.564 169.793 174.736C169.548 174.844 169.438 175.009 168.852 175.415C169.577 174.657 170.09 174.123 170.39 173.814C169.354 174.922 170.489 173.927 170.995 173.499C170.892 173.558 170.962 173.382 170.962 173.382C172.343 172.28 171.035 173.035 172.851 171.443L172.793 171.578C173.394 170.96 174.17 170.172 174.683 169.639C175.042 169.431 174.035 170.352 174.053 170.444C175.06 169.523 175.693 168.309 176.628 167.498C176.108 168.137 175.884 168.402 175.364 169.042C176.346 168.135 176.43 167.985 177.104 167.257L177.042 167.326L178.602 165.645L178.188 166.054C179.099 164.611 180.422 163.406 181.593 161.406C180.429 163.3 181.454 161.758 181.48 161.981C181.864 161.521 182.421 160.827 182.289 161.072C182.846 160.14 183.428 159.668 184.2 158.34C184.277 158.295 184.889 157.399 184.838 157.666C185.537 156.448 184.614 157.931 184.618 157.759C185.635 155.848 187.422 153.493 188.841 150.739C189.518 149.126 190.279 147.364 190.922 145.872C190.981 145.736 191.054 145.626 191.112 145.49C191.358 145.145 190.89 146.23 190.89 146.23C191.427 145.207 191.845 144.389 192.199 143.404C192.104 143.594 192.053 143.624 192.045 143.492C192.268 142.99 192.411 142.467 192.608 141.979L192.232 143.283C192.265 143.162 192.353 143.077 192.386 142.957C192.335 143.224 192.466 142.978 192.646 142.637C192.989 141.692 192.751 141.931 193.278 140.71C193.227 140.977 193.147 141.431 193.07 141.713C193.373 140.757 193.896 139.234 194.199 138.278C194.382 138.002 194.042 139.013 193.947 139.441C194.222 138.672 194.55 137.702 194.81 136.907C194.539 137.742 194.287 138.193 194.21 138.238L194.506 137.388C193.953 138.148 193.293 140.736 192.645 142.399L192.729 141.774C194.411 137.578 195.811 133.308 196.762 128.856C196.773 128.815 196.77 128.75 196.792 128.669C196.928 128.964 197.016 129.592 197.53 126.987L197.697 125.024L197.843 124.566C197.857 124.354 197.908 124.087 197.923 123.875C198.007 123.725 198.084 123.443 198.142 123.07L197.978 121.128C198.059 120.912 198.108 122.003 198.18 120.706C198.102 119.801 197.99 121.562 197.959 120.087C198.064 119.144 198.145 119.402 198.071 118.325C198.114 118.164 198.155 118.412 198.166 118.847C198.151 117.872 198.152 116.276 197.939 115.788C197.949 114.798 197.594 112.525 197.796 112.578C197.678 111.899 197.394 110.4 197.306 110.01C197.857 111.558 196.656 106.753 196.994 107.101C196.637 105.95 196.01 102.85 195.209 100.869C195.286 101.062 195.348 101.229 195.396 101.371C195.241 100.748 195.031 99.851 194.844 99.111C194.653 99.0175 194.075 97.2467 193.535 96.3705C193.123 94.9455 194.042 97.1301 194.027 96.6297C193.928 96.7547 192.953 94.2966 193.009 94.8076C192.696 93.7324 192.692 93.9041 192.618 93.302C192.347 93.1872 192.207 92.3518 191.736 91.5372C191.133 90.0186 191.736 91.0623 190.88 89.5202C190.556 88.7227 191.324 90.1121 191.324 90.1121C190.49 88.4894 190.795 89.4332 190.538 89.1064C189.527 87.1782 190.192 88.152 189.928 87.4564C189.457 86.6418 188.447 84.9511 188.171 84.5331C188.153 84.442 188.065 84.2892 188.193 84.4526C186.496 81.8686 187.062 82.7299 184.931 79.5137C184.887 79.4373 184.854 79.3207 184.854 79.3207C184.843 79.1235 185.787 80.581 184.652 78.7926L184.854 79.3207C184.935 79.5794 184.888 79.6747 184.807 79.6535C184.395 78.9407 183.878 78.4589 183.782 78.1747C184.083 78.5778 184.124 78.5885 184.292 78.7625L183.738 78.0983C183.407 77.4069 184.465 79.0023 184.568 78.943C183.569 77.6869 182.368 76.1401 181.567 75.1089C181.523 74.7951 183.371 77.4619 182.482 76.0406L183.62 77.6573C182.907 76.3039 184.325 78.6417 183.697 77.3754C182.063 75.1964 182.033 75.1455 180.373 72.9812C179.94 72.5864 180.399 73.2039 179.966 72.8091C177.403 70.1477 178.331 70.3926 176.382 68.4973C175.813 68.0451 175.593 67.9007 174.231 66.5487L174.833 66.8801C173.012 65.1482 173.607 66.0604 171.764 64.1716C172.164 64.4497 173.243 65.4897 172.975 65.2032C171.83 63.93 172.017 64.4326 171.067 63.556L170.971 63.2718C169 61.457 166.457 59.8366 164.152 57.9769C164.302 58.0598 164.728 58.3231 164.21 57.8413C160.985 55.8682 157.506 53.3966 154.185 51.8516L152.872 51.3541C152.586 51.2138 152.351 51.044 152.688 51.1546C151.445 50.4812 152.597 51.1736 151.947 50.9375C151.225 50.5742 151.015 50.3895 151.503 50.583C149.137 49.7429 144.753 48.1331 142.233 47.3819L142.754 47.4545C140.762 46.9074 140.418 47.1402 138.558 46.5848L138.932 46.6403C134.586 45.4503 129.583 45.0799 126.169 44.6754C125.502 44.823 121.702 44.4031 121.398 44.6466C118.824 44.5715 119.565 44.5512 115.887 44.6381C114.897 44.7006 114.453 44.8209 113.232 45.0167L113.199 44.9L111.579 45.2925L110.702 45.2554L109.588 45.4577C110.035 45.4031 110.563 45.3697 110.486 45.4142C108.756 45.7344 106.175 46.0028 106.175 46.0028L102.197 47.1112C102.285 47.0265 102.963 46.8386 103.484 46.6738C101.351 47.3625 103.059 46.6479 101.094 47.2732C101.383 47.2417 100.944 47.4277 100.944 47.4277C99.9207 47.611 97.7582 48.4862 96.1235 49.0906L96.3909 48.9022C93.4108 49.8422 90.3582 51.6045 87.2688 53.1846C88.3609 52.588 88.2035 52.8486 87.3204 53.3924L86.9025 53.4979C86.3822 53.9001 87.8406 52.9902 86.7195 53.7733C85.5908 54.4249 85.8764 54.0903 86.514 53.6543L85.1876 54.5559C85.0959 54.5749 85.389 54.3717 85.4623 54.2615C84.942 54.6637 83.0326 55.5625 82.2999 56.1892L82.2082 56.2081C79.4018 58.3375 78.0864 59.1988 75.8993 61.0385C75.9324 61.1552 75.0862 61.8813 74.4855 62.4997C72.8663 63.8418 71.0675 65.2877 69.3462 67.1639C68.1486 68.4663 69.0533 67.6045 68.5443 68.2039C68.3866 68.227 66.6212 70.0269 67.4928 69.0485C65.4199 71.2636 64.9844 71.9902 62.5675 74.9129C62.8826 74.6292 63.1938 74.2798 63.0731 74.4853C62.641 75.0402 62.0147 75.6733 62.0476 75.5526L62.1574 75.3873C59.6788 78.8548 56.0828 83.171 54.5205 86.2113L54.6304 86.0461C54.0118 87.0481 53.4336 88.0608 52.9104 89.1095C52.1016 90.4929 53.3238 88.226 52.6795 89.2428C50.9783 92.6349 49.6492 94.4204 48.4204 97.2682C46.8202 99.1764 44.9568 105.072 43.8346 108.164L43.9847 108.009C43.7803 108.84 43.6155 108.969 43.4108 109.562C43.4987 109.477 43.7728 108.708 43.6561 109.217C41.6728 116.03 41.0509 123.721 42.1591 130.853C42.4555 133.499 42.6521 132.3 43.2206 135.535L42.8785 134.647C44.1385 139.791 45.6628 145.156 48.0186 149.77C47.8569 149.49 47.8056 149.519 47.6071 149.057C47.9713 150.102 49.2871 152.737 49.3787 152.718C49.6986 153.45 49.3899 152.915 49.5628 153.392C49.9784 154.408 51.0213 155.741 51.2126 156.309C51.2311 156.4 51.0253 156.044 50.9371 155.891C51.3412 156.472 52.5722 158.782 52.3368 158.138C53.2042 159.877 54.2912 161.286 55.1471 162.591C55.8264 163.352 56.9875 165.363 57.314 165.514C56.9987 165.561 59.2606 168.294 60.1197 169.189C59.8114 168.892 60.7514 170.046 60.3624 169.728C61.2583 170.806 62.0955 171.782 62.0146 171.523C63.5388 173.63 65.7187 175.155 66.4939 176.438C69.581 179.238 72.4442 181.827 75.5598 183.966C75.5085 183.995 75.248 183.84 74.9324 183.649C76.4371 184.715 77.9086 185.664 79.7473 187.013C80.518 187.518 79.2337 186.834 78.9989 186.664C82.1324 188.419 84.8299 190.425 87.8345 191.542L87.1851 191.306C87.7428 191.561 88.506 191.935 88.4875 191.843L87.9042 191.603C87.0529 191.076 90.296 192.428 90.4133 192.395C89.3167 192.213 93.2567 193.706 91.5805 193.35C91.984 193.456 92.5085 193.595 92.4241 193.508C92.9927 193.723 93.1835 193.816 92.5526 193.671C94.0749 194.116 94.8158 194.333 95.9346 194.671C95.9346 194.671 95.5202 194.605 95.2928 194.567C96.3234 194.752 97.2774 195.22 98.9792 195.561C98.8729 195.555 99.0637 195.648 98.5538 195.535C101.429 196.013 103.461 196.571 106.718 196.761Z" fill="#738FE5"></path> <path d="M179.555 106.593C187.269 140.063 166.425 173.438 133.002 181.141C99.5785 188.844 66.2299 167.957 58.5166 134.488C50.8033 101.018 71.6467 67.6426 105.07 59.94C138.493 52.2373 171.842 73.1239 179.555 106.593Z" stroke="white"></path> <path opacity="0.88" d="M123.474 88.2284C114.125 91.2649 110.802 100.198 113.452 107.778C110.146 106.945 103.104 107.04 102.115 107.109C94.5673 107.634 87.4399 112.697 86.6107 120.534C85.7885 128.304 86.3702 135.576 92.5553 140.943C102.969 148.867 107.461 145.809 119.365 145.773C121.416 145.767 131.931 146.255 135.448 146.499C137.089 141.945 139.25 130.427 140.591 125.781C143.513 115.657 147.736 106.62 143.05 96.1438C140.119 89.5894 130.504 85.945 123.474 88.2284Z" stroke="white" stroke-linecap="round"></path> <path d="M164.289 102.114L164.37 102.103C164.416 102.109 164.479 102.093 164.571 102.076C164.652 102.065 164.738 102.038 164.808 102.004C164.923 101.947 164.993 101.856 165.04 101.747C165.07 101.633 165.071 101.518 165.014 101.402C164.902 101.171 164.679 101.066 164.357 101.08L158.976 101.334L158.954 101.287L162.44 97.1546C162.644 96.898 162.698 96.6571 162.591 96.4378C162.534 96.3223 162.438 96.241 162.334 96.2055C162.214 96.1641 162.105 96.1746 161.989 96.231C161.828 96.3099 161.695 96.4178 161.584 96.5719L157.719 101.247L155.391 101.311L155.016 101.422C154.901 101.479 154.814 101.564 154.784 101.679C154.737 101.787 154.753 101.908 154.809 102.024C154.922 102.255 155.134 102.366 155.467 102.346L164.289 102.114Z" fill="white"></path> <path d="M165.421 105.399L166.349 108.473L161.306 109.996C161.183 110.033 161.083 110.103 161.036 110.211C160.976 110.324 160.972 110.445 161.017 110.593C161.054 110.716 161.124 110.816 161.236 110.876C161.336 110.939 161.461 110.955 161.584 110.918L167.058 109.266C167.181 109.229 167.264 109.15 167.328 109.05C167.376 108.942 167.395 108.829 167.358 108.706L166.133 104.647C166.096 104.524 166.013 104.428 165.917 104.376C165.805 104.316 165.696 104.309 165.573 104.346L162.867 105.163C161.551 105.56 160.6 105.391 160.036 104.675C159.863 104.459 159.678 104.381 159.494 104.436C159.371 104.474 159.271 104.544 159.223 104.652C159.163 104.764 159.156 104.874 159.193 104.997C159.338 105.477 159.787 105.851 160.551 106.117C161.304 106.386 162.174 106.379 163.145 106.085L165.421 105.399Z" fill="white"></path> <path d="M168.501 119.814C168.629 119.802 168.726 119.741 168.807 119.643C168.876 119.546 168.916 119.426 168.903 119.286C168.89 119.145 168.828 119.035 168.742 118.952C168.644 118.871 168.539 118.842 168.411 118.854L162.654 119.395C162.527 119.407 162.415 119.456 162.347 119.553C162.266 119.651 162.238 119.769 162.251 119.91C162.264 120.051 162.314 120.162 162.412 120.244C162.497 120.326 162.617 120.366 162.745 120.354L168.501 119.814ZM162.638 113.719L165.196 113.478L165.358 115.205C165.41 115.755 165.333 116.175 165.129 116.478C164.925 116.781 164.632 116.951 164.235 116.988C163.826 117.027 163.506 116.915 163.249 116.655C162.992 116.395 162.851 115.995 162.8 115.445L162.638 113.719ZM161.904 115.529C161.988 116.425 162.231 117.086 162.657 117.498C163.082 117.897 163.64 118.076 164.331 118.011C164.958 117.953 165.46 117.66 165.824 117.149C166.188 116.624 166.332 115.952 166.253 115.121L166.091 113.394L167.882 113.226C168.01 113.214 168.108 113.153 168.189 113.055C168.257 112.959 168.297 112.839 168.284 112.698C168.271 112.557 168.209 112.447 168.124 112.365C168.026 112.283 167.92 112.255 167.792 112.267L162.1 112.801C161.972 112.813 161.86 112.862 161.792 112.959C161.71 113.044 161.682 113.163 161.694 113.291L161.904 115.529Z" fill="white"></path> <path d="M167.165 123.257L167.171 123.193L167.427 123.218C168.194 123.294 168.79 123.533 169.201 123.948C169.612 124.363 169.842 124.915 169.905 125.592L170.107 128.129C170.133 128.39 170.274 128.533 170.517 128.557C170.645 128.569 170.752 128.528 170.85 128.448C170.937 128.353 171 128.243 171.015 128.089C171.027 127.962 171.019 127.78 171.001 127.572L170.876 125.558C170.813 124.623 170.501 123.856 169.938 123.284C169.376 122.7 168.57 122.362 167.521 122.259L164.964 122.008C164.146 121.928 163.44 122.142 162.833 122.676C162.214 123.196 161.873 123.899 161.785 124.794C161.696 125.702 161.879 126.468 162.348 127.083C162.817 127.697 163.44 128.055 164.233 128.133L164.808 128.189C165.588 128.266 166.269 128.036 166.849 127.525C167.428 127.014 167.77 126.299 167.859 125.391C167.897 125.007 167.842 124.64 167.711 124.266C167.58 123.892 167.476 123.636 167.384 123.524C167.292 123.412 167.224 123.315 167.165 123.257ZM164.327 127.174C163.803 127.122 163.388 126.875 163.068 126.456C162.749 126.025 162.62 125.496 162.68 124.882C162.739 124.281 162.98 123.801 163.404 123.43C163.828 123.058 164.32 122.913 164.87 122.967L165.317 123.011C165.829 123.061 166.257 123.297 166.576 123.729C166.897 124.147 167.025 124.676 166.964 125.303C166.903 125.917 166.674 126.41 166.277 126.772C165.881 127.12 165.414 127.281 164.902 127.23L164.327 127.174Z" fill="white"></path> <path d="M165.719 135.493L165.756 135.555C165.775 135.586 165.815 135.636 165.871 135.677C165.927 135.718 165.982 135.759 166.045 135.775C166.169 135.807 166.281 135.783 166.388 135.73C166.485 135.662 166.56 135.575 166.592 135.451C166.624 135.326 166.593 135.186 166.501 135.03L164.361 130.701L167.161 131.419C167.286 131.451 167.398 131.427 167.507 131.362C167.604 131.294 167.683 131.195 167.718 131.058C167.753 130.921 167.732 130.796 167.68 130.69C167.615 130.58 167.525 130.517 167.4 130.486L161.8 129.05C161.675 129.018 161.554 129.027 161.457 129.095C161.347 129.16 161.281 129.262 161.246 129.399C161.211 129.536 161.22 129.657 161.285 129.767C161.337 129.873 161.436 129.952 161.561 129.984L163.241 130.414L164.026 132.008L160.387 133.529L160.327 133.554C160.284 133.569 160.237 133.597 160.196 133.652C160.155 133.708 160.123 133.78 160.104 133.854C160.066 134.004 160.075 134.125 160.136 134.247C160.189 134.354 160.288 134.432 160.412 134.464C160.537 134.496 160.677 134.465 160.833 134.373L164.411 132.836L165.719 135.493Z" fill="white"></path> <path d="M159.571 137.292C159.786 136.783 160.041 136.444 160.352 136.269C160.652 136.089 160.967 136.069 161.287 136.204C161.594 136.334 161.8 136.574 161.886 136.931C161.96 137.284 161.891 137.743 161.651 138.311L160.85 140.204L160.318 139.979C159.88 139.794 159.582 139.444 159.429 138.948C159.27 138.434 159.321 137.884 159.571 137.292ZM164.983 139.999C165.268 139.324 165.342 138.686 165.223 138.078C165.092 137.464 164.908 137.108 164.648 136.997C164.506 136.937 164.372 136.923 164.254 136.971C164.13 137.002 164.049 137.093 163.999 137.211C163.944 137.342 163.953 137.485 164.027 137.641C164.381 138.321 164.43 138.998 164.154 139.648C163.954 140.122 163.635 140.447 163.192 140.637C162.755 140.814 162.306 140.82 161.856 140.63L161.679 140.555L162.479 138.661C162.84 137.809 162.937 137.083 162.768 136.495C162.603 135.896 162.243 135.492 161.687 135.257C161.119 135.017 160.579 135.04 160.044 135.316C159.509 135.592 159.083 136.137 158.743 136.942C158.638 137.19 158.561 137.437 158.532 137.704C158.508 137.958 158.504 138.166 158.527 138.343C158.55 138.52 158.589 138.69 158.658 138.859C158.714 139.022 158.755 139.123 158.787 139.178C158.825 139.222 158.85 139.261 158.864 139.294L158.839 139.354L158.425 139.178C158.306 139.128 158.185 139.119 158.079 139.172C157.961 139.22 157.88 139.311 157.825 139.441C157.77 139.571 157.761 139.693 157.809 139.811C157.845 139.924 157.931 140.016 158.049 140.066L161.481 141.517C162.167 141.807 162.84 141.799 163.514 141.526C164.181 141.236 164.672 140.732 164.983 139.999Z" fill="white"></path> <path d="M149.188 158.999L149.22 159.073C149.227 159.119 149.26 159.176 149.3 159.26C149.333 159.335 149.383 159.41 149.434 159.468C149.519 159.564 149.626 159.607 149.744 159.623C149.862 159.62 149.973 159.59 150.069 159.505C150.261 159.334 150.302 159.091 150.202 158.785L148.506 153.672L148.544 153.638L153.465 155.88C153.767 156.007 154.013 155.994 154.195 155.832C154.291 155.746 154.344 155.631 154.35 155.522C154.357 155.395 154.318 155.293 154.232 155.197C154.113 155.062 153.973 154.963 153.795 154.898L148.25 152.438L147.56 150.214L147.352 149.883C147.267 149.787 147.161 149.726 147.042 149.728C146.925 149.713 146.813 149.761 146.717 149.846C146.525 150.017 146.475 150.251 146.584 150.566L149.188 158.999Z" fill="white"></path> <path d="M145.019 159.871L145.073 159.836L147.757 160.762L147.853 160.791C147.924 160.806 148.017 160.806 148.131 160.793C148.245 160.779 148.342 160.762 148.417 160.713C148.503 160.656 148.55 160.564 148.572 160.457C148.594 160.351 148.577 160.254 148.527 160.179C148.407 159.997 148.262 159.892 148.084 159.855L145.257 158.946L145.671 155.599L145.678 155.517C145.689 155.464 145.686 155.389 145.665 155.311C145.638 155.221 145.599 155.139 145.55 155.064C145.493 154.978 145.411 154.924 145.305 154.902C145.198 154.88 145.102 154.897 145.016 154.954C144.844 155.066 144.739 155.258 144.709 155.539L144.367 158.762L144.314 158.797L141.22 157.833L141.124 157.804C141.053 157.789 140.964 157.771 140.849 157.784C140.735 157.798 140.646 157.826 140.56 157.882C140.474 157.939 140.42 158.02 140.398 158.127C140.376 158.234 140.393 158.33 140.45 158.416C140.563 158.588 140.715 158.703 140.893 158.739L144.13 159.687L143.843 162.643L143.835 162.725C143.828 162.76 143.831 162.835 143.859 162.924C143.88 163.003 143.908 163.092 143.964 163.178C144.014 163.253 144.106 163.3 144.213 163.322C144.32 163.344 144.423 163.338 144.498 163.289C144.681 163.169 144.778 162.966 144.805 162.703L145.019 159.871Z" fill="white"></path> <path d="M140.784 160.782C140.454 160.057 139.925 159.578 139.193 159.332C138.46 159.087 137.675 159.162 136.833 159.545C136.003 159.923 135.431 160.466 135.135 161.179C134.839 161.893 134.841 162.612 135.171 163.337L135.757 164.623C136.082 165.336 136.622 165.81 137.355 166.056C138.088 166.301 138.878 166.238 139.708 165.86C140.55 165.476 141.116 164.922 141.412 164.208C141.709 163.495 141.694 162.781 141.37 162.068L140.784 160.782ZM136.048 162.938C135.83 162.458 135.836 161.975 136.038 161.488C136.251 160.996 136.645 160.619 137.206 160.364C137.779 160.103 138.321 160.054 138.821 160.221C139.333 160.384 139.689 160.702 139.907 161.181L140.493 162.467C140.706 162.935 140.717 163.424 140.503 163.916C140.301 164.404 139.908 164.78 139.335 165.041C138.774 165.297 138.232 165.346 137.72 165.183C137.22 165.016 136.847 164.692 136.634 164.224L136.048 162.938Z" fill="white"></path> <path d="M126.476 163.545C126.509 163.669 126.584 163.756 126.682 163.823C126.788 163.875 126.9 163.899 127.025 163.866L127.646 163.704L128.96 168.739C128.992 168.864 129.068 168.95 129.165 169.018C129.272 169.069 129.384 169.093 129.508 169.061L133.611 167.991C133.735 167.958 133.834 167.879 133.889 167.785C133.954 167.676 133.965 167.566 133.932 167.442L133.219 164.707C133.141 164.409 133.107 164.125 133.101 163.848C133.092 163.558 133.111 163.328 133.144 163.147C133.173 162.953 133.221 162.781 133.285 162.618C133.346 162.443 133.397 162.337 133.425 162.29C133.449 162.23 133.468 162.199 133.489 162.18L133.8 162.099C133.924 162.067 134.023 161.988 134.078 161.894C134.143 161.784 134.154 161.675 134.122 161.55L133.668 159.81C133.635 159.686 133.569 159.584 133.462 159.532C133.353 159.467 133.231 159.459 133.094 159.495C132.957 159.531 132.855 159.597 132.791 159.707C132.723 159.804 132.703 159.929 132.735 160.053L133.076 161.359L127.295 162.867L126.955 161.561C126.922 161.437 126.856 161.335 126.749 161.283C126.639 161.218 126.518 161.21 126.369 161.249C126.244 161.282 126.142 161.348 126.078 161.458C126.01 161.555 125.99 161.68 126.022 161.804L126.476 163.545ZM132.887 167.25L129.779 168.061L128.579 163.461L132.495 162.44L132.511 162.502L132.367 162.765C132.279 162.934 132.21 163.231 132.17 163.64C132.131 164.048 132.163 164.478 132.287 164.95L132.887 167.25Z" fill="white"></path> <path d="M106.73 167.623L106.69 167.694C106.657 167.727 106.632 167.787 106.59 167.871C106.549 167.941 106.519 168.027 106.504 168.102C106.479 168.228 106.509 168.339 106.567 168.442C106.641 168.536 106.731 168.606 106.857 168.631C107.109 168.681 107.329 168.568 107.512 168.303L110.569 163.868L110.619 163.878L111.796 169.155C111.877 169.473 112.036 169.662 112.276 169.709C112.402 169.734 112.525 169.706 112.616 169.646C112.722 169.575 112.779 169.482 112.805 169.356C112.84 169.179 112.834 169.008 112.779 168.827L111.4 162.92L112.758 161.028L112.897 160.663C112.922 160.537 112.906 160.416 112.833 160.323C112.775 160.22 112.669 160.159 112.543 160.134C112.291 160.084 112.075 160.185 111.888 160.462L106.73 167.623Z" fill="white"></path> <path d="M103.43 166.527L100.42 165.407L102.258 160.47C102.302 160.349 102.307 160.228 102.249 160.124C102.196 160.008 102.101 159.932 101.957 159.878C101.837 159.833 101.715 159.829 101.599 159.882C101.488 159.923 101.399 160.013 101.355 160.134L99.3602 165.492C99.3154 165.612 99.3277 165.726 99.3686 165.838C99.426 165.941 99.5044 166.025 99.6248 166.07L103.598 167.549C103.719 167.594 103.845 167.586 103.944 167.541C104.06 167.488 104.132 167.405 104.177 167.285L105.163 164.636C105.642 163.347 106.352 162.693 107.263 162.676C107.54 162.669 107.714 162.569 107.781 162.389C107.826 162.268 107.83 162.146 107.773 162.043C107.72 161.927 107.637 161.855 107.516 161.81C107.047 161.636 106.477 161.766 105.803 162.214C105.134 162.651 104.613 163.348 104.259 164.299L103.43 166.527Z" fill="white"></path> <path d="M90.1254 160.293C90.0578 160.402 90.0474 160.517 90.0766 160.641C90.1125 160.753 90.1838 160.858 90.3039 160.932C90.4241 161.007 90.5495 161.024 90.6665 161.006C90.7903 160.977 90.8772 160.909 90.9448 160.8L93.9873 155.884C94.0549 155.775 94.083 155.656 94.0471 155.543C94.0179 155.419 93.9399 155.326 93.8197 155.251C93.6996 155.177 93.581 155.149 93.4571 155.178C93.3401 155.196 93.2356 155.268 93.1679 155.377L90.1254 160.293ZM98.5238 159.296L97.1716 161.481L95.6967 160.568C95.227 160.277 94.9382 159.963 94.8196 159.617C94.7009 159.272 94.743 158.935 94.9526 158.597C95.169 158.247 95.4514 158.059 95.8135 158.011C96.1755 157.963 96.5792 158.092 97.049 158.383L98.5238 159.296ZM97.5222 157.618C96.7575 157.145 96.0838 156.94 95.4986 157.031C94.9243 157.129 94.4437 157.466 94.0786 158.056C93.7473 158.591 93.6777 159.167 93.8655 159.767C94.0643 160.374 94.5133 160.893 95.2234 161.333L96.6983 162.246L95.7517 163.775C95.6841 163.884 95.6737 163.999 95.7029 164.123C95.7388 164.235 95.8101 164.34 95.9303 164.414C96.0504 164.489 96.1758 164.506 96.2928 164.488C96.4166 164.459 96.5035 164.391 96.5711 164.282L99.5798 159.421C99.6474 159.311 99.6755 159.193 99.6396 159.08C99.6214 158.963 99.5433 158.869 99.4341 158.802L97.5222 157.618Z" fill="white"></path> <path d="M88.2512 157.204L88.2984 157.247L88.1243 157.436C87.6018 158.003 87.0516 158.334 86.4728 158.413C85.8941 158.491 85.3152 158.342 84.7369 157.983L82.59 156.616C82.3662 156.479 82.1673 156.506 82.0018 156.685C81.9148 156.78 81.8829 156.89 81.8881 157.017C81.9114 157.144 81.9616 157.26 82.0749 157.364C82.1694 157.451 82.3191 157.554 82.4963 157.665L84.1783 158.779C84.963 159.292 85.7627 159.505 86.5585 159.4C87.3638 159.304 88.1187 158.864 88.8328 158.089L90.5743 156.2C91.1316 155.595 91.3853 154.903 91.3251 154.096C91.2832 153.289 90.9276 152.594 90.2663 151.984C89.5956 151.366 88.8735 151.05 88.1008 151.054C87.3281 151.058 86.6668 151.34 86.1269 151.926L85.735 152.351C85.2039 152.927 84.9771 153.609 85.0357 154.38C85.0944 155.15 85.4594 155.853 86.1301 156.472C86.4135 156.733 86.739 156.911 87.1167 157.032C87.4944 157.153 87.761 157.224 87.9062 157.218C88.0515 157.212 88.1698 157.216 88.2512 157.204ZM86.8354 152.579C87.1924 152.191 87.6396 152.01 88.1669 152.006C88.7035 152.012 89.2033 152.228 89.6568 152.646C90.1008 153.055 90.3386 153.536 90.3796 154.098C90.4207 154.66 90.2402 155.141 89.8658 155.547L89.561 155.877C89.2127 156.255 88.7662 156.455 88.2296 156.45C87.7024 156.453 87.2026 156.237 86.7397 155.81C86.2862 155.392 86.0303 154.912 85.9812 154.377C85.9416 153.852 86.0953 153.382 86.4436 153.004L86.8354 152.579Z" fill="white"></path> <path d="M79.3339 148.618L79.2617 148.61C79.2256 148.605 79.1614 148.607 79.0951 148.627C79.0288 148.647 78.9625 148.666 78.9121 148.706C78.8114 148.786 78.7627 148.89 78.7401 149.006C78.7355 149.125 78.7591 149.237 78.8388 149.338C78.9186 149.439 79.0488 149.5 79.2292 149.52L83.9703 150.436L81.7043 152.231C81.6036 152.311 81.555 152.415 81.5403 152.541C81.5357 152.66 81.5673 152.782 81.655 152.893C81.7428 153.004 81.8549 153.063 81.9711 153.085C82.0975 153.1 82.202 153.066 82.3027 152.986L86.8345 149.396C86.9352 149.317 87.0019 149.215 87.0065 149.096C87.0212 148.97 86.9796 148.855 86.8918 148.745C86.8041 148.634 86.7021 148.567 86.5757 148.552C86.4595 148.53 86.3369 148.561 86.2362 148.641L84.8766 149.718L83.1326 149.379L84.1241 145.561L84.1404 145.499C84.1547 145.455 84.1609 145.401 84.1412 145.334C84.1214 145.268 84.0836 145.2 84.0358 145.139C83.94 145.018 83.838 144.952 83.7037 144.927C83.5874 144.904 83.4649 144.936 83.3642 145.016C83.2635 145.095 83.2027 145.225 83.1817 145.406L82.2406 149.184L79.3339 148.618Z" fill="white"></path> <path d="M81.5608 142.534C81.8334 143.014 81.9468 143.423 81.8962 143.776C81.8568 144.123 81.6807 144.386 81.3789 144.557C81.0884 144.722 80.7728 144.738 80.437 144.589C80.1124 144.433 79.79 144.099 79.4858 143.563L78.4718 141.775L78.9747 141.489C79.3882 141.255 79.8472 141.231 80.3343 141.413C80.8388 141.599 81.244 141.975 81.5608 142.534ZM76.1181 145.177C76.4793 145.814 76.94 146.262 77.4953 146.538C78.0617 146.807 78.4567 146.879 78.7026 146.739C78.8367 146.663 78.9294 146.566 78.9633 146.444C79.0147 146.326 78.9911 146.206 78.9278 146.095C78.858 145.972 78.7388 145.892 78.57 145.854C77.8151 145.721 77.249 145.348 76.9004 144.734C76.6469 144.287 76.583 143.835 76.7025 143.369C76.8283 142.913 77.0971 142.554 77.5218 142.313L77.6895 142.218L78.7035 144.006C79.1598 144.811 79.6761 145.331 80.2458 145.554C80.8219 145.789 81.3607 145.749 81.886 145.451C82.4224 145.147 82.733 144.705 82.8401 144.112C82.9472 143.52 82.7741 142.85 82.3432 142.09C82.2101 141.855 82.061 141.645 81.8671 141.459C81.6797 141.285 81.5175 141.155 81.3633 141.065C81.209 140.976 81.0499 140.903 80.8747 140.855C80.7108 140.8 80.6057 140.771 80.542 140.763C80.4846 140.766 80.4384 140.763 80.4033 140.753L80.3717 140.697L80.7628 140.475C80.8746 140.412 80.9561 140.321 80.9788 140.205C81.0127 140.083 80.9892 139.963 80.9195 139.84C80.8497 139.717 80.7592 139.636 80.6366 139.602C80.5252 139.561 80.3992 139.574 80.2875 139.637L77.0465 141.475C76.3983 141.843 75.995 142.382 75.8014 143.082C75.6254 143.788 75.7251 144.484 76.1181 145.177Z" fill="white"></path> <path d="M73.5616 103.897L73.495 103.85C73.4653 103.815 73.4073 103.784 73.3283 103.734C73.2617 103.687 73.1791 103.65 73.1051 103.628C72.9819 103.591 72.8688 103.612 72.7607 103.66C72.6613 103.724 72.5829 103.808 72.5465 103.932C72.4737 104.178 72.567 104.407 72.814 104.614L76.9535 108.06L76.939 108.109L71.5764 108.803C71.253 108.855 71.0506 108.996 70.9814 109.23C70.945 109.353 70.9615 109.479 71.0136 109.574C71.0744 109.686 71.162 109.752 71.2853 109.789C71.4578 109.839 71.6289 109.85 71.8145 109.811L77.8225 108.973L79.5826 110.498L79.934 110.669C80.0572 110.705 80.179 110.701 80.2784 110.637C80.3865 110.588 80.4563 110.488 80.4927 110.365C80.5654 110.119 80.4845 109.894 80.2252 109.683L73.5616 103.897Z" fill="white"></path> <path d="M76.5622 101.061L76.5354 101.119L73.7692 101.76L73.6723 101.787C73.6042 101.812 73.5254 101.861 73.4359 101.933C73.3464 102.005 73.2739 102.071 73.2365 102.152C73.1937 102.246 73.203 102.349 73.241 102.451C73.279 102.553 73.3448 102.626 73.4265 102.663C73.6251 102.754 73.8037 102.765 73.974 102.702L76.8522 101.971L78.2796 105.026L78.3166 105.099C78.3356 105.151 78.378 105.212 78.4374 105.268C78.5084 105.329 78.5849 105.378 78.6666 105.415C78.7601 105.458 78.8579 105.46 78.9601 105.422C79.0623 105.384 79.1347 105.319 79.1775 105.225C79.2631 105.038 79.2498 104.82 79.1261 104.566L77.7037 101.654L77.7304 101.595L80.864 100.769L80.9608 100.743C81.0289 100.717 81.1141 100.686 81.2036 100.614C81.2931 100.542 81.3539 100.47 81.3967 100.377C81.4394 100.284 81.4418 100.186 81.4038 100.084C81.3658 99.9813 81.3001 99.9089 81.2066 99.8661C81.0197 99.7805 80.8294 99.7641 80.6591 99.8274L77.4136 100.744L76.0862 98.0875L76.0492 98.014C76.0365 97.98 75.9942 97.9182 75.9231 97.8574C75.8637 97.8019 75.7926 97.7411 75.6991 97.6984C75.6174 97.6609 75.5142 97.6702 75.412 97.7082C75.3098 97.7463 75.2257 97.8066 75.1883 97.8884C75.0974 98.087 75.1223 98.3104 75.2397 98.5478L76.5622 101.061Z" fill="white"></path> <path d="M79.6124 98.0945C80.277 98.5336 80.9795 98.6589 81.7306 98.4776C82.4818 98.2962 83.1069 97.8161 83.6168 97.0443C84.1196 96.2832 84.3159 95.5198 84.188 94.7578C84.0601 93.9957 83.6762 93.388 83.0116 92.949L81.8324 92.17C81.1785 91.738 80.4689 91.6234 79.7178 91.8047C78.9667 91.986 78.3308 92.4591 77.828 93.2202C77.3181 93.992 77.1325 94.7625 77.2604 95.5245C77.3884 96.2865 77.7793 96.8835 78.4332 97.3155L79.6124 98.0945ZM82.4805 93.7529C82.92 94.0433 83.1712 94.4556 83.2589 94.9755C83.3395 95.5061 83.2063 96.034 82.8664 96.5486C82.5194 97.0739 82.086 97.4035 81.5734 97.5268C81.0537 97.6608 80.583 97.5809 80.1435 97.2905L78.9643 96.5115C78.5355 96.2283 78.2666 95.8196 78.1859 95.289C78.0982 94.7691 78.2314 94.2412 78.5784 93.7159C78.9183 93.2014 79.3517 92.8717 79.8714 92.7377C80.384 92.6144 80.8725 92.6907 81.3013 92.974L82.4805 93.7529Z" fill="white"></path> <path d="M90.2524 88.1461C90.1589 88.0579 90.0489 88.0248 89.9306 88.0192C89.8128 88.0317 89.7049 88.0713 89.6168 88.1647L89.1761 88.6321L85.3903 85.0623C85.2968 84.9742 85.1868 84.9411 85.0685 84.9355C84.9507 84.948 84.8428 84.9875 84.7547 85.081L81.846 88.1657C81.7578 88.2591 81.7159 88.3785 81.7191 88.4875C81.7228 88.6146 81.7711 88.7132 81.8646 88.8013L83.9211 90.7405C84.1454 90.952 84.3246 91.174 84.4768 91.4058C84.6384 91.6465 84.7444 91.8524 84.8131 92.023C84.891 92.2025 84.9415 92.3737 84.9738 92.5455C85.0155 92.726 85.028 92.8438 85.0296 92.8983C85.0406 92.9616 85.0416 92.9979 85.0334 93.0254L84.813 93.2591C84.7249 93.3526 84.6829 93.472 84.6861 93.5809C84.6899 93.7081 84.7382 93.8066 84.8317 93.8948L86.1403 95.1288C86.2338 95.2169 86.3444 95.2682 86.4621 95.2556C86.5893 95.2519 86.6966 95.1942 86.7936 95.0914C86.8906 94.9886 86.9418 94.878 86.9381 94.7509C86.9437 94.6326 86.8949 94.5158 86.8014 94.4277L85.8199 93.5022L89.9185 89.1556L90.9 90.0811C90.9935 90.1693 91.104 90.2205 91.2218 90.208C91.349 90.2043 91.4563 90.1466 91.5621 90.0344C91.6503 89.9409 91.7015 89.8304 91.6978 89.7032C91.7034 89.5849 91.6545 89.4682 91.5611 89.3801L90.2524 88.1461ZM82.8528 88.4088L85.0564 86.0719L88.515 89.3332L85.7385 92.2776L85.6918 92.2336L85.6739 91.9342C85.6592 91.7437 85.5599 91.4558 85.3764 91.0885C85.1929 90.7213 84.9373 90.3743 84.5821 90.0394L82.8528 88.4088Z" fill="white"></path> <path d="M104.978 74.0726L104.975 73.9914C104.985 73.9462 104.974 73.8816 104.966 73.7884C104.963 73.7072 104.943 73.6185 104.916 73.5465C104.871 73.4263 104.786 73.3484 104.682 73.2916C104.571 73.2513 104.456 73.2396 104.336 73.2851C104.096 73.3761 103.97 73.5885 103.955 73.9104L103.712 79.2915L103.663 79.3097L99.8695 75.457C99.6327 75.2307 99.3979 75.1547 99.1696 75.2412C99.0494 75.2867 98.9595 75.3757 98.9147 75.4751C98.8624 75.591 98.8627 75.7008 98.9082 75.8209C98.9719 75.9892 99.0671 76.1317 99.2104 76.2561L103.509 80.5357L103.359 82.8594L103.435 83.2427C103.481 83.3628 103.558 83.4573 103.669 83.4976C103.773 83.5544 103.895 83.5495 104.015 83.504C104.255 83.413 104.386 83.2126 104.396 82.8787L104.978 74.0726Z" fill="white"></path> <path d="M109.131 74.7339L109.068 74.7477L106.89 72.9263L106.81 72.8648C106.749 72.8257 106.663 72.7922 106.551 72.7642C106.44 72.7361 106.344 72.7179 106.256 72.7373C106.156 72.7594 106.079 72.829 106.02 72.9209C105.962 73.0128 105.943 73.1089 105.963 73.1968C106.01 73.41 106.109 73.5593 106.262 73.657L108.579 75.5135L107.001 78.4936L106.964 78.5674C106.935 78.6134 106.911 78.6844 106.903 78.7652C106.897 78.8586 106.904 78.9492 106.923 79.037C106.946 79.1374 107.003 79.2169 107.094 79.2755C107.186 79.3342 107.282 79.3524 107.383 79.3303C107.584 79.2859 107.75 79.144 107.878 78.8919L109.345 76.0023L109.408 75.9885L111.955 77.9916L112.035 78.053C112.096 78.0921 112.173 78.141 112.284 78.169C112.396 78.197 112.489 78.2027 112.589 78.1806C112.69 78.1584 112.769 78.1014 112.828 78.0095C112.886 77.9176 112.905 77.8215 112.883 77.7211C112.838 77.5204 112.737 77.3586 112.584 77.2608L109.897 75.2227L111.217 72.5628L111.254 72.489C111.273 72.4583 111.297 72.3873 111.303 72.2939C111.311 72.2131 111.317 72.1197 111.295 72.0194C111.275 71.9316 111.206 71.8548 111.114 71.7962C111.022 71.7375 110.923 71.7067 110.835 71.7261C110.622 71.7732 110.459 71.9277 110.34 72.1644L109.131 74.7339Z" fill="white"></path> <path d="M113.171 75.4048C113.222 76.1998 113.546 76.8356 114.144 77.3252C114.741 77.8148 115.501 78.0236 116.425 77.9645C117.335 77.9063 118.062 77.6023 118.593 77.0405C119.123 76.4787 119.376 75.8059 119.325 75.011L119.235 73.6006C119.185 72.8185 118.848 72.1834 118.25 71.6939C117.653 71.2043 116.892 70.9826 115.981 71.0409C115.058 71.0999 114.332 71.4168 113.801 71.9786C113.271 72.5404 113.031 73.2123 113.081 73.9944L113.171 75.4048ZM118.364 75.0725C118.397 75.5982 118.22 76.0473 117.858 76.4309C117.484 76.8153 116.983 77.0276 116.367 77.067C115.739 77.1072 115.215 76.9605 114.807 76.6262C114.386 76.2926 114.166 75.869 114.133 75.3433L114.042 73.9329C114.01 73.42 114.173 72.959 114.548 72.5745C114.909 72.1909 115.411 71.9786 116.039 71.9384C116.654 71.899 117.179 72.0457 117.599 72.3793C118.007 72.7136 118.241 73.1493 118.273 73.6621L118.364 75.0725Z" fill="white"></path> <path d="M127.674 77.8944C127.688 77.7667 127.648 77.6589 127.582 77.5611C127.501 77.4747 127.404 77.4125 127.276 77.3985L126.638 77.3287L127.203 72.1561C127.217 72.0284 127.178 71.9207 127.111 71.8229C127.03 71.7365 126.933 71.6742 126.805 71.6602L122.591 71.1992C122.463 71.1853 122.342 71.2238 122.257 71.292C122.158 71.3717 122.109 71.4696 122.095 71.5974L121.787 74.4071C121.754 74.7136 121.685 74.9904 121.592 75.2517C121.497 75.5256 121.397 75.7344 121.302 75.892C121.206 76.0624 121.1 76.2059 120.982 76.3352C120.863 76.4773 120.777 76.5583 120.734 76.5925C120.69 76.6394 120.662 76.6621 120.635 76.6721L120.316 76.6372C120.188 76.6232 120.068 76.6617 119.982 76.73C119.883 76.8096 119.834 76.9076 119.82 77.0353L119.624 78.8233C119.61 78.951 119.636 79.0702 119.717 79.1566C119.797 79.2558 119.907 79.3066 120.048 79.322C120.188 79.3374 120.308 79.3116 120.407 79.232C120.505 79.1652 120.568 79.0558 120.582 78.9281L120.729 77.5871L126.668 78.2366L126.521 79.5777C126.507 79.7054 126.533 79.8245 126.614 79.9109C126.693 80.0101 126.804 80.061 126.957 80.0778C127.085 80.0917 127.204 80.066 127.303 79.9864C127.401 79.9195 127.465 79.8102 127.479 79.6824L127.674 77.8944ZM123.004 72.1491L126.197 72.4984L125.68 77.2239L121.657 76.7838L121.664 76.72L121.892 76.5252C122.035 76.3987 122.205 76.1459 122.387 75.7781C122.57 75.4103 122.692 74.9972 122.745 74.5119L123.004 72.1491Z" fill="white"></path> </g> <defs> <clipPath id="clip0"> <rect width="179.53" height="179.53" fill="white" transform="translate(0 89.874) rotate(-30)"></rect> </clipPath> </defs> </svg> 