<?xml version="1.0" encoding="UTF-8"?> <svg xmlns="http://www.w3.org/2000/svg" width="267" height="244" viewBox="0 0 267 244" fill="none"> <g clip-path="url(#clip0)"> <path d="M85.0967 65.4624C99.2448 70.8588 113.312 76.1747 127.461 81.5711L111.946 110.808L74.4053 105.734C78.0227 92.364 81.5597 78.9132 85.0967 65.4624Z" fill="white"></path> <path d="M170.307 71.1005C168.538 67.7177 166.207 62.3213 165.484 55.5556C163.554 37.9166 173.442 24.788 176.175 21.1635C179.391 16.8947 188.394 5.05481 204.069 1.83306C229.713 -3.40227 249.568 19.5527 252.301 22.7744C255.517 26.6405 268.379 41.8632 265.726 61.9991C264.199 73.6779 257.929 81.7323 255.035 85.1151C252.141 88.4174 244.825 96.7939 232.365 98.9686C225.533 100.177 219.745 98.9686 216.449 98.0021C219.021 100.982 222.478 105.332 226.095 110.889C231.642 119.346 240.645 132.958 243.78 151.161C244.665 156.396 247.398 173.391 240.565 191.433C226.417 228.805 183.249 239.195 178.426 240.323C146.593 247.491 117.412 236.054 99.0841 221.556C94.5825 218.012 80.1128 205.85 71.7526 185.553C69.0998 179.109 65.0001 168.8 66.3667 155.51C66.9294 150.517 68.0548 146.489 69.0194 143.67C67.3313 144.798 64.8393 146.328 61.5435 147.456C53.8263 149.953 47.1542 148.342 41.6879 146.892C31.8807 144.395 25.0478 139.643 21.8324 137.227C17.6523 134.086 7.84506 126.515 3.58456 113.628C-4.29335 89.4645 14.4368 67.4761 15.8837 65.8652C19.3404 61.9186 28.7456 51.5285 44.2603 49.1927C57.3634 47.0986 67.3313 51.7701 72.3957 54.1864C73.8427 54.8307 94.1001 64.7376 102.139 86.6455C102.621 87.9342 102.943 88.9812 103.184 89.7061C104.148 88.5785 105.435 87.1287 107.203 85.4373C108.248 84.4708 113.473 79.5576 121.271 75.5304C136.946 67.4761 152.622 68.3621 157.043 68.6842C162.59 69.087 167.172 70.134 170.307 71.1005Z" fill="#FF939A" stroke="white" stroke-width="2" stroke-miterlimit="10"></path> <path d="M124.647 159.859C123.2 161.068 122.477 162.437 122.236 163.081C122.075 163.484 120.789 166.867 122.638 170.169C124.165 172.907 127.3 174.518 130.516 174.196C133.57 173.874 136.464 171.78 137.348 168.719C138.313 165.578 136.705 162.92 136.303 162.276C135.901 161.551 134.374 158.973 131.078 158.249C127.702 157.524 125.13 159.457 124.647 159.859Z" fill="#201600"></path> <path d="M178.345 140.932C175.934 142.301 174.969 144.637 174.728 145.201C174.326 146.248 173.603 148.745 174.728 151.483C176.014 154.544 178.828 155.591 179.551 155.913C179.873 155.994 184.616 157.846 188.394 154.866C188.956 154.383 190.966 152.852 191.448 150.033C191.931 146.892 190.001 144.395 189.198 143.348C188.313 142.221 187.509 141.576 187.188 141.335C186.625 140.932 185.821 140.368 184.696 140.046C183.41 139.643 182.365 139.804 181.641 139.885C180.998 139.965 179.712 140.126 178.345 140.932Z" fill="#201600"></path> <path d="M144.904 184.425C145.146 182.895 145.949 177.982 149.084 173.552C154.39 166.061 165.483 161.229 175.773 164.289C183.651 166.625 187.751 172.585 188.876 174.357C189.519 175.404 196.272 185.795 191.69 197.071C190.966 198.923 188.956 203.031 184.615 206.333C177.139 211.971 168.458 210.602 165.323 210.119C162.348 209.635 156.239 208.588 151.094 203.514C146.753 199.165 145.467 194.252 145.226 193.285C144.181 189.419 144.583 186.278 144.904 184.425Z" fill="white"></path> <path d="M159.294 160.746C157.525 161.471 156.641 162.84 155.998 163.726C155.515 164.451 154.792 165.498 154.551 166.948C153.988 170.089 156.159 172.666 156.4 172.908C158.409 175.244 161.625 175.968 164.278 175.405C165.081 175.244 168.779 174.358 169.985 171.055C171.03 168.317 169.583 165.82 169.02 164.773C168.699 164.209 167.011 161.068 163.474 160.343C162.911 160.262 161.143 159.94 159.294 160.746Z" fill="#201600"></path> <path d="M88.3121 68.4424L96.1097 130.461L71.7524 119.185L118.055 79.1547L88.3121 68.4424Z" stroke="black" stroke-width="2" stroke-miterlimit="10"></path> </g> <defs> <clipPath id="clip0"> <rect width="266" height="243" fill="white" transform="translate(0.931641 0.222168)"></rect> </clipPath> </defs> </svg> 