<?xml version="1.0" encoding="UTF-8"?> <svg xmlns="http://www.w3.org/2000/svg" width="218" height="238" viewBox="0 0 218 238" fill="none"> <g clip-path="url(#clip0)"> <path d="M84.3907 50.7852C87.2719 50.2663 91.4828 49.7475 96.5802 49.6734C101.456 49.5992 113.867 50.044 127.977 56.3441C132.041 58.1229 137.507 61.0136 143.491 65.609C144.452 62.496 146.373 57.8265 150.14 53.0087C152.061 50.4887 158.267 43.2991 168.979 39.6673C172.451 38.4814 184.936 34.3307 197.421 40.7791C211.457 48.0427 214.708 63.0889 215.52 66.7208C216.037 69.0926 220.027 88.9565 207.025 101.927C199.489 109.487 189.811 110.97 188.556 111.192C183.754 111.933 179.691 111.34 177.105 110.822C179.543 116.899 182.35 125.645 183.754 136.393C184.64 143.286 186.413 158.628 180.799 177.158C178.656 184.348 173.78 199.616 159.744 213.477C156.789 216.441 144.304 228.226 123.914 233.859C98.4271 240.901 77.077 233.489 66.6605 229.783C41.5427 220.74 27.2108 205.027 24.1819 201.618C19.2322 195.984 8.00312 183.014 3.12731 162.705C-0.344849 148.178 0.984916 136.393 2.01918 127.869C3.27507 117.715 4.67871 106.004 12.3618 93.4036C19.38 81.9893 28.2451 75.0962 33.7858 71.5385C30.7569 70.4267 26.1766 68.3514 21.9656 64.1266C11.032 53.3052 12.1402 38.3331 12.3618 35.5907C13.5438 22.4716 21.4485 14.2444 23.4432 12.2432C25.3639 10.3902 37.1102 -0.801754 54.1016 1.49594C70.8714 3.71951 79.2194 17.1351 80.6969 19.6551C89.1926 33.9601 85.1295 48.4133 84.3907 50.7852Z" fill="#FFDA44" stroke="white" stroke-width="2" stroke-miterlimit="10"></path> <path d="M69.7631 82.1374C67.9901 82.6562 67.0297 83.9904 66.4387 84.8798C65.7738 85.7693 64.5918 87.3999 64.8134 89.5493C65.035 92.0694 67.0297 94.1447 69.3937 94.8859C72.2749 95.7753 74.6389 94.3671 74.9344 94.1447C77.1507 92.7365 77.7417 90.5129 77.8894 89.9199C78.0372 89.327 78.3327 87.9187 77.7417 86.3622C76.929 84.0645 74.9344 83.101 74.2695 82.8045C73.6046 82.4339 71.8316 81.5445 69.7631 82.1374Z" fill="#201600"></path> <path d="M139.206 103.039C137.729 103.929 137.138 105.189 136.916 105.708C136.621 106.301 135.808 108.005 136.399 110.007C137.138 112.601 139.576 113.564 139.945 113.712C141.94 114.454 144.23 114.157 146.003 112.823C147.776 111.489 148.663 109.265 148.441 107.264C148.367 106.819 148.219 104.818 146.594 103.41C145.338 102.372 143.934 102.224 143.122 102.15C142.457 102.15 140.832 102.002 139.206 103.039Z" fill="#201600"></path> <path d="M61.7111 112.082C70.2068 106.3 77.9638 104.003 80.6972 103.336C85.6469 102.001 97.467 98.8885 110.765 103.187C128.347 108.895 136.695 124.015 139.798 129.648C148.072 144.546 147.776 158.703 147.555 165.225C147.407 170.488 147.112 176.491 144.083 183.533C139.355 194.65 131.154 200.58 127.83 202.952C116.158 211.179 104.042 212.217 98.4274 212.217C80.9188 212.291 68.8032 203.471 62.8192 199.098C56.9092 194.725 46.4188 187.09 41.1736 172.563C36.8888 160.778 38.2186 150.401 39.1051 145.88C39.6961 142.619 42.0601 131.723 50.7775 121.643C54.9884 116.677 59.1993 113.786 61.7111 112.082Z" fill="white"></path> <path d="M92.3694 116.973C92 117.789 91.3351 119.345 91.409 121.421C91.6306 125.645 94.955 128.24 95.6199 128.833C96.5803 129.574 100.348 132.613 104.854 131.278C108.918 130.093 110.469 126.238 110.764 125.497C112.168 121.865 110.986 118.604 110.543 117.715C110.247 117.048 109.213 114.676 106.627 113.045C104.485 111.711 102.417 111.637 100.717 111.563C98.9443 111.489 97.6884 111.415 96.2848 112.156C93.9208 113.342 92.8865 115.788 92.3694 116.973Z" fill="#201600"></path> <path d="M73.4569 148.029C78.2589 152.032 83.3563 153.662 88.6754 149.437C94.0683 145.064 97.1711 137.282 99.609 131.056C99.9784 130.092 98.427 129.648 97.9837 130.611C95.9891 135.725 93.4773 141.062 90.079 145.435C88.306 147.659 86.0897 149.66 83.2824 150.253C80.0319 150.92 76.7075 148.993 73.9741 147.436C73.5308 147.14 73.0876 147.733 73.4569 148.029Z" fill="#201600"></path> <path d="M103.229 128.61C104.115 135.8 105.593 144.472 110.321 150.253C113.276 153.885 121.107 156.85 124.874 152.699C125.096 152.477 125.022 152.106 124.727 152.032C122.289 151.513 119.777 152.477 117.265 151.958C113.719 151.291 111.577 148.696 109.73 145.732C106.479 140.617 105.593 134.317 104.263 128.462C103.968 128.017 103.155 128.091 103.229 128.61Z" fill="#201600"></path> </g> <defs> <clipPath id="clip0"> <rect width="217.121" height="237.107" fill="white" transform="translate(0.172363 0.458496)"></rect> </clipPath> </defs> </svg> 