<?xml version="1.0" encoding="UTF-8"?> <svg xmlns="http://www.w3.org/2000/svg" width="44" height="44" viewBox="0 0 44 44" fill="none"> <path d="M9.93075 36.2391C9.71037 36.1403 10.144 36.4015 10.1511 36.458L10.5066 36.6909L10.3786 36.578C10.6843 36.7827 10.9615 36.9662 11.2388 37.1215L10.99 37.0015L11.6085 37.3262L11.2672 37.1286C11.6085 37.2909 11.2601 37.0721 11.6867 37.3121C11.7649 37.3615 11.7933 37.3756 12.1701 37.6015C12.426 37.7286 12.5113 37.7709 12.753 37.8839C12.817 37.9192 12.6819 37.898 12.7175 37.9262C13.3146 38.1451 13.1156 38.0745 13.7554 38.3074C13.6843 38.2862 13.6701 38.3003 13.6914 38.3145L13.8407 38.3498C13.9971 38.4204 14.0184 38.4345 13.99 38.4415C14.4663 38.6462 13.8549 38.3427 14.4165 38.5827C14.3667 38.5686 14.3881 38.5827 14.2957 38.5474C14.9639 38.7521 15.3193 38.858 15.9876 39.0627C16.1369 39.1474 15.5113 38.9286 15.6819 39.0133C16.4426 39.2392 17.2885 39.338 18.0421 39.4792C18.1914 39.458 18.6037 39.5639 18.9805 39.578C18.8809 39.571 18.8454 39.5921 18.8738 39.5921C19.4141 39.6627 19.9899 39.7051 20.8146 39.6768L20.715 39.691C21.035 39.698 21.561 39.7262 21.9094 39.7051C22.0089 39.6839 22.2079 39.6698 22.0871 39.6627C23.1676 39.691 24.1202 39.458 25.0657 39.3451C24.952 39.3662 24.8027 39.4015 24.888 39.3874C25.151 39.331 25.4212 39.3098 25.6842 39.2321C25.6202 39.2251 25.5776 39.2462 25.407 39.2604C25.6487 39.1898 25.8193 39.1404 25.9188 39.1121C25.5705 39.218 25.9259 39.1474 26.0823 39.1192C26.0539 39.1192 26.0894 39.0909 26.0894 39.0909C26.5089 39.0274 26.1463 39.0274 26.715 38.9145L26.6866 38.9356C26.8856 38.8792 27.1416 38.8086 27.3122 38.7592C27.4117 38.7592 27.0918 38.8298 27.0847 38.8509C27.4046 38.7804 27.6818 38.6039 27.9733 38.5474C27.7885 38.618 27.7103 38.6462 27.5254 38.7168C27.8382 38.6462 27.8738 38.6251 28.1013 38.5545L28.0799 38.5615L28.606 38.3992L28.4709 38.4345C28.8335 38.2439 29.2529 38.1521 29.7363 37.8768C29.2671 38.1309 29.6652 37.9333 29.6439 37.9827C29.779 37.9333 29.978 37.8556 29.9212 37.8909C30.1486 37.7639 30.3264 37.7356 30.6463 37.5521C30.6676 37.5521 30.9022 37.4392 30.8595 37.4886C31.151 37.3192 30.7813 37.5168 30.8027 37.4815C31.2434 37.2062 31.8975 36.9309 32.523 36.5286C32.8572 36.2744 33.2268 35.9991 33.5396 35.7662C33.5681 35.745 33.5965 35.7309 33.6249 35.7097C33.7173 35.6674 33.4899 35.8368 33.4899 35.8368C33.7245 35.6886 33.9093 35.5685 34.1012 35.4062C34.0586 35.4344 34.0444 35.4344 34.0586 35.4062C34.1652 35.3285 34.2576 35.2368 34.3572 35.1591L34.1226 35.385C34.1439 35.3638 34.1723 35.3568 34.1936 35.3356C34.151 35.385 34.2079 35.3497 34.2861 35.3003C34.4709 35.145 34.3927 35.1662 34.6486 34.9756C34.606 35.025 34.5349 35.1097 34.4851 35.1591C34.6628 34.9968 34.9543 34.7427 35.132 34.5803C35.2031 34.545 35.0112 34.7144 34.9401 34.7921C35.0894 34.665 35.2742 34.5027 35.4235 34.3685C35.2671 34.5097 35.1605 34.5732 35.1391 34.5732L35.3026 34.4321C35.0965 34.5238 34.6486 34.9827 34.3145 35.2509L34.4069 35.1309C35.26 34.4603 36.0633 33.7403 36.7955 32.9285C36.8026 32.9215 36.8097 32.9073 36.824 32.8932C36.8169 32.9709 36.76 33.112 37.1794 32.632L37.4496 32.2438L37.5349 32.1662C37.5633 32.1238 37.606 32.0744 37.6344 32.032C37.6699 32.0109 37.7197 31.9614 37.7766 31.8909L37.9756 31.4673C38.0183 31.432 37.8974 31.665 38.068 31.4038C38.1605 31.2061 37.9259 31.5591 38.0965 31.2485C38.2315 31.065 38.2173 31.1285 38.3311 30.8956C38.3595 30.8673 38.3382 30.9238 38.2884 31.0156C38.4022 30.8108 38.5941 30.4791 38.6083 30.352C38.7292 30.1473 38.9282 29.632 38.9638 29.6673C39.0206 29.512 39.1415 29.1661 39.1699 29.0744C39.0988 29.4626 39.4258 28.319 39.4543 28.432C39.5183 28.1496 39.76 27.4296 39.8311 26.9214C39.8239 26.9708 39.8168 27.0132 39.8097 27.0484C39.8524 26.9002 39.9164 26.6884 39.9661 26.512C39.9377 26.4696 40.0301 26.032 40.023 25.7849C40.1083 25.439 40.0372 26.0037 40.0941 25.8978C40.0585 25.912 40.151 25.2837 40.1012 25.3967C40.1652 25.1355 40.1439 25.1708 40.2007 25.0367C40.1581 24.9802 40.2292 24.7896 40.2292 24.5637C40.286 24.1755 40.286 24.4649 40.2931 24.0413C40.3216 23.8366 40.3145 24.2178 40.3145 24.2178C40.3358 23.7802 40.286 24.0131 40.2718 23.9143C40.2931 23.3919 40.3145 23.6743 40.3429 23.4978C40.3429 23.2719 40.3358 22.799 40.3287 22.679C40.3358 22.6578 40.3358 22.6154 40.3429 22.6649C40.3002 21.9237 40.3145 22.1707 40.2576 21.246C40.2576 21.2248 40.2647 21.1966 40.2647 21.1966C40.286 21.1543 40.3074 21.5707 40.286 21.0625L40.2647 21.1966C40.2505 21.2601 40.2292 21.2743 40.2149 21.2601C40.2149 21.0625 40.1652 20.9001 40.1794 20.8295C40.1936 20.9495 40.2007 20.9566 40.2149 21.0131L40.1794 20.8084C40.1936 20.6248 40.2221 21.0837 40.2505 21.0837C40.1936 20.7025 40.1296 20.2366 40.087 19.926C40.1154 19.8554 40.1794 20.6319 40.1652 20.2295L40.2078 20.7025C40.222 20.3354 40.2363 20.9919 40.2576 20.6531C40.1794 20.0037 40.1794 19.9895 40.0941 19.3401C40.0514 19.206 40.0728 19.3895 40.0301 19.2554C39.8168 18.3942 39.9803 18.5566 39.8026 17.9283C39.7386 17.766 39.7102 17.7095 39.5894 17.2648L39.6747 17.406C39.504 16.8271 39.5183 17.0883 39.3619 16.4742C39.4116 16.5801 39.5112 16.926 39.4898 16.8342C39.4045 16.4318 39.3832 16.5589 39.2908 16.2624L39.305 16.1918C39.1131 15.5777 38.7789 14.9354 38.523 14.2718C38.5443 14.3071 38.6012 14.413 38.5514 14.2506C38.1178 13.453 37.6913 12.5212 37.1865 11.8012L36.9733 11.54C36.9306 11.4765 36.9022 11.413 36.959 11.4765C36.7813 11.1871 36.9377 11.4694 36.8311 11.3424C36.7244 11.18 36.7031 11.1165 36.7813 11.2153C36.3903 10.7565 35.6723 9.89529 35.2387 9.43646L35.3382 9.51411C34.9899 9.16117 34.8903 9.16823 34.5704 8.8294L34.6415 8.88587C33.8809 8.11645 32.8856 7.43879 32.2245 6.94467C32.0681 6.89526 31.3287 6.35172 31.2363 6.36584C30.7103 6.04113 30.8667 6.12584 30.0918 5.7023C29.8785 5.59642 29.7719 5.56818 29.4946 5.4623L29.5017 5.43406L29.1178 5.32112L28.9401 5.20818L28.6842 5.11641C28.7837 5.15876 28.8975 5.21524 28.8761 5.21524C28.478 5.07406 27.9093 4.81994 27.9093 4.81994L26.9496 4.57288C26.978 4.56582 27.1416 4.60817 27.2695 4.63641C26.7435 4.52346 27.1842 4.57993 26.7008 4.47405C26.7648 4.50229 26.651 4.48817 26.651 4.48817C26.4164 4.40346 25.8619 4.32581 25.4496 4.25522L25.5278 4.24817C24.7956 4.08581 23.9496 4.08581 23.1179 4.04346C23.4165 4.05052 23.3525 4.08581 23.1037 4.09287L23.0041 4.06463C22.8477 4.08581 23.2601 4.07169 22.933 4.09993C22.6203 4.09993 22.7198 4.06463 22.9046 4.05052L22.5207 4.07875C22.4994 4.07169 22.5847 4.06463 22.6131 4.05052C22.4567 4.07169 21.952 4.02934 21.7245 4.07169L21.7032 4.06463C20.8643 4.17052 20.4876 4.19169 19.8122 4.3117C19.8051 4.33993 19.5421 4.38934 19.343 4.44581C18.8454 4.53052 18.298 4.61523 17.7151 4.79876C17.3099 4.92582 17.6013 4.85523 17.4236 4.91876C17.3881 4.90464 16.8051 5.067 17.1037 4.96817C16.407 5.17994 16.2293 5.27877 15.3762 5.59642C15.4757 5.57524 15.5824 5.53995 15.5326 5.56818C15.3762 5.63171 15.1701 5.68818 15.1914 5.66701L15.234 5.64583C14.3028 6.06936 13.0374 6.53525 12.3478 6.97996L12.3904 6.95879C12.1416 7.09291 11.8999 7.23408 11.6653 7.38938C11.3312 7.57997 11.8573 7.25526 11.6014 7.38938C10.8407 7.89056 10.3502 8.10233 9.75302 8.54704C9.19141 8.75175 8.09663 9.75412 7.49237 10.2624L7.54214 10.2482C7.39996 10.3965 7.35019 10.4035 7.23645 10.5024C7.26489 10.4953 7.41417 10.3682 7.32887 10.46C6.09902 11.6388 5.04689 13.1636 4.4213 14.7801C4.16538 15.3659 4.35021 15.1401 4.08007 15.8812L4.11561 15.6554C3.76017 16.8766 3.43315 18.1754 3.36917 19.4178C3.36917 19.3401 3.35495 19.3401 3.36917 19.2201C3.31941 19.4813 3.27676 20.1872 3.29808 20.1942C3.27676 20.3848 3.27676 20.2366 3.25543 20.3566C3.21988 20.6178 3.27676 21.0201 3.24832 21.1613C3.24121 21.1825 3.24121 21.0837 3.24121 21.0413C3.25543 21.2107 3.2341 21.839 3.26254 21.6766C3.2341 22.1425 3.29097 22.566 3.3123 22.9402C3.36206 23.1802 3.36206 23.7378 3.41183 23.8084C3.34074 23.7802 3.48292 24.6202 3.55401 24.9096C3.52557 24.8108 3.58244 25.1637 3.53979 25.0508C3.59666 25.3825 3.65353 25.6861 3.66775 25.6225C3.73173 26.2437 4.00187 26.8226 4.00898 27.1826C4.31466 28.1355 4.59902 29.0179 4.99002 29.8367C4.9758 29.8367 4.94025 29.7732 4.8976 29.6955C5.08243 30.0979 5.27438 30.472 5.49475 30.9732C5.59428 31.1708 5.40945 30.8744 5.38101 30.8108C5.82177 31.552 6.14167 32.2932 6.63219 32.8862L6.52555 32.7591C6.61086 32.8791 6.7246 33.0485 6.73171 33.0273L6.6393 32.9073C6.52555 32.6956 7.0374 33.3662 7.06583 33.3732C6.85967 33.2038 7.49948 33.9874 7.1938 33.7121C7.26489 33.7826 7.3573 33.8744 7.35019 33.8462C7.44261 33.9591 7.47105 34.0015 7.3573 33.8956C7.62033 34.1709 7.74829 34.305 7.94024 34.5097C7.94024 34.5097 7.86204 34.4462 7.81938 34.4109C8.01133 34.5732 8.15351 34.785 8.4663 35.0603C8.44497 35.0462 8.47341 35.0885 8.38099 35.0038C8.92127 35.4485 9.27672 35.8086 9.93075 36.2391Z" stroke="#FAD954" stroke-width="2" stroke-miterlimit="10" stroke-linejoin="round"></path> </svg> 