<?xml version="1.0" encoding="UTF-8"?> <svg xmlns="http://www.w3.org/2000/svg" width="152" height="134" viewBox="0 0 152 134" fill="none"> <path d="M132 65.9997C136.5 103 102.451 134 66 134C49.3364 134 30.7 129.5 19.5 115.5C7.5 100.5 3.2749e-05 81.1994 -1.66177e-06 65.9997C-6.50514e-05 37.9997 4.42011 28.0002 23.9999 16C43.5798 3.99975 58 2.49988 79.5 2.5C98.5 2.50011 135 8.00051 151.5 8C117 30 129.057 41.8055 132 65.9997Z" fill="#FAD954"></path> <path d="M36.3469 72.3C36.3469 72.1 36.2669 71.94 36.1469 71.8C36.0069 71.68 35.8469 71.6 35.6469 71.6L34.6469 71.6L34.6469 63.5C34.6469 63.3 34.5669 63.14 34.4469 63C34.3069 62.88 34.1469 62.8 33.9469 62.8L27.3469 62.8C27.1469 62.8 26.9669 62.88 26.8469 63C26.7069 63.14 26.6469 63.3 26.6469 63.5L26.6469 67.9C26.6469 68.38 26.5869 68.82 26.4869 69.24C26.3869 69.68 26.2669 70.02 26.1469 70.28C26.0269 70.56 25.8869 70.8 25.7269 71.02C25.5669 71.26 25.4469 71.4 25.3869 71.46C25.3269 71.54 25.2869 71.58 25.2469 71.6L24.7469 71.6C24.5469 71.6 24.3669 71.68 24.2469 71.8C24.1069 71.94 24.0469 72.1 24.0469 72.3L24.0469 75.1C24.0469 75.3 24.1069 75.48 24.2469 75.6C24.3869 75.74 24.5669 75.8 24.7869 75.8C25.0069 75.8 25.1869 75.74 25.3269 75.6C25.4669 75.48 25.5469 75.3 25.5469 75.1L25.5469 73L34.8469 73L34.8469 75.1C34.8469 75.3 34.9069 75.48 35.0469 75.6C35.1869 75.74 35.3669 75.8 35.6069 75.8C35.8069 75.8 35.9869 75.74 36.1269 75.6C36.2669 75.48 36.3469 75.3 36.3469 75.1L36.3469 72.3ZM28.1469 64.2L33.1469 64.2L33.1469 71.6L26.8469 71.6L26.8469 71.5L27.1669 71.16C27.3669 70.94 27.5869 70.52 27.8069 69.92C28.0269 69.32 28.1469 68.66 28.1469 67.9L28.1469 64.2ZM38.0375 69C38.0375 70.24 38.4775 71.26 39.3575 72.08C40.2375 72.9 41.3975 73.3 42.8375 73.3C44.2575 73.3 45.4175 72.9 46.2975 72.08C47.1775 71.26 47.6375 70.24 47.6375 69L47.6375 66.8C47.6375 65.58 47.1775 64.56 46.2975 63.74C45.4175 62.92 44.2575 62.5 42.8375 62.5C41.3975 62.5 40.2375 62.92 39.3575 63.74C38.4775 64.56 38.0375 65.58 38.0375 66.8L38.0375 69ZM46.1375 69C46.1375 69.82 45.8175 70.5 45.2175 71.06C44.5975 71.62 43.7975 71.9 42.8375 71.9C41.8575 71.9 41.0575 71.62 40.4575 71.06C39.8375 70.5 39.5375 69.82 39.5375 69L39.5375 66.8C39.5375 66 39.8375 65.3 40.4575 64.74C41.0575 64.18 41.8575 63.9 42.8375 63.9C43.7975 63.9 44.5975 64.18 45.2175 64.74C45.8175 65.3 46.1375 66 46.1375 66.8L46.1375 69ZM55.3344 64.2C55.9944 64.2 56.4944 64.34 56.8344 64.58C57.1544 64.82 57.3344 65.14 57.3344 65.5C57.3344 65.94 57.1544 66.28 56.8344 66.52C56.4944 66.78 55.9944 66.9 55.3344 66.9L51.8344 66.9L51.8344 64.2L55.3344 64.2ZM51.8344 71.6L51.8344 68.2L55.4344 68.2C56.2344 68.2 56.8544 68.38 57.2944 68.7C57.7144 69.02 57.9344 69.42 57.9344 69.9C57.9344 70.38 57.7144 70.8 57.3144 71.12C56.8944 71.44 56.3144 71.6 55.5544 71.6L51.8344 71.6ZM51.0344 62.8C50.8344 62.8 50.6544 62.88 50.5344 63C50.3944 63.14 50.3344 63.3 50.3344 63.5L50.3344 72.3C50.3344 72.78 50.5544 73 51.0344 73L55.5544 73C56.8344 73 57.8144 72.74 58.4944 72.18C59.1744 71.64 59.5344 70.94 59.5344 70.1C59.5344 69.72 59.4544 69.36 59.2944 69.04C59.1344 68.72 58.9544 68.48 58.7544 68.32C58.5544 68.16 58.3344 68 58.0944 67.88C57.8344 67.76 57.6544 67.7 57.5544 67.66C57.4544 67.64 57.3744 67.62 57.3344 67.6L57.3344 67.5L57.4944 67.44C57.5944 67.4 57.7344 67.34 57.8944 67.22C58.0544 67.12 58.2144 67 58.3744 66.84C58.5344 66.68 58.6544 66.48 58.7744 66.2C58.8744 65.92 58.9344 65.62 58.9344 65.3C58.9344 64.62 58.6144 64.02 57.9944 63.54C57.3544 63.06 56.4744 62.8 55.3344 62.8L51.0344 62.8ZM66.3336 73.3C67.4936 73.3 68.5336 73 69.4136 72.38C70.2936 71.76 70.7336 71.2 70.7336 70.7C70.7336 70.46 70.6536 70.28 70.5336 70.12C70.3936 69.98 70.2336 69.9 70.0336 69.9C69.7536 69.9 69.5536 70 69.4336 70.2C68.5736 71.34 67.5336 71.9 66.3336 71.9C65.3536 71.9 64.5536 71.62 63.9536 71.06C63.3336 70.5 63.0336 69.82 63.0336 69L63.0336 68.6L70.2336 68.6C70.4336 68.6 70.5936 68.54 70.7336 68.4C70.8536 68.28 70.9336 68.1 70.9336 67.9L70.9336 66.8C70.9336 65.6 70.4936 64.58 69.6136 63.74C68.7336 62.92 67.5936 62.5 66.2336 62.5C64.8536 62.5 63.7336 62.92 62.8536 63.74C61.9736 64.58 61.5336 65.6 61.5336 66.8L61.5336 69C61.5336 70.24 61.9736 71.26 62.8536 72.08C63.7336 72.9 64.8936 73.3 66.3336 73.3ZM63.0336 66.8C63.0336 66 63.3336 65.3 63.9336 64.74C64.5336 64.18 65.2936 63.9 66.2336 63.9C67.1536 63.9 67.9336 64.18 68.5336 64.74C69.1336 65.3 69.4336 66 69.4336 66.8L69.4336 67.2L63.0336 67.2L63.0336 66.8ZM78.2375 63.9C79.1575 63.9 79.9375 64.18 80.5375 64.74C81.1375 65.3 81.4375 66 81.4375 66.8L81.4375 69C81.4375 69.82 81.1375 70.5 80.5375 71.06C79.9375 71.62 79.1575 71.9 78.2375 71.9C77.2975 71.9 76.5375 71.62 75.9375 71.06C75.3375 70.5 75.0375 69.82 75.0375 69L75.0375 66.6C75.0375 65.88 75.3375 65.26 75.9375 64.72C76.5375 64.18 77.3175 63.9 78.2375 63.9ZM78.2375 62.5C77.8375 62.5 77.4775 62.56 77.1175 62.68C76.7575 62.8 76.4575 62.92 76.2375 63.06C76.0175 63.2 75.8175 63.36 75.6175 63.54C75.4175 63.74 75.2975 63.86 75.2575 63.94C75.1975 64.02 75.1575 64.06 75.1375 64.1L75.0375 64.1L75.0375 63.4C75.0375 63.2 74.9575 63.04 74.8175 62.9C74.6775 62.78 74.4975 62.7 74.2775 62.7C74.0575 62.7 73.8775 62.78 73.7375 62.9C73.5975 63.04 73.5375 63.2 73.5375 63.4L73.5375 76.7C73.5375 76.9 73.5975 77.08 73.7375 77.2C73.8775 77.34 74.0575 77.4 74.2775 77.4C74.4975 77.4 74.6775 77.34 74.8175 77.2C74.9575 77.06 75.0375 76.9 75.0375 76.7L75.0375 71.8L75.1375 71.8L75.2575 71.96C75.3175 72.06 75.4375 72.18 75.5975 72.34C75.7575 72.5 75.9575 72.64 76.1975 72.78C76.4175 72.94 76.7175 73.06 77.0775 73.16C77.4375 73.26 77.8175 73.3 78.2375 73.3C79.5975 73.3 80.7375 72.9 81.6175 72.06C82.4975 71.24 82.9375 70.22 82.9375 69L82.9375 66.8C82.9375 65.6 82.4975 64.58 81.6175 63.74C80.7375 62.92 79.5975 62.5 78.2375 62.5ZM93.2469 65.3L93.3469 65.3L93.3469 72.4C93.3469 72.6 93.4069 72.78 93.5469 72.9C93.6869 73.04 93.8669 73.1 94.1069 73.1C94.3069 73.1 94.4869 73.04 94.6269 72.9C94.7669 72.78 94.8469 72.6 94.8469 72.4L94.8469 63.4C94.8469 63.2 94.7669 63.04 94.6469 62.9C94.5069 62.78 94.3469 62.7 94.1469 62.7C93.7469 62.7 93.4469 62.84 93.2469 63.1L87.2469 70.5L87.1469 70.5L87.1469 63.4C87.1469 63.2 87.0669 63.04 86.9269 62.9C86.7869 62.78 86.6069 62.7 86.3869 62.7C86.1669 62.7 85.9869 62.78 85.8469 62.9C85.7069 63.04 85.6469 63.2 85.6469 63.4L85.6469 72.4C85.6469 72.6 85.7069 72.78 85.8469 72.9C85.9669 73.04 86.1469 73.1 86.3469 73.1C86.7269 73.1 87.0269 72.98 87.2469 72.7L93.2469 65.3ZM102.349 73.3C103.509 73.3 104.549 73 105.429 72.38C106.309 71.76 106.749 71.2 106.749 70.7C106.749 70.46 106.669 70.28 106.549 70.12C106.409 69.98 106.249 69.9 106.049 69.9C105.769 69.9 105.569 70 105.449 70.2C104.589 71.34 103.549 71.9 102.349 71.9C101.369 71.9 100.569 71.62 99.9692 71.06C99.3492 70.5 99.0492 69.82 99.0492 69L99.0492 68.6L106.249 68.6C106.449 68.6 106.609 68.54 106.749 68.4C106.869 68.28 106.949 68.1 106.949 67.9L106.949 66.8C106.949 65.6 106.509 64.58 105.629 63.74C104.749 62.92 103.609 62.5 102.249 62.5C100.869 62.5 99.7492 62.92 98.8692 63.74C97.9892 64.58 97.5492 65.6 97.5492 66.8L97.5492 69C97.5492 70.24 97.9892 71.26 98.8692 72.08C99.7492 72.9 100.909 73.3 102.349 73.3ZM99.0492 66.8C99.0492 66 99.3492 65.3 99.9492 64.74C100.549 64.18 101.309 63.9 102.249 63.9C103.169 63.9 103.949 64.18 104.549 64.74C105.149 65.3 105.449 66 105.449 66.8L105.449 67.2L99.0492 67.2L99.0492 66.8Z" fill="white"></path> </svg> 