<?xml version="1.0" encoding="UTF-8"?> <svg xmlns="http://www.w3.org/2000/svg" width="199" height="168" viewBox="0 0 199 168" fill="none"> <g clip-path="url(#clip0)"> <path d="M100.269 144.896C136.519 149.576 174.13 134.901 184.064 100.105C193.992 65.3324 167.094 39.0445 130.732 28.9957C102.704 21.2501 56.4345 40.0004 27.5 19.0002C27.4999 32 27.0001 39.9993 36 73.9998C46.8527 115 62.8597 140.044 100.269 144.896Z" fill="#738FE5"></path> <path d="M62.1333 86C62.1333 87.24 62.5733 88.26 63.4533 89.08C64.3333 89.9 65.4933 90.3 66.9333 90.3C68.3533 90.3 69.5133 89.9 70.3933 89.08C71.2733 88.26 71.7333 87.24 71.7333 86L71.7333 83.8C71.7333 82.58 71.2733 81.56 70.3933 80.74C69.5133 79.92 68.3533 79.5 66.9333 79.5C65.4933 79.5 64.3333 79.92 63.4533 80.74C62.5733 81.56 62.1333 82.58 62.1333 83.8L62.1333 86ZM70.2333 86C70.2333 86.82 69.9133 87.5 69.3133 88.06C68.6933 88.62 67.8933 88.9 66.9333 88.9C65.9533 88.9 65.1533 88.62 64.5533 88.06C63.9333 87.5 63.6333 86.82 63.6333 86L63.6333 83.8C63.6333 83 63.9333 82.3 64.5533 81.74C65.1533 81.18 65.9533 80.9 66.9333 80.9C67.8933 80.9 68.6933 81.18 69.3133 81.74C69.9133 82.3 70.2333 83 70.2333 83.8L70.2333 86Z" fill="white"></path> <path d="M78.2349 81.2L81.6349 81.2C81.8349 81.2 81.9949 81.14 82.1349 81C82.2549 80.88 82.3349 80.7 82.3349 80.5C82.3349 80.3 82.2549 80.14 82.1349 80C81.9949 79.88 81.8349 79.8 81.6349 79.8L73.3349 79.8C73.1349 79.8 72.9549 79.88 72.8349 80C72.6949 80.14 72.6349 80.3 72.6349 80.5C72.6349 80.7 72.6949 80.88 72.8349 81C72.9549 81.14 73.1349 81.2 73.3349 81.2L76.7349 81.2L76.7349 89.4C76.7349 89.6 76.7949 89.78 76.9349 89.9C77.0749 90.04 77.2549 90.1 77.4949 90.1C77.6949 90.1 77.8749 90.04 78.0149 89.9C78.1549 89.78 78.2349 89.6 78.2349 89.4L78.2349 81.2Z" fill="white"></path> <path d="M92.1419 81L92.2219 80.92C92.2619 80.88 92.3219 80.8 92.3619 80.7C92.4019 80.6 92.4419 80.5 92.4419 80.4C92.4419 80.2 92.3619 80.04 92.2419 79.9C92.1019 79.78 91.9419 79.7 91.7419 79.7C91.5419 79.7 91.3419 79.8 91.1419 80L85.4419 84.9L85.4419 80.4C85.4419 80.2 85.3619 80.04 85.2219 79.9C85.0819 79.78 84.9019 79.7 84.6819 79.7C84.4619 79.7 84.2819 79.78 84.1419 79.9C84.0019 80.04 83.9419 80.2 83.9419 80.4L83.9419 89.4C83.9419 89.6 84.0019 89.78 84.1419 89.9C84.2819 90.04 84.4619 90.1 84.6819 90.1C84.9019 90.1 85.0819 90.04 85.2219 89.9C85.3619 89.78 85.4419 89.6 85.4419 89.4L85.4419 86.7L87.5419 84.9L91.2419 89.8L91.3019 89.88C91.3419 89.94 91.4019 90 91.5019 90.04C91.6019 90.08 91.7219 90.1 91.8419 90.1C92.0819 90.1 92.2619 90.04 92.4219 89.9C92.5619 89.78 92.6419 89.6 92.6419 89.4C92.6419 89.2 92.5419 89 92.3419 88.8L88.6419 84L92.1419 81Z" fill="white"></path> <path d="M99.2474 80.9C100.167 80.9 100.947 81.18 101.547 81.74C102.147 82.3 102.447 83 102.447 83.8L102.447 86C102.447 86.82 102.147 87.5 101.547 88.06C100.947 88.62 100.167 88.9 99.2474 88.9C98.3074 88.9 97.5474 88.62 96.9474 88.06C96.3474 87.5 96.0474 86.82 96.0474 86L96.0474 83.6C96.0474 82.88 96.3474 82.26 96.9474 81.72C97.5474 81.18 98.3274 80.9 99.2474 80.9ZM99.2474 79.5C98.8474 79.5 98.4874 79.56 98.1274 79.68C97.7674 79.8 97.4674 79.92 97.2474 80.06C97.0274 80.2 96.8274 80.36 96.6274 80.54C96.4274 80.74 96.3074 80.86 96.2674 80.94C96.2074 81.02 96.1674 81.06 96.1474 81.1L96.0474 81.1L96.0474 80.4C96.0474 80.2 95.9674 80.04 95.8274 79.9C95.6874 79.78 95.5074 79.7 95.2874 79.7C95.0674 79.7 94.8874 79.78 94.7474 79.9C94.6074 80.04 94.5474 80.2 94.5474 80.4L94.5474 93.7C94.5474 93.9 94.6074 94.08 94.7474 94.2C94.8874 94.34 95.0674 94.4 95.2874 94.4C95.5074 94.4 95.6874 94.34 95.8274 94.2C95.9674 94.06 96.0474 93.9 96.0474 93.7L96.0474 88.8L96.1474 88.8L96.2674 88.96C96.3274 89.06 96.4474 89.18 96.6074 89.34C96.7674 89.5 96.9674 89.64 97.2074 89.78C97.4274 89.94 97.7274 90.06 98.0874 90.16C98.4474 90.26 98.8274 90.3 99.2474 90.3C100.607 90.3 101.747 89.9 102.627 89.06C103.507 88.24 103.947 87.22 103.947 86L103.947 83.8C103.947 82.6 103.507 81.58 102.627 80.74C101.747 79.92 100.607 79.5 99.2474 79.5Z" fill="white"></path> <path d="M118.457 80.4C118.457 80.2 118.377 80.04 118.237 79.9C118.097 79.78 117.917 79.7 117.697 79.7C117.477 79.7 117.297 79.78 117.157 79.9C117.017 80.04 116.957 80.2 116.957 80.4L116.957 89.4C116.957 89.6 117.017 89.78 117.157 89.9C117.297 90.04 117.477 90.1 117.697 90.1C117.917 90.1 118.097 90.04 118.237 89.9C118.377 89.78 118.457 89.6 118.457 89.4L118.457 80.4ZM108.157 88.6L108.157 84.6L110.857 84.6C111.717 84.6 112.357 84.78 112.797 85.14C113.237 85.5 113.457 85.98 113.457 86.6C113.457 87.24 113.237 87.72 112.797 88.08C112.357 88.44 111.717 88.6 110.857 88.6L108.157 88.6ZM110.857 90C112.257 90 113.317 89.72 114.017 89.12C114.697 88.52 115.057 87.68 115.057 86.6C115.057 85.62 114.677 84.8 113.937 84.16C113.177 83.52 112.157 83.2 110.857 83.2L108.157 83.2L108.157 80.4C108.157 80.2 108.077 80.04 107.937 79.9C107.797 79.78 107.617 79.7 107.397 79.7C107.177 79.7 106.997 79.78 106.857 79.9C106.717 80.04 106.657 80.2 106.657 80.4L106.657 89.3C106.657 89.5 106.717 89.68 106.857 89.8C106.977 89.94 107.157 90 107.357 90L110.857 90Z" fill="white"></path> <path d="M125.657 81.2L129.057 81.2C129.257 81.2 129.417 81.14 129.557 81C129.677 80.88 129.757 80.7 129.757 80.5C129.757 80.3 129.677 80.14 129.557 80C129.417 79.88 129.257 79.8 129.057 79.8L120.757 79.8C120.557 79.8 120.377 79.88 120.257 80C120.117 80.14 120.057 80.3 120.057 80.5C120.057 80.7 120.117 80.88 120.257 81C120.377 81.14 120.557 81.2 120.757 81.2L124.157 81.2L124.157 89.4C124.157 89.6 124.217 89.78 124.357 89.9C124.497 90.04 124.677 90.1 124.917 90.1C125.117 90.1 125.297 90.04 125.437 89.9C125.577 89.78 125.657 89.6 125.657 89.4L125.657 81.2Z" fill="white"></path> <path d="M130.668 86C130.668 87.24 131.108 88.26 131.988 89.08C132.868 89.9 134.028 90.3 135.468 90.3C136.888 90.3 138.048 89.9 138.928 89.08C139.808 88.26 140.268 87.24 140.268 86L140.268 83.8C140.268 82.58 139.808 81.56 138.928 80.74C138.048 79.92 136.888 79.5 135.468 79.5C134.028 79.5 132.868 79.92 131.988 80.74C131.108 81.56 130.668 82.58 130.668 83.8L130.668 86ZM138.768 86C138.768 86.82 138.448 87.5 137.848 88.06C137.228 88.62 136.428 88.9 135.468 88.9C134.488 88.9 133.688 88.62 133.088 88.06C132.468 87.5 132.168 86.82 132.168 86L132.168 83.8C132.168 83 132.468 82.3 133.088 81.74C133.688 81.18 134.488 80.9 135.468 80.9C136.428 80.9 137.228 81.18 137.848 81.74C138.448 82.3 138.768 83 138.768 83.8L138.768 86Z" fill="white"></path> <path d="M143.965 83.8C143.965 83 144.265 82.3 144.885 81.74C145.485 81.18 146.285 80.9 147.265 80.9C148.345 80.9 149.285 81.38 150.065 82.3C150.225 82.5 150.425 82.6 150.665 82.6C150.865 82.6 151.025 82.54 151.165 82.38C151.285 82.24 151.365 82.04 151.365 81.8C151.365 81.36 150.965 80.88 150.165 80.32C149.365 79.78 148.385 79.5 147.265 79.5C145.825 79.5 144.665 79.92 143.785 80.74C142.905 81.56 142.465 82.58 142.465 83.8L142.465 86C142.465 87.24 142.905 88.26 143.785 89.08C144.665 89.9 145.825 90.3 147.265 90.3C148.425 90.3 149.465 90 150.345 89.38C151.225 88.76 151.665 88.2 151.665 87.7C151.665 87.46 151.585 87.28 151.465 87.12C151.325 86.98 151.165 86.9 150.965 86.9C150.705 86.9 150.505 87 150.365 87.2C149.505 88.34 148.465 88.9 147.265 88.9C146.285 88.9 145.485 88.62 144.885 88.06C144.265 87.5 143.965 86.82 143.965 86L143.965 83.8Z" fill="white"></path> <path d="M157.864 81.2L161.264 81.2C161.464 81.2 161.624 81.14 161.764 81C161.884 80.88 161.964 80.7 161.964 80.5C161.964 80.3 161.884 80.14 161.764 80C161.624 79.88 161.464 79.8 161.264 79.8L152.964 79.8C152.764 79.8 152.584 79.88 152.464 80C152.324 80.14 152.264 80.3 152.264 80.5C152.264 80.7 152.324 80.88 152.464 81C152.584 81.14 152.764 81.2 152.964 81.2L156.364 81.2L156.364 89.4C156.364 89.6 156.424 89.78 156.564 89.9C156.704 90.04 156.884 90.1 157.124 90.1C157.324 90.1 157.504 90.04 157.644 89.9C157.784 89.78 157.864 89.6 157.864 89.4L157.864 81.2Z" fill="white"></path> <path d="M165.071 88.6L165.071 84.6L168.071 84.6C168.931 84.6 169.571 84.78 170.011 85.14C170.451 85.5 170.671 85.98 170.671 86.6C170.671 87.24 170.451 87.72 170.011 88.08C169.571 88.44 168.931 88.6 168.071 88.6L165.071 88.6ZM168.071 90C169.471 90 170.531 89.72 171.231 89.12C171.911 88.52 172.271 87.68 172.271 86.6C172.271 85.62 171.891 84.8 171.151 84.16C170.391 83.52 169.371 83.2 168.071 83.2L165.071 83.2L165.071 80.4C165.071 80.2 164.991 80.04 164.851 79.9C164.711 79.78 164.531 79.7 164.311 79.7C164.091 79.7 163.911 79.78 163.771 79.9C163.631 80.04 163.571 80.2 163.571 80.4L163.571 89.3C163.571 89.5 163.631 89.68 163.771 89.8C163.891 89.94 164.071 90 164.271 90L168.071 90Z" fill="white"></path> </g> <defs> <clipPath id="clip0"> <rect width="176.052" height="138.209" fill="white" transform="translate(24.8818 0.505859) rotate(9.95364)"></rect> </clipPath> </defs> </svg> 