<?xml version="1.0" encoding="UTF-8"?> <svg xmlns="http://www.w3.org/2000/svg" width="127" height="128" viewBox="0 0 127 128" fill="none"> <path d="M64.3646 126.928C98.7992 126.928 126.714 98.9719 126.714 64.4864C126.714 30.0009 98.7992 2.04492 64.3646 2.04492C29.9299 2.04492 2.01514 30.0009 2.01514 64.4864C2.01514 98.9719 29.9299 126.928 64.3646 126.928Z" fill="#E5E5E5"></path> <mask id="mask0" mask-type="alpha" maskUnits="userSpaceOnUse" x="2" y="2" width="125" height="125"> <path d="M64.3646 126.928C98.7992 126.928 126.714 98.9719 126.714 64.4864C126.714 30.0009 98.7992 2.04492 64.3646 2.04492C29.9299 2.04492 2.01514 30.0009 2.01514 64.4864C2.01514 98.9719 29.9299 126.928 64.3646 126.928Z" fill="#FF5010"></path> </mask> <g mask="url(#mask0)"> <path d="M17.8104 20.7144C18.1895 23.4251 18.7947 27.6012 19.6393 32.7031C21.1024 41.5348 21.6345 43.4131 22.0934 47.7623C22.6718 53.1091 22.6227 58.5053 21.9471 63.8406C20.9828 70.7681 18.9642 77.5068 15.9615 83.8219C13.8271 88.3616 11.214 92.6598 8.16699 96.6432" stroke="#201600" stroke-width="4" stroke-miterlimit="10"></path> <path d="M64.451 1.06592C59.6212 4.71011 55.3369 9.02763 51.7284 13.8872C45.9423 21.7066 43.5282 28.7733 40.9211 36.6992C36.8842 48.9677 35.727 58.7718 34.7693 67.3371C33.918 74.9034 33.0534 83.0491 33.918 93.8123C34.9489 106.254 37.5293 112.535 39.9036 116.791C41.2975 119.262 42.9113 121.603 44.7253 123.784C45.7999 124.933 46.9678 125.992 48.2168 126.948" stroke="#201600" stroke-width="4" stroke-miterlimit="10"></path> <path d="M113.413 23.7114C109.98 24.1615 106.588 24.8853 103.271 25.8761C101.807 26.3157 97.4047 27.6877 88.6392 32.2035C81.2371 36.0199 77.5394 37.9248 73.0103 41.3615C68.3549 44.8982 64.2382 48.022 60.7067 53.6833C57.9577 58.2153 56.1482 63.2553 55.3862 68.5028C55.3862 68.5028 53.6304 80.3783 58.8778 92.1473C68.7872 114.36 97.0922 118.856 98.9477 119.122" stroke="#201600" stroke-width="4" stroke-miterlimit="10"></path> <path d="M0.518555 58.3457C5.48796 60.4745 10.5991 62.2549 15.815 63.674C20.4704 64.9329 24.341 65.6722 31.9427 67.0043C38.2608 68.0966 41.5927 68.6694 47.2391 69.5019C60.4804 71.4468 70.882 72.5058 74.174 72.8321C89.0647 74.3041 98.4354 75.2299 111.251 74.9968C117.862 74.8769 123.282 74.4839 126.88 74.1642" stroke="#201600" stroke-width="4" stroke-miterlimit="10"></path> </g> </svg> 