<?xml version="1.0" encoding="UTF-8"?> <svg xmlns="http://www.w3.org/2000/svg" width="196" height="196" viewBox="0 0 196 196" fill="none"> <g clip-path="url(#clip0)"> <path d="M116.351 155.294C115.7 155.764 117.172 154.95 117.347 155.023L118.607 154.387L118.07 154.568C119.167 154.028 120.155 153.535 121.063 152.995L120.304 153.512L122.266 152.271L121.13 152.925C122.164 152.212 120.956 152.851 122.355 152.022C122.627 151.879 122.715 151.821 123.991 151.111C124.782 150.586 125.045 150.411 125.772 149.903C125.98 149.777 125.694 150.131 125.835 150.075C127.457 148.72 126.923 149.176 128.656 147.721C128.477 147.89 128.494 147.955 128.57 147.917L128.92 147.546C129.383 147.213 129.459 147.175 129.432 147.268C130.812 146.237 128.923 147.493 130.547 146.275C130.423 146.395 130.499 146.357 130.244 146.564C131.944 144.981 132.839 144.134 134.538 142.55C135.03 142.261 133.361 143.699 133.888 143.348C135.802 141.534 137.492 139.263 139.15 137.329C139.337 136.864 140.327 135.853 140.994 134.792C140.808 135.067 140.81 135.204 140.857 135.122C141.958 133.684 143.037 132.097 144.326 129.677L144.201 129.987C144.753 129.078 145.709 127.611 146.226 126.573C146.331 126.251 146.621 125.655 146.4 125.991C148.277 122.928 149.19 119.799 150.436 116.89C150.308 117.253 150.161 117.741 150.263 117.472C150.537 116.621 150.925 115.808 151.139 114.922C151.012 115.095 151.002 115.253 150.759 115.767C150.958 114.954 151.099 114.381 151.184 114.048C150.909 115.226 151.297 114.086 151.476 113.589C151.428 113.671 151.406 113.522 151.406 113.522C151.92 112.209 151.318 113.252 151.938 111.428L151.952 111.545C152.12 110.878 152.342 110.024 152.484 109.451C152.649 109.165 152.321 110.203 152.37 110.258C152.698 109.22 152.651 108.129 152.973 107.197C152.869 107.846 152.82 108.118 152.716 108.767C153.033 107.749 153.031 107.612 153.206 106.84L153.191 106.913L153.598 105.129L153.475 105.577C153.53 104.217 153.963 102.857 153.974 101.008C153.925 102.781 154.018 101.307 154.125 101.45C154.207 100.979 154.315 100.278 154.322 100.5C154.334 99.6341 154.548 99.0757 154.552 97.8501C154.587 97.7887 154.652 96.9259 154.724 97.1307C154.721 96.0105 154.675 97.4027 154.609 97.2827C154.549 95.5569 154.844 93.2172 154.727 90.7484C154.551 89.3647 154.373 87.8435 154.223 86.5563C154.209 86.4393 154.216 86.334 154.202 86.217C154.234 85.8806 154.343 86.8168 154.343 86.8168C154.307 85.8953 154.269 85.164 154.121 84.342C154.131 84.5116 154.107 84.5525 154.05 84.4647C154.004 84.0288 153.893 83.6104 153.835 83.195L154.095 84.2454C154.07 84.1488 154.097 84.0553 154.071 83.9587C154.142 84.1636 154.135 83.9412 154.123 83.6341C153.984 82.8442 153.915 83.1044 153.792 82.0513C153.863 82.2561 153.988 82.6014 154.048 82.8267C153.876 82.0456 153.629 80.7846 153.458 80.0034C153.474 79.7402 153.643 80.574 153.748 80.9076C153.631 80.2669 153.471 79.4652 153.333 78.8128C153.479 79.4974 153.485 79.9099 153.449 79.9712L153.315 79.2662C153.236 80.0119 153.812 82.063 154.028 83.4702L153.837 83.0049C153.325 79.4358 152.589 75.9279 151.471 72.4722C151.462 72.44 151.433 72.3961 151.416 72.3317C151.628 72.4812 151.94 72.8793 151.256 70.8749L150.588 69.4526L150.506 69.0781C150.432 68.9259 150.36 68.7211 150.286 68.5689C150.284 68.4314 150.225 68.2061 150.116 67.9252L149.229 66.6489C149.198 66.4675 149.667 67.2022 149.199 66.2774C148.784 65.6831 149.41 66.9445 148.8 65.9376C148.496 65.244 148.656 65.3905 148.174 64.6762C148.14 64.5475 148.267 64.7027 148.449 64.9983C148.049 64.3309 147.414 63.2275 147.072 62.9755C146.684 62.2877 145.532 60.859 145.693 60.8153C145.341 60.3937 144.546 59.4714 144.33 59.2372C145.328 60.0866 142.582 57.2462 142.954 57.3519C142.249 56.6988 140.579 54.8074 139.235 53.7587C139.366 53.8612 139.476 53.952 139.565 54.0311C139.21 53.6621 138.707 53.1263 138.282 52.6899C138.113 52.7014 137.008 51.7086 136.285 51.3188C135.432 50.4988 136.938 51.6413 136.728 51.3017C136.71 51.4275 135.056 50.1181 135.298 50.4489C134.653 49.831 134.719 49.951 134.428 49.5646C134.195 49.5935 133.765 49.0724 133.115 48.6973C132.092 47.8888 132.925 48.3694 131.719 47.6456C131.177 47.2238 132.262 47.8773 132.262 47.8773C131.038 47.0891 131.625 47.6191 131.318 47.4959C129.85 46.567 130.698 46.9746 130.238 46.5997C129.588 46.2245 128.216 45.4595 127.859 45.2807C127.81 45.2251 127.688 45.1547 127.842 45.2163C125.639 44.1081 126.373 44.4775 123.619 43.1055C123.558 43.0703 123.488 43.003 123.488 43.003C123.402 42.8712 124.635 43.5015 123.138 42.7188L123.488 43.003C123.647 43.1494 123.653 43.2342 123.588 43.2517C123.02 42.9234 122.47 42.797 122.291 42.6389C122.659 42.7972 122.692 42.7885 122.878 42.8414L122.23 42.6037C121.725 42.258 123.092 42.9381 123.14 42.8563C121.949 42.3869 120.502 41.7974 119.538 41.4043C119.382 41.2052 121.722 42.3106 120.541 41.6833L121.972 42.346C120.94 41.6955 122.852 42.7448 121.913 42.1207C119.915 41.2673 119.874 41.2438 117.864 40.4108C117.408 40.3108 117.971 40.5543 117.514 40.4543C114.683 39.6379 115.422 39.4369 113.319 38.9051C112.746 38.8196 112.536 38.8077 111.056 38.4169L111.604 38.4059C109.655 37.9356 110.43 38.3285 108.404 37.7587C108.791 37.7913 109.951 38.0793 109.652 37.9883C108.353 37.5656 108.683 37.838 107.676 37.6116L107.497 37.4535C105.411 36.986 103.008 36.8809 100.674 36.5155C100.811 36.5127 101.21 36.5249 100.661 36.3985C97.6457 36.3219 94.2566 36.0021 91.3467 36.2591L90.241 36.4392C89.9873 36.4564 89.7573 36.4328 90.0346 36.3746C88.9067 36.4055 89.9788 36.4242 89.4361 36.5201C88.7919 36.5574 88.5737 36.5133 88.988 36.4524C87.0184 36.8157 83.348 37.4521 81.3075 37.9382L81.6963 37.7807C80.1021 38.1972 79.9571 38.4954 78.4508 38.8534L78.7314 38.7426C75.2541 39.6541 71.6509 41.3933 69.1309 42.4756C68.7288 42.8437 65.9367 44.069 65.8238 44.3584C64.0155 45.3333 64.5191 45.0238 62.0131 46.5507C61.3541 46.9887 61.0957 47.2487 60.3304 47.8709L60.261 47.8035L59.2982 48.7209L58.678 49.0448L57.9887 49.629C58.2759 49.4129 58.6274 49.1793 58.5919 49.2407C57.5243 50.1521 55.8482 51.367 55.8482 51.367L53.5427 53.7189C53.5697 53.6254 53.9632 53.2251 54.2571 52.9037C53.058 54.2303 53.9529 53.0554 52.845 54.271C53.0325 54.1337 52.8029 54.4376 52.8029 54.4376C52.1694 54.9722 51.0246 56.4392 50.1364 57.5088L50.246 57.272C48.5622 59.1099 47.1564 61.5448 45.6524 63.8684C46.1689 63.0208 46.1641 63.2635 45.7709 63.9914L45.5243 64.231C45.3253 64.7163 45.9699 63.5061 45.5077 64.4942C44.9879 65.3945 45.0518 65.0494 45.3183 64.494L44.7616 65.6458C44.7058 65.6955 44.8273 65.4382 44.8339 65.3329C44.635 65.8182 43.6744 67.2006 43.4182 67.9258L43.3624 67.9754C42.273 70.5657 41.7078 71.6853 40.9308 73.8285C41.0002 73.8958 40.7052 74.735 40.5369 75.4017C39.9536 76.9747 39.2876 78.6909 38.8469 80.6735C38.539 82.0508 38.8203 81.0947 38.7077 81.7117C38.608 81.7906 38.1063 83.7381 38.3182 82.7145C37.7697 85.0715 37.7586 85.7471 37.2547 88.73C37.3592 88.4084 37.4349 88.0429 37.4334 88.233C37.3563 88.7887 37.1761 89.4758 37.1506 89.3793L37.1606 89.2213C36.8314 92.6052 36.0687 97.0211 36.2021 99.7444L36.212 99.5864C36.1844 100.525 36.1888 101.455 36.2457 102.389C36.2387 103.667 36.1788 101.613 36.1394 102.573C36.317 105.595 36.111 107.358 36.3979 109.815C36.0535 111.772 37.1176 116.588 37.5755 119.171L37.6175 119.004C37.8077 119.66 37.7453 119.815 37.8406 120.306C37.8675 120.213 37.7501 119.572 37.8723 119.97C39.2196 125.467 41.8571 131.028 45.4674 135.513C46.7275 137.223 46.3849 136.316 48.068 138.324L47.4773 137.847C50.3995 140.898 53.5922 143.996 57.0596 146.244C56.8363 146.115 56.8127 146.156 56.4911 145.915C57.1597 146.492 59.1193 147.787 59.1751 147.738C59.6879 148.116 59.2615 147.869 59.5712 148.13C60.2635 148.666 61.5154 149.171 61.8742 149.487C61.9233 149.543 61.639 149.379 61.5172 149.308C62.0282 149.549 63.7999 150.653 63.3801 150.302C64.673 151.158 65.9859 151.697 67.0975 152.257C67.8706 152.513 69.4747 153.439 69.7604 153.413C69.5611 153.57 72.2137 154.556 73.1643 154.832C72.8328 154.75 73.9426 155.172 73.5468 155.108C74.5956 155.495 75.5633 155.835 75.4042 155.689C77.2973 156.536 79.4113 156.72 80.4587 157.298C83.7079 158 86.7186 158.647 89.7237 158.882C89.7001 158.923 89.4583 158.92 89.164 158.913C90.6286 159.05 92.0237 159.119 93.8316 159.317C94.5656 159.358 93.4056 159.398 93.1756 159.374C96.0401 159.337 98.7037 159.647 101.224 159.22L100.682 159.316C101.169 159.269 101.845 159.223 101.796 159.168L101.297 159.234C100.499 159.21 103.279 158.851 103.346 158.781C102.516 159.093 105.833 158.552 104.533 158.975C104.855 158.888 105.272 158.774 105.179 158.748C105.658 158.669 105.827 158.658 105.333 158.809C106.562 158.509 107.161 158.364 108.068 158.151C108.068 158.151 107.756 158.271 107.583 158.335C108.369 158.052 109.215 157.995 110.526 157.551C110.45 157.589 110.619 157.578 110.222 157.703C112.399 156.887 114.025 156.462 116.351 155.294Z" fill="#F99797"></path> <path d="M130.63 64.0249C149.269 84.0284 148.184 115.333 128.208 133.946C108.233 152.56 76.9293 151.434 58.2902 131.431C39.6512 111.427 40.7365 80.1222 60.7122 61.5091C80.688 42.8959 111.991 44.0214 130.63 64.0249Z" stroke="white"></path> <path d="M64.6985 104.814L64.6465 104.844L64.5265 104.637C64.1665 104.013 64.024 103.43 64.1154 102.892C64.2068 102.355 64.5009 101.88 64.9813 101.464L66.7978 99.9304C66.9816 99.7689 67.0135 99.5842 66.8995 99.3867C66.8395 99.2828 66.75 99.2236 66.6352 99.1929C66.5161 99.1785 66.3985 99.191 66.2738 99.263C66.1699 99.323 66.0364 99.4278 65.8881 99.5549L64.4273 100.745C63.7511 101.301 63.3387 101.955 63.211 102.694C63.0729 103.439 63.2551 104.234 63.7471 105.087L64.9471 107.165C65.3311 107.83 65.8777 108.249 66.6138 108.42C67.3454 108.607 68.0638 108.483 68.7913 108.063C69.5291 107.637 70.0119 107.081 70.2231 106.391C70.4344 105.701 70.3674 105.033 69.9954 104.389L69.7254 103.921C69.3594 103.287 68.8144 102.895 68.1111 102.733C67.4079 102.571 66.6791 102.701 65.9413 103.127C65.6295 103.307 65.3805 103.548 65.1675 103.851C64.9545 104.154 64.8171 104.372 64.7819 104.503C64.7468 104.634 64.7101 104.738 64.6985 104.814ZM69.216 104.839C69.462 105.265 69.4997 105.714 69.3559 106.185C69.2018 106.662 68.8701 107.048 68.3713 107.336C67.8828 107.618 67.3875 107.696 66.875 107.576C66.3624 107.456 65.9845 107.162 65.7265 106.715L65.5165 106.351C65.2765 105.936 65.2224 105.482 65.3766 105.005C65.5203 104.534 65.852 104.148 66.3613 103.854C66.8601 103.566 67.3598 103.472 67.8499 103.577C68.3297 103.688 68.706 103.956 68.946 104.371L69.216 104.839ZM74.8703 104.554C75.4731 104.206 75.9235 103.738 76.1948 103.151C76.466 102.565 76.5267 102.142 76.3767 101.883C76.3047 101.758 76.2091 101.688 76.0987 101.641C75.984 101.61 75.8768 101.617 75.7729 101.677C75.6274 101.761 75.5535 101.873 75.5512 102.013C75.4463 102.863 75.0739 103.466 74.4503 103.826C73.9411 104.12 73.4414 104.215 72.9617 104.104C72.4715 103.999 72.1116 103.735 71.8656 103.309L71.7456 103.101L75.4868 100.941C75.5908 100.881 75.6559 100.802 75.6867 100.687C75.713 100.589 75.7006 100.472 75.6406 100.368L75.3106 99.796C74.9506 99.1725 74.4159 98.7745 73.7067 98.602C73.0034 98.4399 72.2851 98.5637 71.5784 98.9717C70.8613 99.3857 70.4053 99.9399 70.1941 100.63C69.9888 101.33 70.0662 101.992 70.4262 102.616L71.0862 103.759C71.4582 104.403 71.9928 104.802 72.6961 104.964C73.3993 105.126 74.1221 104.986 74.8703 104.554ZM71.2056 102.166C70.9656 101.75 70.9115 101.297 71.0553 100.826C71.199 100.355 71.5099 99.9811 71.9984 99.6991C72.4764 99.4231 72.9657 99.3346 73.4455 99.4456C73.9253 99.5566 74.2912 99.8303 74.5312 100.246L74.6512 100.454L71.3256 102.374L71.2056 102.166ZM79.8564 100.705C79.2224 101.071 78.514 101.092 77.7356 100.752C77.6028 100.69 77.4689 100.698 77.3338 100.776C77.2299 100.836 77.1603 100.931 77.14 101.04C77.1152 101.165 77.1381 101.277 77.2101 101.401C77.3601 101.661 77.7567 101.82 78.4 101.878C79.0432 101.936 79.6632 101.786 80.2764 101.432C81.0454 100.988 81.5478 100.49 81.7982 99.9163C82.0443 99.3585 82.0346 98.8376 81.7586 98.3596C81.6386 98.1517 81.4726 97.9843 81.2935 97.866C81.1143 97.7477 80.9488 97.677 80.7969 97.6539C80.645 97.6307 80.4782 97.63 80.3071 97.6456C80.1257 97.6673 80.0141 97.6901 79.9562 97.7097L79.8135 97.7505L79.7775 97.6882L79.8694 97.6074C79.9361 97.555 80.0013 97.4758 80.0752 97.3639C80.1551 97.2623 80.2126 97.1459 80.2746 97.0132C80.3365 96.8805 80.3596 96.7285 80.3484 96.541C80.3431 96.3639 80.2947 96.1841 80.1927 96.0074C79.9647 95.6125 79.5692 95.3835 78.9943 95.2998C78.4254 95.2264 77.8054 95.3765 77.1403 95.7605C76.5479 96.1025 76.1331 96.536 75.8794 97.0566C75.6317 97.5876 75.5679 97.957 75.6999 98.1856C75.7719 98.3103 75.8631 98.3962 75.9778 98.427C76.0882 98.4741 76.1997 98.4513 76.3036 98.3913C76.4075 98.3313 76.4815 98.2193 76.5254 98.0554C76.6443 97.3494 76.9887 96.818 77.5603 96.488C77.9968 96.236 78.3773 96.1271 78.696 96.151C79.0206 96.1853 79.2473 96.2899 79.3613 96.4874C79.6853 97.0486 79.384 97.5828 78.4903 98.0988L77.8668 98.4588C77.6589 98.5788 77.621 98.7531 77.753 98.9817C77.885 99.2103 78.0489 99.2543 78.2568 99.1343L78.7764 98.8343C79.3064 98.5283 79.7657 98.3878 80.1439 98.4189C80.5221 98.4499 80.7832 98.5902 80.9272 98.8396C81.0772 99.0994 81.0681 99.3956 80.9059 99.7387C80.7437 100.082 80.3864 100.399 79.8564 100.705ZM82.4629 97.1908C82.8349 97.8351 83.3696 98.2331 84.0728 98.3952C84.7761 98.5573 85.4988 98.4172 86.2471 97.9852C86.9849 97.5592 87.4677 97.0033 87.6789 96.3132C87.8902 95.6231 87.8232 94.9551 87.4512 94.3108L86.7912 93.1677C86.4252 92.5337 85.8802 92.1417 85.1769 91.9796C84.4737 91.8176 83.7449 91.9473 83.0071 92.3733C82.2588 92.8053 81.7821 93.3716 81.5708 94.0616C81.3596 94.7517 81.4369 95.4137 81.8029 96.0477L82.4629 97.1908ZM86.6718 94.7608C86.9178 95.1869 86.9555 95.6362 86.8118 96.1072C86.6576 96.5842 86.3259 96.9697 85.8271 97.2577C85.3179 97.5517 84.8182 97.6462 84.3384 97.5352C83.8482 97.4302 83.4883 97.1669 83.2423 96.7408L82.5823 95.5977C82.3423 95.182 82.2882 94.7282 82.4424 94.2513C82.5862 93.7803 82.9179 93.3948 83.4271 93.1008C83.9259 92.8128 84.4256 92.7183 84.9158 92.8233C85.3955 92.9342 85.7718 93.202 86.0118 93.6177L86.6718 94.7608ZM91.9311 87.9139C91.8711 87.8099 91.7815 87.7508 91.6668 87.7201C91.5476 87.7057 91.4301 87.7181 91.3054 87.7901L87.3563 90.0701C87.2524 90.1301 87.1828 90.2257 87.1565 90.3241C87.1257 90.4388 87.1426 90.5399 87.2026 90.6439L89.8726 95.2684C89.9326 95.3724 90.0177 95.4479 90.1265 95.4682C90.2412 95.499 90.3528 95.4762 90.4671 95.4102C90.5814 95.3442 90.6569 95.259 90.6877 95.1442C90.7244 95.0399 90.712 94.9224 90.652 94.8184L88.192 90.5576L91.3616 88.7276L93.8216 92.9884C93.8816 93.0924 93.9668 93.1679 94.0756 93.1882C94.1903 93.219 94.3018 93.1962 94.4162 93.1302C94.5305 93.0642 94.606 92.979 94.6368 92.8642C94.6735 92.7599 94.6611 92.6424 94.6011 92.5384L91.9311 87.9139ZM97.831 90.3272C97.3841 90.5852 97.0036 90.6941 96.6729 90.6494C96.3483 90.6151 96.102 90.4525 95.94 90.1719C95.784 89.9017 95.7663 89.6071 95.9033 89.2924C96.0464 88.9881 96.3561 88.6846 96.8549 88.3966L98.5177 87.4366L98.7877 87.9043C99.0097 88.2888 99.0354 88.7173 98.8693 89.1735C98.6987 89.6461 98.3506 90.0272 97.831 90.3272ZM95.3228 85.2628C94.7304 85.6048 94.3156 86.0383 94.0619 86.5589C93.8142 87.0899 93.7503 87.4593 93.8823 87.688C93.9543 87.8127 94.0455 87.8986 94.1603 87.9293C94.2706 87.9765 94.3822 87.9537 94.4861 87.8937C94.6004 87.8277 94.6743 87.7157 94.7078 87.5578C94.8268 86.8517 95.1712 86.3203 95.7428 85.9903C96.1585 85.7503 96.5794 85.6874 97.016 85.7956C97.4422 85.9098 97.7797 86.1584 98.0077 86.5533L98.0977 86.7091L96.4349 87.6692C95.6867 88.1012 95.2051 88.587 95.0006 89.1208C94.7857 89.6606 94.8266 90.1635 95.1086 90.6519C95.3966 91.1507 95.8117 91.4377 96.3658 91.5334C96.9199 91.6292 97.5443 91.4627 98.251 91.0547C98.4692 90.9287 98.6651 90.7879 98.8369 90.6055C98.9984 90.4292 99.1183 90.2768 99.201 90.1321C99.2837 89.9873 99.35 89.8382 99.3939 89.6743C99.4438 89.5208 99.4702 89.4224 99.4774 89.3628C99.4742 89.3093 99.4769 89.2661 99.4857 89.2333L99.5377 89.2033L99.7477 89.567C99.8077 89.671 99.8929 89.7465 100.002 89.7668C100.116 89.7976 100.228 89.7748 100.342 89.7088C100.457 89.6428 100.532 89.5576 100.563 89.4428C100.6 89.3385 100.587 89.221 100.527 89.117L98.7871 86.1033C98.4391 85.5005 97.9329 85.1277 97.2772 84.952C96.6171 84.7927 95.9671 84.8908 95.3228 85.2628ZM100.982 84.9746C100.742 84.5589 100.688 84.1052 100.842 83.6282C100.986 83.1572 101.318 82.7717 101.827 82.4777C102.388 82.1537 103.02 82.1211 103.702 82.3652C103.845 82.4211 103.979 82.4131 104.103 82.3411C104.207 82.2811 104.272 82.2019 104.297 82.0768C104.318 81.968 104.299 81.8401 104.227 81.7154C104.095 81.4867 103.743 81.3573 103.16 81.3063C102.582 81.2658 101.989 81.4143 101.407 81.7503C100.658 82.1823 100.182 82.7485 99.9705 83.4386C99.7592 84.1287 99.8366 84.7907 100.203 85.4246L100.863 86.5678C101.235 87.2121 101.769 87.6101 102.472 87.7722C103.176 87.9343 103.898 87.7941 104.647 87.3621C105.249 87.0141 105.7 86.5462 105.971 85.9601C106.242 85.3739 106.303 84.9509 106.153 84.6911C106.081 84.5664 105.985 84.4969 105.875 84.4497C105.76 84.419 105.653 84.4254 105.549 84.4854C105.414 84.5634 105.34 84.6754 105.328 84.8213C105.223 85.6717 104.85 86.2746 104.227 86.6346C103.718 86.9286 103.218 87.0232 102.738 86.9122C102.248 86.8072 101.888 86.5438 101.642 86.1178L100.982 84.9746ZM109.834 77.5084C109.774 77.4045 109.684 77.3453 109.57 77.3146C109.461 77.2942 109.343 77.3067 109.229 77.3727C109.115 77.4387 109.045 77.5342 109.008 77.6386C108.978 77.7533 108.994 77.8545 109.054 77.9584L110.194 79.9329L107.025 81.7629L105.885 79.7884C105.825 79.6845 105.735 79.6253 105.62 79.5946C105.512 79.5742 105.394 79.5867 105.28 79.6527C105.166 79.7187 105.096 79.8142 105.059 79.9186C105.029 80.0333 105.045 80.1345 105.105 80.2384L107.805 84.9149C107.865 85.0188 107.951 85.0944 108.059 85.1147C108.174 85.1455 108.286 85.1227 108.4 85.0567C108.514 84.9907 108.59 84.9055 108.62 84.7907C108.657 84.6864 108.645 84.5688 108.585 84.4649L107.445 82.4904L110.614 80.6604L111.754 82.6349C111.814 82.7388 111.9 82.8144 112.008 82.8347C112.123 82.8655 112.235 82.8427 112.349 82.7767C112.463 82.7107 112.539 82.6255 112.57 82.5107C112.606 82.4064 112.594 82.2888 112.534 82.1849L109.834 77.5084ZM112.919 79.6068C113.291 80.2511 113.826 80.6492 114.529 80.8112C115.232 80.9733 115.955 80.8332 116.703 80.4012C117.441 79.9752 117.924 79.4193 118.135 78.7292C118.347 78.0392 118.28 77.3711 117.908 76.7268L117.248 75.5837C116.882 74.9497 116.337 74.5577 115.633 74.3956C114.93 74.2336 114.201 74.3633 113.463 74.7893C112.715 75.2213 112.238 75.7876 112.027 76.4776C111.816 77.1677 111.893 77.8297 112.259 78.4637L112.919 79.6068ZM117.128 77.1768C117.374 77.6029 117.412 78.0522 117.268 78.5232C117.114 79.0002 116.782 79.3857 116.283 79.6737C115.774 79.9677 115.275 80.0622 114.795 79.9512C114.305 79.8462 113.945 79.5829 113.699 79.1568L113.039 78.0137C112.799 77.598 112.745 77.1442 112.899 76.6673C113.043 76.1963 113.374 75.8108 113.883 75.5168C114.382 75.2288 114.882 75.1343 115.372 75.2393C115.852 75.3502 116.228 75.618 116.468 76.0337L117.128 77.1768ZM70.4281 122.36L70.4801 122.33L72.6101 126.02C72.6701 126.123 72.7553 126.199 72.864 126.219C72.9787 126.25 73.0903 126.227 73.215 126.155C73.3189 126.095 73.3944 126.01 73.4252 125.895C73.4619 125.791 73.4495 125.673 73.3895 125.57L70.6895 120.893C70.6295 120.789 70.5399 120.73 70.4356 120.693C70.3268 120.673 70.2197 120.679 70.1158 120.739C69.9079 120.859 69.794 121.022 69.7681 121.217L68.8704 126.862L68.8185 126.892L66.6885 123.203C66.6285 123.099 66.5389 123.04 66.4241 123.009C66.3154 122.989 66.1979 123.001 66.0836 123.067C65.9692 123.133 65.8997 123.229 65.863 123.333C65.8322 123.448 65.849 123.549 65.909 123.653L68.609 128.33C68.669 128.433 68.7542 128.509 68.863 128.529C68.9673 128.566 69.0789 128.543 69.1828 128.483C69.3802 128.369 69.5001 128.217 69.5304 128.005L70.4281 122.36ZM79.4939 116.225L79.5115 116.16C79.5203 116.127 79.5274 116.068 79.5182 116.004C79.509 115.94 79.4998 115.876 79.4698 115.824C79.4098 115.72 79.3202 115.661 79.2159 115.624C79.1071 115.604 79 115.61 78.8961 115.67C78.7921 115.73 78.7182 115.842 78.6743 116.006L77.1825 120.262L75.8325 117.924C75.7725 117.82 75.6829 117.761 75.5682 117.73C75.4594 117.71 75.3419 117.722 75.2276 117.788C75.1133 117.854 75.0437 117.95 75.007 118.054C74.9762 118.169 74.9931 118.27 75.0531 118.374L77.7531 123.05C77.8131 123.154 77.8982 123.23 78.007 123.25C78.1217 123.281 78.2333 123.258 78.3476 123.192C78.4619 123.126 78.5374 123.041 78.5682 122.926C78.6049 122.822 78.5925 122.704 78.5325 122.6L77.7225 121.197L78.2737 119.632L81.6662 121.068L81.7214 121.092C81.7602 121.111 81.8094 121.124 81.8733 121.115C81.9373 121.106 82.0057 121.08 82.068 121.044C82.1927 120.972 82.2683 120.887 82.3094 120.766C82.3461 120.662 82.3337 120.544 82.2737 120.44C82.2137 120.336 82.1017 120.262 81.9378 120.218L78.5752 118.834L79.4939 116.225ZM81.984 118.252C82.356 118.896 82.8906 119.294 83.5939 119.456C84.2972 119.618 85.0199 119.478 85.7682 119.046C86.506 118.62 86.9888 118.064 87.2 117.374C87.4113 116.684 87.3443 116.016 86.9723 115.372L86.3123 114.229C85.9463 113.595 85.4013 113.203 84.698 113.041C83.9948 112.879 83.266 113.008 82.5282 113.434C81.7799 113.866 81.3032 114.433 81.0919 115.123C80.8806 115.813 80.958 116.475 81.324 117.109L81.984 118.252ZM86.1929 115.822C86.4389 116.248 86.4766 116.697 86.3328 117.168C86.1787 117.645 85.847 118.031 85.3482 118.319C84.8389 118.613 84.3392 118.707 83.8595 118.596C83.3693 118.491 83.0094 118.228 82.7634 117.802L82.1034 116.659C81.8634 116.243 81.8093 115.789 81.9635 115.312C82.1072 114.841 82.4389 114.456 82.9482 114.162C83.447 113.874 83.9467 113.779 84.4368 113.884C84.9166 113.995 85.2929 114.263 85.5329 114.679L86.1929 115.822ZM92.3625 114.2C92.6223 114.05 92.739 113.844 92.7229 113.576L92.4898 109.692L92.5418 109.662L95.2353 112.888C95.4493 113.138 95.6624 113.195 95.891 113.063C95.9949 113.003 96.0601 112.924 96.0848 112.799C96.1052 112.69 96.0867 112.562 96.0147 112.438C95.9967 112.406 95.9159 112.314 95.7828 112.156L92.5653 108.263C92.3857 108.048 92.1475 108.019 91.8357 108.199C91.6071 108.331 91.5024 108.558 91.5261 108.863L91.7833 113.149L91.7313 113.179L88.1486 110.813C87.8859 110.646 87.6372 110.623 87.419 110.749C87.1072 110.929 87.0025 111.156 87.1093 111.413L88.8719 116.146C88.9323 116.346 88.9819 116.456 88.9999 116.488C89.0719 116.612 89.1631 116.698 89.2778 116.729C89.3882 116.776 89.4997 116.753 89.6037 116.693C89.8219 116.567 89.879 116.354 89.7793 116.038L88.3329 112.092L88.3848 112.062L91.6317 114.206C91.8557 114.354 92.0923 114.356 92.3625 114.2ZM101.267 109.544L101.319 109.514L101.504 109.546C101.629 109.57 101.806 109.565 102.05 109.507C102.289 109.466 102.526 109.371 102.754 109.239C103.357 108.891 103.736 108.395 103.9 107.719C104.059 107.059 103.949 106.388 103.565 105.723L102.965 104.684C102.581 104.019 102.061 103.598 101.404 103.396C100.742 103.21 100.117 103.279 99.5143 103.627C99.2857 103.759 99.0914 103.927 98.9256 104.12C98.7657 104.323 98.6666 104.463 98.6283 104.541C98.5959 104.629 98.568 104.7 98.5592 104.733L98.5072 104.763L97.3072 102.685C97.2472 102.581 97.1577 102.522 97.0429 102.491C96.9342 102.471 96.8166 102.483 96.7023 102.549C96.588 102.615 96.5185 102.711 96.4817 102.815C96.451 102.93 96.4678 103.031 96.5278 103.135L97.7278 105.213L97.6758 105.243L97.4911 105.211C97.372 105.197 97.1845 105.208 96.945 105.249C96.7012 105.307 96.4694 105.385 96.2407 105.517C95.638 105.865 95.2547 106.378 95.0954 107.038C94.9318 107.714 95.0463 108.369 95.4303 109.034L96.0303 110.073C96.4143 110.738 96.9298 111.175 97.5914 111.361C98.2487 111.563 98.878 111.477 99.4807 111.129C99.7094 110.997 99.9096 110.84 100.069 110.637C100.235 110.444 100.334 110.304 100.367 110.216C100.405 110.138 100.423 110.073 100.436 110.024L100.488 109.994L101.748 112.176C101.808 112.28 101.893 112.355 102.002 112.376C102.116 112.407 102.228 112.384 102.342 112.318C102.457 112.252 102.532 112.167 102.563 112.052C102.6 111.947 102.587 111.83 102.527 111.726L101.267 109.544ZM99.8304 104.415C100.246 104.175 100.683 104.116 101.122 104.251C101.56 104.386 101.921 104.677 102.185 105.134L102.785 106.173C103.055 106.641 103.126 107.099 103.024 107.546C102.921 107.993 102.646 108.332 102.23 108.572C101.773 108.836 101.321 108.917 100.847 108.816L98.9272 105.491L99.0023 105.309C99.0495 105.198 99.153 105.042 99.298 104.861C99.4491 104.691 99.6225 104.535 99.8304 104.415ZM100.068 109.266L99.9927 109.448C99.9412 109.575 99.8377 109.732 99.6866 109.902C99.5416 110.083 99.3621 110.228 99.1646 110.342C98.7386 110.588 98.3072 110.657 97.869 110.522C97.4308 110.387 97.0797 110.091 96.8097 109.623L96.2097 108.584C95.9457 108.127 95.8648 107.674 95.967 107.227C96.0692 106.78 96.3386 106.431 96.7646 106.185C97.2115 105.927 97.68 105.85 98.1478 105.941L100.068 109.266ZM104.737 105.115C105.109 105.76 105.644 106.158 106.347 106.32C107.051 106.482 107.773 106.342 108.522 105.91C109.259 105.484 109.742 104.928 109.953 104.238C110.165 103.548 110.098 102.88 109.726 102.235L109.066 101.092C108.7 100.458 108.155 100.066 107.451 99.904C106.748 99.7419 106.019 99.8717 105.282 100.298C104.533 100.73 104.057 101.296 103.845 101.986C103.634 102.676 103.711 103.338 104.077 103.972L104.737 105.115ZM108.946 102.685C109.192 103.111 109.23 103.561 109.086 104.032C108.932 104.509 108.6 104.894 108.102 105.182C107.592 105.476 107.093 105.571 106.613 105.46C106.123 105.355 105.763 105.091 105.517 104.665L104.857 103.522C104.617 103.106 104.563 102.653 104.717 102.176C104.861 101.705 105.192 101.319 105.702 101.025C106.2 100.737 106.7 100.643 107.19 100.748C107.67 100.859 108.046 101.126 108.286 101.542L108.946 102.685ZM112.039 97.3661C112.517 97.0901 113.007 97.0016 113.486 97.1126C113.966 97.2236 114.332 97.4973 114.572 97.913L115.232 99.0561C115.478 99.4822 115.526 99.9256 115.382 100.397C115.239 100.868 114.917 101.247 114.439 101.523C113.951 101.805 113.472 101.888 112.992 101.777C112.512 101.666 112.153 101.402 111.907 100.976L111.187 99.7291C110.971 99.3549 110.94 98.9428 111.09 98.4822C111.24 98.0216 111.561 97.6421 112.039 97.3661ZM111.619 96.6386C111.411 96.7586 111.242 96.8978 111.091 97.0682C110.94 97.2385 110.82 97.3909 110.748 97.5296C110.676 97.6684 110.62 97.8115 110.57 97.965C110.526 98.129 110.5 98.2273 110.503 98.2809C110.496 98.3405 110.487 98.3732 110.488 98.4L110.437 98.43L110.227 98.0663C110.167 97.9624 110.077 97.9032 109.962 97.8725C109.853 97.8521 109.736 97.8646 109.622 97.9306C109.507 97.9966 109.438 98.0921 109.401 98.1965C109.37 98.3112 109.387 98.4124 109.447 98.5163L113.437 105.427C113.497 105.531 113.582 105.607 113.691 105.627C113.806 105.658 113.917 105.635 114.032 105.569C114.146 105.503 114.221 105.418 114.252 105.303C114.283 105.188 114.277 105.081 114.217 104.977L112.747 102.431L112.799 102.401L112.909 102.448C112.97 102.482 113.068 102.509 113.2 102.544C113.331 102.579 113.477 102.592 113.643 102.592C113.806 102.609 113.997 102.582 114.215 102.526C114.432 102.47 114.641 102.376 114.859 102.25C115.566 101.842 116.038 101.293 116.244 100.592C116.455 99.9021 116.377 99.2401 116.011 98.6061L115.351 97.463C114.991 96.8395 114.457 96.4414 113.748 96.269C113.044 96.1069 112.326 96.2306 111.619 96.6386ZM118.058 94.0992L119.824 93.0792C119.928 93.0192 119.994 92.94 120.024 92.8253C120.051 92.7269 120.038 92.6094 119.978 92.5054C119.918 92.4015 119.829 92.3424 119.724 92.3056C119.616 92.2853 119.508 92.2917 119.404 92.3517L115.092 94.8417C114.988 94.9017 114.918 94.9973 114.892 95.0956C114.861 95.2104 114.878 95.3115 114.938 95.4154C114.998 95.5194 115.083 95.5949 115.192 95.6153C115.296 95.652 115.408 95.6292 115.512 95.5692L117.278 94.5492L119.738 98.81C119.798 98.9139 119.884 98.9895 119.992 99.0098C120.107 99.0406 120.219 99.0178 120.343 98.9458C120.447 98.8858 120.523 98.8006 120.553 98.6858C120.59 98.5815 120.578 98.4639 120.518 98.36L118.058 94.0992ZM125.512 89.2414C125.452 89.1375 125.362 89.0783 125.247 89.0476C125.139 89.0272 125.021 89.0396 124.907 89.1056C124.793 89.1716 124.723 89.2672 124.686 89.3716C124.656 89.4863 124.672 89.5875 124.732 89.6914L125.872 91.6659L122.703 93.4959L121.563 91.5214C121.503 91.4175 121.413 91.3583 121.298 91.3276C121.19 91.3072 121.072 91.3196 120.958 91.3856C120.843 91.4516 120.774 91.5472 120.737 91.6516C120.706 91.7663 120.723 91.8675 120.783 91.9714L123.483 96.6479C123.543 96.7518 123.628 96.8274 123.737 96.8477C123.852 96.8785 123.963 96.8556 124.078 96.7896C124.192 96.7236 124.268 96.6385 124.298 96.5237C124.335 96.4194 124.323 96.3018 124.263 96.1979L123.123 94.2234L126.292 92.3934L127.432 94.3679C127.492 94.4718 127.578 94.5474 127.686 94.5677C127.801 94.5985 127.913 94.5756 128.027 94.5096C128.141 94.4436 128.217 94.3585 128.247 94.2437C128.284 94.1394 128.272 94.0218 128.212 93.9179L125.512 89.2414ZM128.597 91.3398C128.969 91.9841 129.504 92.3821 130.207 92.5442C130.91 92.7063 131.633 92.5662 132.381 92.1342C133.119 91.7082 133.602 91.1523 133.813 90.4622C134.024 89.7721 133.957 89.1041 133.585 88.4598L132.925 87.3167C132.559 86.6827 132.014 86.2907 131.311 86.1286C130.608 85.9666 129.879 86.0963 129.141 86.5223C128.393 86.9543 127.916 87.5206 127.705 88.2106C127.494 88.9007 127.571 89.5627 127.937 90.1967L128.597 91.3398ZM132.806 88.9098C133.052 89.3359 133.09 89.7852 132.946 90.2562C132.792 90.7332 132.46 91.1187 131.961 91.4067C131.452 91.7007 130.952 91.7952 130.473 91.6842C129.982 91.5792 129.623 91.3159 129.377 90.8898L128.717 89.7467C128.477 89.331 128.422 88.8772 128.577 88.4003C128.72 87.9293 129.052 87.5438 129.561 87.2498C130.06 86.9618 130.56 86.8673 131.05 86.9723C131.53 87.0832 131.906 87.351 132.146 87.7667L132.806 88.9098Z" fill="white"></path> </g> <defs> <clipPath id="clip0"> <rect width="143.205" height="143.205" fill="white" transform="translate(0 124.019) rotate(-60)"></rect> </clipPath> </defs> </svg> 