<?xml version="1.0" encoding="UTF-8"?> <svg xmlns="http://www.w3.org/2000/svg" width="44" height="29" viewBox="0 0 44 29" fill="none"> <path d="M25.4 29C22.8667 29 21.6 27.7333 21.6 25.2C21.6 23.2 22.5333 20.5333 24.4 17.2C26.2667 14 28.6667 10.8667 31.6 7.8C34.5333 4.73333 37.2667 2.39999 39.8 0.799999C40.4667 0.266665 41.2 0 42 0C42.6667 0 43.1333 0.266665 43.4 0.799999C43.5333 0.933331 43.6 1.13333 43.6 1.39999C43.6 2.2 42.8667 3.26667 41.4 4.6C40.4667 5.26666 39 6.66667 37 8.8C35.1333 10.8 33.6667 12.7333 32.6 14.6C32.6 14.8667 32.6667 15.1333 32.8 15.4C32.9333 15.6667 33.0667 15.9333 33.2 16.2C33.4667 16.4667 33.6667 16.8 33.8 17.2C33.9333 17.6 34.0667 18 34.2 18.4C34.3333 18.8 34.4 19.4 34.4 20.2C34.4 21.4 33.9333 22.8667 33 24.6C31 27.5333 28.4667 29 25.4 29ZM3.8 29C1.26667 29 0 27.7333 0 25.2C0 23.2 0.933337 20.5333 2.8 17.2C4.66667 14 7.06667 10.8667 10 7.8C12.9333 4.73333 15.6667 2.39999 18.2 0.799999C18.8667 0.266665 19.6 0 20.4 0C21.0667 0 21.5333 0.266665 21.8 0.799999V1.2C21.8 1.6 21.6667 2.13333 21.4 2.8C21.1333 3.33333 20.6 3.93333 19.8 4.6C18.8667 5.26666 17.4 6.66667 15.4 8.8C13.5333 10.8 12.0667 12.7333 11 14.6C11 14.8667 11.0667 15.1333 11.2 15.4C11.3333 15.6667 11.4667 15.9333 11.6 16.2C11.8667 16.4667 12.0667 16.8 12.2 17.2C12.3333 17.6 12.4667 18 12.6 18.4C12.7333 18.8 12.8 19.4 12.8 20.2C12.8 21.4 12.3333 22.8667 11.4 24.6C9.40001 27.5333 6.86667 29 3.8 29Z" fill="white"></path> </svg> 