<?xml version="1.0" encoding="UTF-8"?> <svg xmlns="http://www.w3.org/2000/svg" width="189" height="174" viewBox="0 0 189 174" fill="none"> <g clip-path="url(#clip0)"> <path d="M81.7772 140.967C148.814 125.5 137.5 150 148.67 164C148.67 138.5 149.139 96.087 148.67 73.4881C147.919 37.3334 114.473 20.1309 76.7636 21.2343C39.0792 22.3369 16.8658 45.438 17.6164 81.5927C18.3676 117.771 44.5979 147.344 81.7772 140.967Z" fill="#F99797"></path> <path d="M48.9483 78.2779C49.8683 78.2779 50.6483 78.5579 51.2483 79.1179C51.8483 79.6779 52.1483 80.3779 52.1483 81.1779L52.1483 83.3779C52.1483 84.1979 51.8483 84.8779 51.2483 85.4379C50.6483 85.9979 49.8683 86.2779 48.9483 86.2779C48.0083 86.2779 47.2483 85.9979 46.6483 85.4379C46.0483 84.8779 45.7483 84.1979 45.7483 83.3779L45.7483 80.9779C45.7483 80.2579 46.0483 79.6379 46.6483 79.0979C47.2483 78.5579 48.0283 78.2779 48.9483 78.2779ZM48.9483 76.8779C48.5483 76.8779 48.1883 76.9379 47.8283 77.0579C47.4683 77.1779 47.1683 77.2979 46.9483 77.4379C46.7283 77.5779 46.5283 77.7379 46.3283 77.9179C46.1283 78.1179 46.0083 78.2379 45.9683 78.3179C45.9083 78.3979 45.8683 78.4379 45.8483 78.4779L45.7483 78.4779L45.7483 77.7779C45.7483 77.5779 45.6683 77.4179 45.5283 77.2779C45.3883 77.1579 45.2083 77.0779 44.9883 77.0779C44.7683 77.0779 44.5883 77.1579 44.4483 77.2779C44.3083 77.4179 44.2483 77.5779 44.2483 77.7779L44.2483 91.0779C44.2483 91.2779 44.3083 91.4579 44.4483 91.5779C44.5883 91.7179 44.7683 91.7779 44.9883 91.7779C45.2083 91.7779 45.3883 91.7179 45.5283 91.5779C45.6683 91.4379 45.7483 91.2779 45.7483 91.0779L45.7483 86.1779L45.8483 86.1779L45.9683 86.3379C46.0283 86.4379 46.1483 86.5579 46.3083 86.7179C46.4683 86.8779 46.6683 87.0179 46.9083 87.1579C47.1283 87.3179 47.4283 87.4379 47.7883 87.5379C48.1483 87.6379 48.5283 87.6779 48.9483 87.6779C50.3083 87.6779 51.4483 87.2779 52.3283 86.4379C53.2083 85.6179 53.6483 84.5979 53.6483 83.3779L53.6483 81.1779C53.6483 79.9779 53.2083 78.9579 52.3283 78.1179C51.4483 77.2979 50.3083 76.8779 48.9483 76.8779Z" fill="white"></path> <path d="M59.6577 86.2779C58.7977 86.2779 58.1577 86.1179 57.7177 85.7779C57.2777 85.4579 57.0577 85.0179 57.0577 84.4779C57.0577 83.9579 57.2777 83.5179 57.7377 83.1779C58.1977 82.8579 58.8977 82.6779 59.8577 82.6779L63.0577 82.6779L63.0577 83.5779C63.0577 84.3179 62.7377 84.9579 62.1177 85.4779C61.4777 86.0179 60.6577 86.2779 59.6577 86.2779ZM60.2577 76.8779C59.1177 76.8779 58.1577 77.1579 57.3577 77.6979C56.5577 78.2579 56.1577 78.7379 56.1577 79.1779C56.1577 79.4179 56.2177 79.6179 56.3577 79.7579C56.4777 79.9179 56.6577 79.9779 56.8577 79.9779C57.0777 79.9779 57.2777 79.8779 57.4577 79.6779C58.2177 78.7579 59.1577 78.2779 60.2577 78.2779C61.0577 78.2779 61.7177 78.5379 62.2577 79.0579C62.7777 79.5779 63.0577 80.2179 63.0577 80.9779L63.0577 81.2779L59.8577 81.2779C58.4177 81.2779 57.3177 81.5779 56.5777 82.1779C55.8177 82.7779 55.4577 83.5379 55.4577 84.4779C55.4577 85.4379 55.8177 86.1979 56.5377 86.7979C57.2577 87.3979 58.2977 87.6779 59.6577 87.6779C60.0777 87.6779 60.4777 87.6379 60.8777 87.5179C61.2577 87.3979 61.5577 87.2779 61.7977 87.1379C62.0377 86.9979 62.2577 86.8379 62.4577 86.6379C62.6577 86.4579 62.7777 86.3379 62.8377 86.2579C62.8777 86.1779 62.9177 86.1179 62.9577 86.0779L63.0577 86.0779L63.0577 86.7779C63.0577 86.9779 63.1177 87.1579 63.2577 87.2779C63.3977 87.4179 63.5777 87.4779 63.7977 87.4779C64.0177 87.4779 64.1977 87.4179 64.3377 87.2779C64.4777 87.1579 64.5577 86.9779 64.5577 86.7779L64.5577 80.9779C64.5577 79.8179 64.1377 78.8579 63.3377 78.0579C62.5177 77.2779 61.4977 76.8779 60.2577 76.8779Z" fill="white"></path> <path d="M78.3663 86.6779C78.3663 86.4779 78.2863 86.3179 78.1663 86.1779C78.0263 86.0579 77.8663 85.9779 77.6663 85.9779L76.6663 85.9779L76.6663 77.8779C76.6663 77.6779 76.5863 77.5179 76.4663 77.3779C76.3263 77.2579 76.1663 77.1779 75.9663 77.1779L69.3663 77.1779C69.1663 77.1779 68.9863 77.2579 68.8663 77.3779C68.7263 77.5179 68.6663 77.6779 68.6663 77.8779L68.6663 82.2779C68.6663 82.7579 68.6063 83.1979 68.5063 83.6179C68.4063 84.0579 68.2863 84.3979 68.1663 84.6579C68.0463 84.9379 67.9063 85.1779 67.7463 85.3979C67.5863 85.6379 67.4663 85.7779 67.4063 85.8379C67.3463 85.9179 67.3063 85.9579 67.2663 85.9779L66.7663 85.9779C66.5663 85.9779 66.3863 86.0579 66.2663 86.1779C66.1263 86.3179 66.0663 86.4779 66.0663 86.6779L66.0663 89.4779C66.0663 89.6779 66.1263 89.8579 66.2663 89.9779C66.4063 90.1179 66.5863 90.1779 66.8063 90.1779C67.0263 90.1779 67.2063 90.1179 67.3463 89.9779C67.4863 89.8579 67.5663 89.6779 67.5663 89.4779L67.5663 87.3779L76.8663 87.3779L76.8663 89.4779C76.8663 89.6779 76.9263 89.8579 77.0663 89.9779C77.2063 90.1179 77.3863 90.1779 77.6263 90.1779C77.8263 90.1779 78.0063 90.1179 78.1463 89.9779C78.2863 89.8579 78.3663 89.6779 78.3663 89.4779L78.3663 86.6779ZM70.1663 78.5779L75.1663 78.5779L75.1663 85.9779L68.8663 85.9779L68.8663 85.8779L69.1863 85.5379C69.3863 85.3179 69.6063 84.8979 69.8263 84.2979C70.0463 83.6979 70.1663 83.0379 70.1663 82.2779L70.1663 78.5779Z" fill="white"></path> <path d="M80.0569 83.3779C80.0569 84.6179 80.4969 85.6379 81.3769 86.4579C82.2569 87.2779 83.4169 87.6779 84.8569 87.6779C86.2769 87.6779 87.4369 87.2779 88.3169 86.4579C89.1969 85.6379 89.6569 84.6179 89.6569 83.3779L89.6569 81.1779C89.6569 79.9579 89.1969 78.9379 88.3169 78.1179C87.4369 77.2979 86.2769 76.8779 84.8569 76.8779C83.4169 76.8779 82.2569 77.2979 81.3769 78.1179C80.4969 78.9379 80.0569 79.9579 80.0569 81.1779L80.0569 83.3779ZM88.1569 83.3779C88.1569 84.1979 87.8369 84.8779 87.2369 85.4379C86.6169 85.9979 85.8169 86.2779 84.8569 86.2779C83.8769 86.2779 83.0769 85.9979 82.4769 85.4379C81.8569 84.8779 81.5569 84.1979 81.5569 83.3779L81.5569 81.1779C81.5569 80.3779 81.8569 79.6779 82.4769 79.1179C83.0769 78.5579 83.8769 78.2779 84.8569 78.2779C85.8169 78.2779 86.6169 78.5579 87.2369 79.1179C87.8369 79.6779 88.1569 80.3779 88.1569 81.1779L88.1569 83.3779Z" fill="white"></path> <path d="M93.3538 81.1779C93.3538 80.3779 93.6538 79.6779 94.2738 79.1179C94.8738 78.5579 95.6738 78.2779 96.6538 78.2779C97.7338 78.2779 98.6738 78.7579 99.4538 79.6779C99.6138 79.8779 99.8138 79.9779 100.054 79.9779C100.254 79.9779 100.414 79.9179 100.554 79.7579C100.674 79.6179 100.754 79.4179 100.754 79.1779C100.754 78.7379 100.354 78.2579 99.5538 77.6979C98.7538 77.1579 97.7738 76.8779 96.6538 76.8779C95.2138 76.8779 94.0538 77.2979 93.1738 78.1179C92.2938 78.9379 91.8538 79.9579 91.8538 81.1779L91.8538 83.3779C91.8538 84.6179 92.2938 85.6379 93.1738 86.4579C94.0538 87.2779 95.2138 87.6779 96.6538 87.6779C97.8138 87.6779 98.8538 87.3779 99.7338 86.7579C100.614 86.1379 101.054 85.5779 101.054 85.0779C101.054 84.8379 100.974 84.6579 100.854 84.4979C100.714 84.3579 100.554 84.2779 100.354 84.2779C100.094 84.2779 99.8938 84.3779 99.7538 84.5779C98.8938 85.7179 97.8538 86.2779 96.6538 86.2779C95.6738 86.2779 94.8738 85.9979 94.2738 85.4379C93.6538 84.8779 93.3538 84.1979 93.3538 83.3779L93.3538 81.1779Z" fill="white"></path> <path d="M107.252 78.5779L110.652 78.5779C110.852 78.5779 111.012 78.5179 111.152 78.3779C111.272 78.2579 111.352 78.0779 111.352 77.8779C111.352 77.6779 111.272 77.5179 111.152 77.3779C111.012 77.2579 110.852 77.1779 110.652 77.1779L102.352 77.1779C102.152 77.1779 101.972 77.2579 101.852 77.3779C101.712 77.5179 101.652 77.6779 101.652 77.8779C101.652 78.0779 101.712 78.2579 101.852 78.3779C101.972 78.5179 102.152 78.5779 102.352 78.5779L105.752 78.5779L105.752 86.7779C105.752 86.9779 105.812 87.1579 105.952 87.2779C106.092 87.4179 106.272 87.4779 106.512 87.4779C106.712 87.4779 106.892 87.4179 107.032 87.2779C107.172 87.1579 107.252 86.9779 107.252 86.7779L107.252 78.5779Z" fill="white"></path> <path d="M114.459 85.9779L114.459 81.9779L117.459 81.9779C118.319 81.9779 118.959 82.1579 119.399 82.5179C119.839 82.8779 120.059 83.3579 120.059 83.9779C120.059 84.6179 119.839 85.0979 119.399 85.4579C118.959 85.8179 118.319 85.9779 117.459 85.9779L114.459 85.9779ZM117.459 87.3779C118.859 87.3779 119.919 87.0979 120.619 86.4979C121.299 85.8979 121.659 85.0579 121.659 83.9779C121.659 82.9979 121.279 82.1779 120.539 81.5379C119.779 80.8979 118.759 80.5779 117.459 80.5779L114.459 80.5779L114.459 77.7779C114.459 77.5779 114.379 77.4179 114.239 77.2779C114.099 77.1579 113.919 77.0779 113.699 77.0779C113.479 77.0779 113.299 77.1579 113.159 77.2779C113.019 77.4179 112.959 77.5779 112.959 77.7779L112.959 86.6779C112.959 86.8779 113.019 87.0579 113.159 87.1779C113.279 87.3179 113.459 87.3779 113.659 87.3779L117.459 87.3779Z" fill="white"></path> </g> <defs> <clipPath id="clip0"> <rect width="164.66" height="147.705" fill="white" transform="translate(25.8896) rotate(9.95364)"></rect> </clipPath> </defs> </svg> 