<?xml version="1.0" encoding="UTF-8"?> <svg xmlns="http://www.w3.org/2000/svg" width="232" height="206" viewBox="0 0 232 206" fill="none"> <g clip-path="url(#clip0)"> <path d="M123.545 147.419C175.496 144.013 219.531 121.093 215.542 84.3466C211.555 47.6241 161.48 27.5033 106.663 25.6044C51.8816 23.7066 17.5134 60.7772 21.4999 97.4997C23.1965 113.128 31.5 134.5 31.4999 165.5C46.9999 126 92.7278 149.426 123.545 147.419Z" fill="#FAD954"></path> <path d="M50.5831 92.9C49.3631 92.9 48.3231 92.34 47.4831 91.2C47.3431 91 47.1431 90.9 46.8831 90.9C46.6831 90.9 46.5031 90.98 46.3831 91.12C46.2431 91.28 46.1831 91.46 46.1831 91.7C46.1831 92.2 46.6231 92.76 47.5031 93.38C48.3831 94 49.4031 94.3 50.5831 94.3C52.0631 94.3 53.2031 94 54.0431 93.38C54.8631 92.78 55.2831 92.02 55.2831 91.1C55.2831 90.7 55.1831 90.32 55.0231 90C54.8631 89.68 54.6831 89.44 54.4831 89.28C54.2831 89.12 54.0431 88.98 53.7831 88.86C53.5031 88.74 53.3231 88.68 53.2231 88.66L52.9831 88.6L52.9831 88.48L53.1831 88.44C53.3231 88.42 53.4831 88.36 53.6831 88.26C53.8831 88.18 54.0631 88.06 54.2631 87.92C54.4631 87.78 54.6231 87.58 54.7631 87.3C54.9031 87.04 54.9831 86.74 54.9831 86.4C54.9831 85.64 54.6031 84.98 53.8431 84.38C53.0831 83.8 52.0631 83.5 50.7831 83.5C49.6431 83.5 48.6831 83.78 47.8831 84.32C47.0831 84.88 46.6831 85.36 46.6831 85.8C46.6831 86.04 46.7431 86.24 46.8831 86.38C47.0031 86.54 47.1831 86.6 47.3831 86.6C47.5831 86.6 47.7831 86.5 47.9831 86.3C48.7431 85.38 49.6831 84.9 50.7831 84.9C51.6231 84.9 52.2631 85.06 52.7031 85.36C53.1431 85.68 53.3831 86.02 53.3831 86.4C53.3831 87.48 52.5031 88 50.7831 88L49.5831 88C49.1831 88 48.9831 88.22 48.9831 88.66C48.9831 89.1 49.1831 89.3 49.5831 89.3L50.5831 89.3C51.6031 89.3 52.3831 89.48 52.9031 89.84C53.4231 90.2 53.6831 90.62 53.6831 91.1C53.6831 91.6 53.4231 92.02 52.9031 92.38C52.3831 92.74 51.6031 92.9 50.5831 92.9Z" fill="white"></path> <path d="M61.0737 92.9C60.2137 92.9 59.5737 92.74 59.1337 92.4C58.6937 92.08 58.4737 91.64 58.4737 91.1C58.4737 90.58 58.6937 90.14 59.1537 89.8C59.6137 89.48 60.3137 89.3 61.2737 89.3L64.4737 89.3L64.4737 90.2C64.4737 90.94 64.1537 91.58 63.5337 92.1C62.8937 92.64 62.0737 92.9 61.0737 92.9ZM61.6737 83.5C60.5337 83.5 59.5737 83.78 58.7737 84.32C57.9737 84.88 57.5737 85.36 57.5737 85.8C57.5737 86.04 57.6337 86.24 57.7737 86.38C57.8937 86.54 58.0737 86.6 58.2737 86.6C58.4937 86.6 58.6937 86.5 58.8737 86.3C59.6337 85.38 60.5737 84.9 61.6737 84.9C62.4737 84.9 63.1337 85.16 63.6737 85.68C64.1937 86.2 64.4737 86.84 64.4737 87.6L64.4737 87.9L61.2737 87.9C59.8337 87.9 58.7337 88.2 57.9937 88.8C57.2337 89.4 56.8737 90.16 56.8737 91.1C56.8737 92.06 57.2337 92.82 57.9537 93.42C58.6737 94.02 59.7137 94.3 61.0737 94.3C61.4937 94.3 61.8937 94.26 62.2937 94.14C62.6737 94.02 62.9737 93.9 63.2137 93.76C63.4537 93.62 63.6737 93.46 63.8737 93.26C64.0737 93.08 64.1937 92.96 64.2537 92.88C64.2937 92.8 64.3337 92.74 64.3737 92.7L64.4737 92.7L64.4737 93.4C64.4737 93.6 64.5337 93.78 64.6737 93.9C64.8137 94.04 64.9937 94.1 65.2137 94.1C65.4337 94.1 65.6137 94.04 65.7537 93.9C65.8937 93.78 65.9737 93.6 65.9737 93.4L65.9737 87.6C65.9737 86.44 65.5537 85.48 64.7537 84.68C63.9337 83.9 62.9137 83.5 61.6737 83.5Z" fill="white"></path> <path d="M76.8823 92.6L76.8823 84.4C76.8823 84.2 76.8023 84.04 76.6623 83.9C76.5223 83.78 76.3423 83.7 76.1223 83.7C75.9023 83.7 75.7223 83.78 75.5823 83.9C75.4423 84.04 75.3823 84.2 75.3823 84.4L75.3823 92.6L70.5823 92.6L70.5823 84.4C70.5823 84.2 70.5023 84.04 70.3623 83.9C70.2223 83.78 70.0423 83.7 69.8223 83.7C69.6023 83.7 69.4223 83.78 69.2823 83.9C69.1423 84.04 69.0823 84.2 69.0823 84.4L69.0823 93.3C69.0823 93.5 69.1423 93.68 69.2823 93.8C69.4023 93.94 69.5823 94 69.7823 94L83.3823 94L83.3823 96.1C83.3823 96.3 83.4423 96.48 83.5823 96.6C83.7223 96.74 83.9023 96.8 84.1423 96.8C84.3423 96.8 84.5223 96.74 84.6623 96.6C84.8023 96.48 84.8823 96.3 84.8823 96.1L84.8823 93.3C84.8823 93.1 84.8023 92.94 84.6823 92.8C84.5423 92.68 84.3823 92.6 84.1823 92.6L83.1823 92.6L83.1823 84.4C83.1823 84.2 83.1023 84.04 82.9623 83.9C82.8223 83.78 82.6423 83.7 82.4223 83.7C82.2023 83.7 82.0223 83.78 81.8823 83.9C81.7423 84.04 81.6823 84.2 81.6823 84.4L81.6823 92.6L76.8823 92.6Z" fill="white"></path> <path d="M94.6901 86.3L94.7901 86.3L94.7901 93.4C94.7901 93.6 94.8501 93.78 94.9901 93.9C95.1301 94.04 95.3101 94.1 95.5501 94.1C95.7501 94.1 95.9301 94.04 96.0701 93.9C96.2101 93.78 96.2901 93.6 96.2901 93.4L96.2901 84.4C96.2901 84.2 96.2101 84.04 96.0901 83.9C95.9501 83.78 95.7901 83.7 95.5901 83.7C95.1901 83.7 94.8901 83.84 94.6901 84.1L88.6901 91.5L88.5901 91.5L88.5901 84.4C88.5901 84.2 88.5101 84.04 88.3701 83.9C88.2301 83.78 88.0501 83.7 87.8301 83.7C87.6101 83.7 87.4301 83.78 87.2901 83.9C87.1501 84.04 87.0901 84.2 87.0901 84.4L87.0901 93.4C87.0901 93.6 87.1501 93.78 87.2901 93.9C87.4101 94.04 87.5901 94.1 87.7901 94.1C88.1701 94.1 88.4701 93.98 88.6901 93.7L94.6901 86.3Z" fill="white"></path> <path d="M107.292 92.6L107.292 84.4C107.292 84.2 107.212 84.04 107.072 83.9C106.932 83.78 106.752 83.7 106.532 83.7C106.312 83.7 106.132 83.78 105.992 83.9C105.852 84.04 105.792 84.2 105.792 84.4L105.792 92.6L100.992 92.6L100.992 84.4C100.992 84.2 100.912 84.04 100.772 83.9C100.632 83.78 100.452 83.7 100.232 83.7C100.012 83.7 99.8325 83.78 99.6925 83.9C99.5525 84.04 99.4925 84.2 99.4925 84.4L99.4925 93.3C99.4925 93.5 99.5525 93.68 99.6925 93.8C99.8125 93.94 99.9925 94 100.192 94L113.792 94L113.792 96.1C113.792 96.3 113.852 96.48 113.992 96.6C114.132 96.74 114.312 96.8 114.552 96.8C114.752 96.8 114.932 96.74 115.072 96.6C115.212 96.48 115.292 96.3 115.292 96.1L115.292 93.3C115.292 93.1 115.212 92.94 115.092 92.8C114.952 92.68 114.792 92.6 114.592 92.6L113.592 92.6L113.592 84.4C113.592 84.2 113.512 84.04 113.372 83.9C113.232 83.78 113.052 83.7 112.832 83.7C112.612 83.7 112.432 83.78 112.292 83.9C112.152 84.04 112.092 84.2 112.092 84.4L112.092 92.6L107.292 92.6Z" fill="white"></path> <path d="M121.605 94.3C122.765 94.3 123.805 94 124.685 93.38C125.565 92.76 126.005 92.2 126.005 91.7C126.005 91.46 125.925 91.28 125.805 91.12C125.665 90.98 125.505 90.9 125.305 90.9C125.025 90.9 124.825 91 124.705 91.2C123.845 92.34 122.805 92.9 121.605 92.9C120.625 92.9 119.825 92.62 119.225 92.06C118.605 91.5 118.305 90.82 118.305 90L118.305 89.6L125.505 89.6C125.705 89.6 125.865 89.54 126.005 89.4C126.125 89.28 126.205 89.1 126.205 88.9L126.205 87.8C126.205 86.6 125.765 85.58 124.885 84.74C124.005 83.92 122.865 83.5 121.505 83.5C120.125 83.5 119.005 83.92 118.125 84.74C117.245 85.58 116.805 86.6 116.805 87.8L116.805 90C116.805 91.24 117.245 92.26 118.125 93.08C119.005 93.9 120.165 94.3 121.605 94.3ZM118.305 87.8C118.305 87 118.605 86.3 119.205 85.74C119.805 85.18 120.565 84.9 121.505 84.9C122.425 84.9 123.205 85.18 123.805 85.74C124.405 86.3 124.705 87 124.705 87.8L124.705 88.2L118.305 88.2L118.305 87.8Z" fill="white"></path> <path d="M137.909 84.4C137.909 84.2 137.829 84.04 137.689 83.9C137.549 83.78 137.369 83.7 137.149 83.7C136.929 83.7 136.749 83.78 136.609 83.9C136.469 84.04 136.409 84.2 136.409 84.4L136.409 88.2L130.309 88.2L130.309 84.4C130.309 84.2 130.229 84.04 130.089 83.9C129.949 83.78 129.769 83.7 129.549 83.7C129.329 83.7 129.149 83.78 129.009 83.9C128.869 84.04 128.809 84.2 128.809 84.4L128.809 93.4C128.809 93.6 128.869 93.78 129.009 93.9C129.149 94.04 129.329 94.1 129.549 94.1C129.769 94.1 129.949 94.04 130.089 93.9C130.229 93.78 130.309 93.6 130.309 93.4L130.309 89.6L136.409 89.6L136.409 93.4C136.409 93.6 136.469 93.78 136.609 93.9C136.749 94.04 136.929 94.1 137.149 94.1C137.369 94.1 137.549 94.04 137.689 93.9C137.829 93.78 137.909 93.6 137.909 93.4L137.909 84.4Z" fill="white"></path> <path d="M150.214 84.4C150.214 84.2 150.134 84.04 149.994 83.9C149.854 83.78 149.674 83.7 149.454 83.7C149.234 83.7 149.054 83.78 148.914 83.9C148.774 84.04 148.714 84.2 148.714 84.4L148.714 88.2L142.614 88.2L142.614 84.4C142.614 84.2 142.534 84.04 142.394 83.9C142.254 83.78 142.074 83.7 141.854 83.7C141.634 83.7 141.454 83.78 141.314 83.9C141.174 84.04 141.114 84.2 141.114 84.4L141.114 93.4C141.114 93.6 141.174 93.78 141.314 93.9C141.454 94.04 141.634 94.1 141.854 94.1C142.074 94.1 142.254 94.04 142.394 93.9C142.534 93.78 142.614 93.6 142.614 93.4L142.614 89.6L148.714 89.6L148.714 93.4C148.714 93.6 148.774 93.78 148.914 93.9C149.054 94.04 149.234 94.1 149.454 94.1C149.674 94.1 149.854 94.04 149.994 93.9C150.134 93.78 150.214 93.6 150.214 93.4L150.214 84.4Z" fill="white"></path> <path d="M152.918 90C152.918 91.24 153.358 92.26 154.238 93.08C155.118 93.9 156.278 94.3 157.718 94.3C159.138 94.3 160.298 93.9 161.178 93.08C162.058 92.26 162.518 91.24 162.518 90L162.518 87.8C162.518 86.58 162.058 85.56 161.178 84.74C160.298 83.92 159.138 83.5 157.718 83.5C156.278 83.5 155.118 83.92 154.238 84.74C153.358 85.56 152.918 86.58 152.918 87.8L152.918 90ZM161.018 90C161.018 90.82 160.698 91.5 160.098 92.06C159.478 92.62 158.678 92.9 157.718 92.9C156.738 92.9 155.938 92.62 155.338 92.06C154.718 91.5 154.418 90.82 154.418 90L154.418 87.8C154.418 87 154.718 86.3 155.338 85.74C155.938 85.18 156.738 84.9 157.718 84.9C158.678 84.9 159.478 85.18 160.098 85.74C160.698 86.3 161.018 87 161.018 87.8L161.018 90Z" fill="white"></path> <path d="M166.215 87.8C166.215 87 166.515 86.3 167.135 85.74C167.735 85.18 168.535 84.9 169.515 84.9C170.595 84.9 171.535 85.38 172.315 86.3C172.475 86.5 172.675 86.6 172.915 86.6C173.115 86.6 173.275 86.54 173.415 86.38C173.535 86.24 173.615 86.04 173.615 85.8C173.615 85.36 173.215 84.88 172.415 84.32C171.615 83.78 170.635 83.5 169.515 83.5C168.075 83.5 166.915 83.92 166.035 84.74C165.155 85.56 164.715 86.58 164.715 87.8L164.715 90C164.715 91.24 165.155 92.26 166.035 93.08C166.915 93.9 168.075 94.3 169.515 94.3C170.675 94.3 171.715 94 172.595 93.38C173.475 92.76 173.915 92.2 173.915 91.7C173.915 91.46 173.835 91.28 173.715 91.12C173.575 90.98 173.415 90.9 173.215 90.9C172.955 90.9 172.755 91 172.615 91.2C171.755 92.34 170.715 92.9 169.515 92.9C168.535 92.9 167.735 92.62 167.135 92.06C166.515 91.5 166.215 90.82 166.215 90L166.215 87.8Z" fill="white"></path> <path d="M180.114 85.2L183.514 85.2C183.714 85.2 183.874 85.14 184.014 85C184.134 84.88 184.214 84.7 184.214 84.5C184.214 84.3 184.134 84.14 184.014 84C183.874 83.88 183.714 83.8 183.514 83.8L175.214 83.8C175.014 83.8 174.834 83.88 174.714 84C174.574 84.14 174.514 84.3 174.514 84.5C174.514 84.7 174.574 84.88 174.714 85C174.834 85.14 175.014 85.2 175.214 85.2L178.614 85.2L178.614 93.4C178.614 93.6 178.674 93.78 178.814 93.9C178.954 94.04 179.134 94.1 179.374 94.1C179.574 94.1 179.754 94.04 179.894 93.9C180.034 93.78 180.114 93.6 180.114 93.4L180.114 85.2Z" fill="white"></path> <path d="M187.321 92.6L187.321 88.6L190.321 88.6C191.181 88.6 191.821 88.78 192.261 89.14C192.701 89.5 192.921 89.98 192.921 90.6C192.921 91.24 192.701 91.72 192.261 92.08C191.821 92.44 191.181 92.6 190.321 92.6L187.321 92.6ZM190.321 94C191.721 94 192.781 93.72 193.481 93.12C194.161 92.52 194.521 91.68 194.521 90.6C194.521 89.62 194.141 88.8 193.401 88.16C192.641 87.52 191.621 87.2 190.321 87.2L187.321 87.2L187.321 84.4C187.321 84.2 187.241 84.04 187.101 83.9C186.961 83.78 186.781 83.7 186.561 83.7C186.341 83.7 186.161 83.78 186.021 83.9C185.881 84.04 185.821 84.2 185.821 84.4L185.821 93.3C185.821 93.5 185.881 93.68 186.021 93.8C186.141 93.94 186.321 94 186.521 94L190.321 94Z" fill="white"></path> </g> <defs> <clipPath id="clip0"> <rect width="203.574" height="173.007" fill="white" transform="translate(30.8896) rotate(9.95364)"></rect> </clipPath> </defs> </svg> 