<?xml version="1.0" encoding="UTF-8"?> <svg xmlns="http://www.w3.org/2000/svg" width="253" height="158" viewBox="0 0 253 158" fill="none"> <path d="M118.148 152.436C159.255 145.585 186.648 148.857 198.869 108.935C208.819 76.4354 218.786 55.4419 225.648 45.4354C237.648 27.9354 249.418 21.7732 249.418 21.7732C249.418 21.7732 230.143 23.5434 208.819 21.7732C178.819 19.2828 183.234 20.3567 97.3187 6.57889C44.3187 -1.9205 0.379663 25.5735 1.28973 69.4042C2.20039 113.264 22.1477 168.435 118.148 152.436Z" fill="#7AB882"></path> <path d="M27.3736 77.3355C28.2936 77.3355 29.0736 77.6155 29.6736 78.1755C30.2736 78.7355 30.5736 79.4355 30.5736 80.2355L30.5736 82.4355C30.5736 83.2555 30.2736 83.9355 29.6736 84.4955C29.0736 85.0555 28.2936 85.3355 27.3736 85.3355C26.4336 85.3355 25.6736 85.0555 25.0736 84.4955C24.4736 83.9355 24.1736 83.2555 24.1736 82.4355L24.1736 80.0355C24.1736 79.3155 24.4736 78.6955 25.0736 78.1555C25.6736 77.6155 26.4536 77.3355 27.3736 77.3355ZM27.3736 75.9355C26.9736 75.9355 26.6136 75.9955 26.2536 76.1155C25.8936 76.2355 25.5936 76.3555 25.3736 76.4955C25.1536 76.6355 24.9536 76.7955 24.7536 76.9755C24.5536 77.1755 24.4336 77.2955 24.3936 77.3755C24.3336 77.4555 24.2936 77.4955 24.2736 77.5355L24.1736 77.5355L24.1736 76.8355C24.1736 76.6355 24.0936 76.4755 23.9536 76.3355C23.8136 76.2155 23.6336 76.1355 23.4136 76.1355C23.1936 76.1355 23.0136 76.2155 22.8736 76.3355C22.7336 76.4755 22.6736 76.6355 22.6736 76.8355L22.6736 90.1355C22.6736 90.3355 22.7336 90.5155 22.8736 90.6355C23.0136 90.7755 23.1936 90.8355 23.4136 90.8355C23.6336 90.8355 23.8136 90.7755 23.9536 90.6355C24.0936 90.4955 24.1736 90.3355 24.1736 90.1355L24.1736 85.2355L24.2736 85.2355L24.3936 85.3955C24.4536 85.4955 24.5736 85.6155 24.7336 85.7755C24.8936 85.9355 25.0936 86.0755 25.3336 86.2155C25.5536 86.3755 25.8536 86.4955 26.2136 86.5955C26.5736 86.6955 26.9536 86.7355 27.3736 86.7355C28.7336 86.7355 29.8736 86.3355 30.7536 85.4955C31.6336 84.6755 32.0736 83.6555 32.0736 82.4355L32.0736 80.2355C32.0736 79.0355 31.6336 78.0155 30.7536 77.1755C29.8736 76.3555 28.7336 75.9355 27.3736 75.9355Z" fill="white"></path> <path d="M38.083 85.3355C37.223 85.3355 36.583 85.1755 36.143 84.8355C35.703 84.5155 35.483 84.0755 35.483 83.5355C35.483 83.0155 35.703 82.5755 36.163 82.2355C36.623 81.9155 37.323 81.7355 38.283 81.7355L41.483 81.7355L41.483 82.6355C41.483 83.3755 41.163 84.0155 40.543 84.5355C39.903 85.0755 39.083 85.3355 38.083 85.3355ZM38.683 75.9355C37.543 75.9355 36.583 76.2155 35.783 76.7555C34.983 77.3155 34.583 77.7955 34.583 78.2355C34.583 78.4755 34.643 78.6755 34.783 78.8155C34.903 78.9755 35.083 79.0355 35.283 79.0355C35.503 79.0355 35.703 78.9355 35.883 78.7355C36.643 77.8155 37.583 77.3355 38.683 77.3355C39.483 77.3355 40.143 77.5955 40.683 78.1155C41.203 78.6355 41.483 79.2755 41.483 80.0355L41.483 80.3355L38.283 80.3355C36.843 80.3355 35.743 80.6355 35.003 81.2355C34.243 81.8355 33.883 82.5955 33.883 83.5355C33.883 84.4955 34.243 85.2555 34.963 85.8555C35.683 86.4555 36.723 86.7355 38.083 86.7355C38.503 86.7355 38.903 86.6955 39.303 86.5755C39.683 86.4555 39.983 86.3355 40.223 86.1955C40.463 86.0555 40.683 85.8955 40.883 85.6955C41.083 85.5155 41.203 85.3955 41.263 85.3155C41.303 85.2355 41.343 85.1755 41.383 85.1355L41.483 85.1355L41.483 85.8355C41.483 86.0355 41.543 86.2155 41.683 86.3355C41.823 86.4755 42.003 86.5355 42.223 86.5355C42.443 86.5355 42.623 86.4755 42.763 86.3355C42.903 86.2155 42.983 86.0355 42.983 85.8355L42.983 80.0355C42.983 78.8755 42.563 77.9155 41.763 77.1155C40.943 76.3355 39.923 75.9355 38.683 75.9355Z" fill="white"></path> <path d="M47.0916 80.2355C47.0916 79.4355 47.3916 78.7355 48.0116 78.1755C48.6116 77.6155 49.4116 77.3355 50.3916 77.3355C51.4716 77.3355 52.4116 77.8155 53.1916 78.7355C53.3516 78.9355 53.5516 79.0355 53.7916 79.0355C53.9916 79.0355 54.1516 78.9755 54.2916 78.8155C54.4116 78.6755 54.4916 78.4755 54.4916 78.2355C54.4916 77.7955 54.0916 77.3155 53.2916 76.7555C52.4916 76.2155 51.5116 75.9355 50.3916 75.9355C48.9516 75.9355 47.7916 76.3555 46.9116 77.1755C46.0316 77.9955 45.5916 79.0155 45.5916 80.2355L45.5916 82.4355C45.5916 83.6755 46.0316 84.6955 46.9116 85.5155C47.7916 86.3355 48.9516 86.7355 50.3916 86.7355C51.5516 86.7355 52.5916 86.4355 53.4716 85.8155C54.3516 85.1955 54.7916 84.6355 54.7916 84.1355C54.7916 83.8955 54.7116 83.7155 54.5916 83.5555C54.4516 83.4155 54.2916 83.3355 54.0916 83.3355C53.8316 83.3355 53.6316 83.4355 53.4916 83.6355C52.6316 84.7755 51.5916 85.3355 50.3916 85.3355C49.4116 85.3355 48.6116 85.0555 48.0116 84.4955C47.3916 83.9355 47.0916 83.2555 47.0916 82.4355L47.0916 80.2355Z" fill="white"></path> <path d="M57.99 80.2355C57.99 79.4355 58.29 78.7355 58.91 78.1755C59.51 77.6155 60.31 77.3355 61.29 77.3355C62.37 77.3355 63.31 77.8155 64.09 78.7355C64.25 78.9355 64.45 79.0355 64.69 79.0355C64.89 79.0355 65.05 78.9755 65.19 78.8155C65.31 78.6755 65.39 78.4755 65.39 78.2355C65.39 77.7955 64.99 77.3155 64.19 76.7555C63.39 76.2155 62.41 75.9355 61.29 75.9355C59.85 75.9355 58.69 76.3555 57.81 77.1755C56.93 77.9955 56.49 79.0155 56.49 80.2355L56.49 82.4355C56.49 83.6755 56.93 84.6955 57.81 85.5155C58.69 86.3355 59.85 86.7355 61.29 86.7355C62.45 86.7355 63.49 86.4355 64.37 85.8155C65.25 85.1955 65.69 84.6355 65.69 84.1355C65.69 83.8955 65.61 83.7155 65.49 83.5555C65.35 83.4155 65.19 83.3355 64.99 83.3355C64.73 83.3355 64.53 83.4355 64.39 83.6355C63.53 84.7755 62.49 85.3355 61.29 85.3355C60.31 85.3355 59.51 85.0555 58.91 84.4955C58.29 83.9355 57.99 83.2555 57.99 82.4355L57.99 80.2355Z" fill="white"></path> <path d="M70.3884 77.6355L75.3884 77.6355L75.3884 85.8355C75.3884 86.0355 75.4484 86.2155 75.5884 86.3355C75.7284 86.4755 75.9084 86.5355 76.1484 86.5355C76.3484 86.5355 76.5284 86.4755 76.6684 86.3355C76.8084 86.2155 76.8884 86.0355 76.8884 85.8355L76.8884 76.9355C76.8884 76.7355 76.8084 76.5755 76.6884 76.4355C76.5484 76.3155 76.3884 76.2355 76.1884 76.2355L69.5884 76.2355C69.3884 76.2355 69.2084 76.3155 69.0884 76.4355C68.9484 76.5755 68.8884 76.7355 68.8884 76.9355L68.8884 81.3355C68.8884 83.4755 68.2084 84.8155 66.8884 85.3355C66.4884 85.4955 66.2884 85.7355 66.2884 86.0355C66.2884 86.2355 66.3484 86.4155 66.4884 86.5355C66.6284 86.6755 66.7884 86.7355 66.9884 86.7355C67.7684 86.7355 68.5284 86.2355 69.2684 85.2155C70.0084 84.2155 70.3884 82.9155 70.3884 81.3355L70.3884 77.6355Z" fill="white"></path> <path d="M83.3955 85.3355C82.5355 85.3355 81.8955 85.1755 81.4555 84.8355C81.0155 84.5155 80.7955 84.0755 80.7955 83.5355C80.7955 83.0155 81.0155 82.5755 81.4755 82.2355C81.9355 81.9155 82.6355 81.7355 83.5955 81.7355L86.7955 81.7355L86.7955 82.6355C86.7955 83.3755 86.4755 84.0155 85.8555 84.5355C85.2155 85.0755 84.3955 85.3355 83.3955 85.3355ZM83.9955 75.9355C82.8555 75.9355 81.8955 76.2155 81.0955 76.7555C80.2955 77.3155 79.8955 77.7955 79.8955 78.2355C79.8955 78.4755 79.9555 78.6755 80.0955 78.8155C80.2155 78.9755 80.3955 79.0355 80.5955 79.0355C80.8155 79.0355 81.0155 78.9355 81.1955 78.7355C81.9555 77.8155 82.8955 77.3355 83.9955 77.3355C84.7955 77.3355 85.4555 77.5955 85.9955 78.1155C86.5155 78.6355 86.7955 79.2755 86.7955 80.0355L86.7955 80.3355L83.5955 80.3355C82.1555 80.3355 81.0555 80.6355 80.3155 81.2355C79.5555 81.8355 79.1955 82.5955 79.1955 83.5355C79.1955 84.4955 79.5555 85.2555 80.2755 85.8555C80.9955 86.4555 82.0355 86.7355 83.3955 86.7355C83.8155 86.7355 84.2155 86.6955 84.6155 86.5755C84.9955 86.4555 85.2955 86.3355 85.5355 86.1955C85.7755 86.0555 85.9955 85.8955 86.1955 85.6955C86.3955 85.5155 86.5155 85.3955 86.5755 85.3155C86.6155 85.2355 86.6555 85.1755 86.6955 85.1355L86.7955 85.1355L86.7955 85.8355C86.7955 86.0355 86.8555 86.2155 86.9955 86.3355C87.1355 86.4755 87.3155 86.5355 87.5355 86.5355C87.7555 86.5355 87.9355 86.4755 88.0755 86.3355C88.2155 86.2155 88.2955 86.0355 88.2955 85.8355L88.2955 80.0355C88.2955 78.8755 87.8755 77.9155 87.0755 77.1155C86.2555 76.3355 85.2355 75.9355 83.9955 75.9355Z" fill="white"></path> <path d="M92.5041 78.6355L92.4041 78.6355L92.4041 78.2355C92.4041 77.0355 92.6841 76.0755 93.2641 75.3755C93.8441 74.6755 94.6641 74.2355 95.7041 74.0355L99.6041 73.3355C100.004 73.2555 100.204 73.0155 100.204 72.6355C100.204 72.4355 100.124 72.2755 99.9841 72.1355C99.8241 72.0155 99.6441 71.9355 99.4041 71.9355C99.2041 71.9355 98.9241 71.9755 98.6041 72.0355L95.5041 72.5355C94.0641 72.7755 92.9241 73.3755 92.1241 74.3355C91.3041 75.2955 90.9041 76.5955 90.9041 78.2355L90.9041 82.2355C90.9041 83.5155 91.3441 84.5755 92.2641 85.4355C93.1641 86.3155 94.3041 86.7355 95.7041 86.7355C97.1241 86.7355 98.2841 86.3355 99.1641 85.5155C100.044 84.6955 100.504 83.6755 100.504 82.4355L100.504 81.5355C100.504 80.3155 100.044 79.2955 99.1641 78.4755C98.2841 77.6555 97.1241 77.2355 95.7041 77.2355C95.1041 77.2355 94.5441 77.3755 93.9841 77.6355C93.4241 77.8955 93.0441 78.0955 92.8841 78.2555C92.7241 78.4155 92.5841 78.5355 92.5041 78.6355ZM99.0041 82.4355C99.0041 83.2555 98.6841 83.9355 98.0841 84.4955C97.4641 85.0555 96.6641 85.3355 95.7041 85.3355C94.7641 85.3355 93.9841 85.0355 93.3441 84.4355C92.7041 83.8355 92.4041 83.0955 92.4041 82.2355L92.4041 81.5355C92.4041 80.7355 92.7041 80.0355 93.3241 79.4755C93.9241 78.9155 94.7241 78.6355 95.7041 78.6355C96.6641 78.6355 97.4641 78.9155 98.0841 79.4755C98.6841 80.0355 99.0041 80.7355 99.0041 81.5355L99.0041 82.4355Z" fill="white"></path> <path d="M105.603 77.6355L110.603 77.6355L110.603 85.8355C110.603 86.0355 110.663 86.2155 110.803 86.3355C110.943 86.4755 111.123 86.5355 111.363 86.5355C111.563 86.5355 111.743 86.4755 111.883 86.3355C112.023 86.2155 112.103 86.0355 112.103 85.8355L112.103 76.9355C112.103 76.7355 112.023 76.5755 111.903 76.4355C111.763 76.3155 111.603 76.2355 111.403 76.2355L104.803 76.2355C104.603 76.2355 104.423 76.3155 104.303 76.4355C104.163 76.5755 104.103 76.7355 104.103 76.9355L104.103 81.3355C104.103 83.4755 103.423 84.8155 102.103 85.3355C101.703 85.4955 101.503 85.7355 101.503 86.0355C101.503 86.2355 101.563 86.4155 101.703 86.5355C101.843 86.6755 102.003 86.7355 102.203 86.7355C102.983 86.7355 103.743 86.2355 104.483 85.2155C105.223 84.2155 105.603 82.9155 105.603 81.3355L105.603 77.6355Z" fill="white"></path> <path d="M119.61 86.7355C120.77 86.7355 121.81 86.4355 122.69 85.8155C123.57 85.1955 124.01 84.6355 124.01 84.1355C124.01 83.8955 123.93 83.7155 123.81 83.5555C123.67 83.4155 123.51 83.3355 123.31 83.3355C123.03 83.3355 122.83 83.4355 122.71 83.6355C121.85 84.7755 120.81 85.3355 119.61 85.3355C118.63 85.3355 117.83 85.0555 117.23 84.4955C116.61 83.9355 116.31 83.2555 116.31 82.4355L116.31 82.0355L123.51 82.0355C123.71 82.0355 123.87 81.9755 124.01 81.8355C124.13 81.7155 124.21 81.5355 124.21 81.3355L124.21 80.2355C124.21 79.0355 123.77 78.0155 122.89 77.1755C122.01 76.3555 120.87 75.9355 119.51 75.9355C118.13 75.9355 117.01 76.3555 116.13 77.1755C115.25 78.0155 114.81 79.0355 114.81 80.2355L114.81 82.4355C114.81 83.6755 115.25 84.6955 116.13 85.5155C117.01 86.3355 118.17 86.7355 119.61 86.7355ZM116.31 80.2355C116.31 79.4355 116.61 78.7355 117.21 78.1755C117.81 77.6155 118.57 77.3355 119.51 77.3355C120.43 77.3355 121.21 77.6155 121.81 78.1755C122.41 78.7355 122.71 79.4355 122.71 80.2355L122.71 80.6355L116.31 80.6355L116.31 80.2355Z" fill="white"></path> <path d="M135.914 76.8355C135.914 76.6355 135.834 76.4755 135.694 76.3355C135.554 76.2155 135.374 76.1355 135.154 76.1355C134.934 76.1355 134.754 76.2155 134.614 76.3355C134.474 76.4755 134.414 76.6355 134.414 76.8355L134.414 80.6355L128.314 80.6355L128.314 76.8355C128.314 76.6355 128.234 76.4755 128.094 76.3355C127.954 76.2155 127.774 76.1355 127.554 76.1355C127.334 76.1355 127.154 76.2155 127.014 76.3355C126.874 76.4755 126.814 76.6355 126.814 76.8355L126.814 85.8355C126.814 86.0355 126.874 86.2155 127.014 86.3355C127.154 86.4755 127.334 86.5355 127.554 86.5355C127.774 86.5355 127.954 86.4755 128.094 86.3355C128.234 86.2155 128.314 86.0355 128.314 85.8355L128.314 82.0355L134.414 82.0355L134.414 85.8355C134.414 86.0355 134.474 86.2155 134.614 86.3355C134.754 86.4755 134.934 86.5355 135.154 86.5355C135.374 86.5355 135.554 86.4755 135.694 86.3355C135.834 86.2155 135.914 86.0355 135.914 85.8355L135.914 76.8355Z" fill="white"></path> <path d="M148.219 76.8355C148.219 76.6355 148.139 76.4755 147.999 76.3355C147.859 76.2155 147.679 76.1355 147.459 76.1355C147.239 76.1355 147.059 76.2155 146.919 76.3355C146.779 76.4755 146.719 76.6355 146.719 76.8355L146.719 80.6355L140.619 80.6355L140.619 76.8355C140.619 76.6355 140.539 76.4755 140.399 76.3355C140.259 76.2155 140.079 76.1355 139.859 76.1355C139.639 76.1355 139.459 76.2155 139.319 76.3355C139.179 76.4755 139.119 76.6355 139.119 76.8355L139.119 85.8355C139.119 86.0355 139.179 86.2155 139.319 86.3355C139.459 86.4755 139.639 86.5355 139.859 86.5355C140.079 86.5355 140.259 86.4755 140.399 86.3355C140.539 86.2155 140.619 86.0355 140.619 85.8355L140.619 82.0355L146.719 82.0355L146.719 85.8355C146.719 86.0355 146.779 86.2155 146.919 86.3355C147.059 86.4755 147.239 86.5355 147.459 86.5355C147.679 86.5355 147.859 86.4755 147.999 86.3355C148.139 86.2155 148.219 86.0355 148.219 85.8355L148.219 76.8355Z" fill="white"></path> <path d="M150.924 82.4355C150.924 83.6755 151.364 84.6955 152.244 85.5155C153.124 86.3355 154.284 86.7355 155.724 86.7355C157.144 86.7355 158.304 86.3355 159.184 85.5155C160.064 84.6955 160.524 83.6755 160.524 82.4355L160.524 80.2355C160.524 79.0155 160.064 77.9955 159.184 77.1755C158.304 76.3555 157.144 75.9355 155.724 75.9355C154.284 75.9355 153.124 76.3555 152.244 77.1755C151.364 77.9955 150.924 79.0155 150.924 80.2355L150.924 82.4355ZM159.024 82.4355C159.024 83.2555 158.704 83.9355 158.104 84.4955C157.484 85.0555 156.684 85.3355 155.724 85.3355C154.744 85.3355 153.944 85.0555 153.344 84.4955C152.724 83.9355 152.424 83.2555 152.424 82.4355L152.424 80.2355C152.424 79.4355 152.724 78.7355 153.344 78.1755C153.944 77.6155 154.744 77.3355 155.724 77.3355C156.684 77.3355 157.484 77.6155 158.104 78.1755C158.704 78.7355 159.024 79.4355 159.024 80.2355L159.024 82.4355Z" fill="white"></path> <path d="M164.22 80.2355C164.22 79.4355 164.52 78.7355 165.14 78.1755C165.74 77.6155 166.54 77.3355 167.52 77.3355C168.6 77.3355 169.54 77.8155 170.32 78.7355C170.48 78.9355 170.68 79.0355 170.92 79.0355C171.12 79.0355 171.28 78.9755 171.42 78.8155C171.54 78.6755 171.62 78.4755 171.62 78.2355C171.62 77.7955 171.22 77.3155 170.42 76.7555C169.62 76.2155 168.64 75.9355 167.52 75.9355C166.08 75.9355 164.92 76.3555 164.04 77.1755C163.16 77.9955 162.72 79.0155 162.72 80.2355L162.72 82.4355C162.72 83.6755 163.16 84.6955 164.04 85.5155C164.92 86.3355 166.08 86.7355 167.52 86.7355C168.68 86.7355 169.72 86.4355 170.6 85.8155C171.48 85.1955 171.92 84.6355 171.92 84.1355C171.92 83.8955 171.84 83.7155 171.72 83.5555C171.58 83.4155 171.42 83.3355 171.22 83.3355C170.96 83.3355 170.76 83.4355 170.62 83.6355C169.76 84.7755 168.72 85.3355 167.52 85.3355C166.54 85.3355 165.74 85.0555 165.14 84.4955C164.52 83.9355 164.22 83.2555 164.22 82.4355L164.22 80.2355Z" fill="white"></path> <path d="M178.119 77.6355L181.519 77.6355C181.719 77.6355 181.879 77.5755 182.019 77.4355C182.139 77.3155 182.219 77.1355 182.219 76.9355C182.219 76.7355 182.139 76.5755 182.019 76.4355C181.879 76.3155 181.719 76.2355 181.519 76.2355L173.219 76.2355C173.019 76.2355 172.839 76.3155 172.719 76.4355C172.579 76.5755 172.519 76.7355 172.519 76.9355C172.519 77.1355 172.579 77.3155 172.719 77.4355C172.839 77.5755 173.019 77.6355 173.219 77.6355L176.619 77.6355L176.619 85.8355C176.619 86.0355 176.679 86.2155 176.819 86.3355C176.959 86.4755 177.139 86.5355 177.379 86.5355C177.579 86.5355 177.759 86.4755 177.899 86.3355C178.039 86.2155 178.119 86.0355 178.119 85.8355L178.119 77.6355Z" fill="white"></path> <path d="M185.326 85.0355L185.326 81.0355L188.326 81.0355C189.186 81.0355 189.826 81.2155 190.266 81.5755C190.706 81.9355 190.926 82.4155 190.926 83.0355C190.926 83.6755 190.706 84.1555 190.266 84.5155C189.826 84.8755 189.186 85.0355 188.326 85.0355L185.326 85.0355ZM188.326 86.4355C189.726 86.4355 190.786 86.1555 191.486 85.5555C192.166 84.9555 192.526 84.1155 192.526 83.0355C192.526 82.0555 192.146 81.2355 191.406 80.5955C190.646 79.9555 189.626 79.6355 188.326 79.6355L185.326 79.6355L185.326 76.8355C185.326 76.6355 185.246 76.4755 185.106 76.3355C184.966 76.2155 184.786 76.1355 184.566 76.1355C184.346 76.1355 184.166 76.2155 184.026 76.3355C183.886 76.4755 183.826 76.6355 183.826 76.8355L183.826 85.7355C183.826 85.9355 183.886 86.1155 184.026 86.2355C184.146 86.3755 184.326 86.4355 184.526 86.4355L188.326 86.4355Z" fill="white"></path> </svg> 