<?xml version="1.0" encoding="UTF-8"?> <svg xmlns="http://www.w3.org/2000/svg" width="246" height="220" viewBox="0 0 246 220" fill="none"> <g clip-path="url(#clip0)"> <path d="M184.5 129.002C214.608 110.812 221.349 99.3747 207.989 67.2139C194.637 35.0742 143.641 28.2244 110.232 42.4374C76.8447 56.6411 49.5002 87.5001 34.5003 129.001C90.2318 116 153.416 147.756 184.5 129.002Z" fill="#7AB883"></path> <path d="M109.251 94.901C108.031 94.901 106.991 94.341 106.151 93.201C106.011 93.001 105.811 92.901 105.551 92.901C105.351 92.901 105.171 92.981 105.051 93.121C104.911 93.281 104.851 93.461 104.851 93.701C104.851 94.201 105.291 94.761 106.171 95.381C107.051 96.001 108.071 96.301 109.251 96.301C110.731 96.301 111.871 96.001 112.711 95.381C113.531 94.781 113.951 94.021 113.951 93.101C113.951 92.701 113.851 92.321 113.691 92.001C113.531 91.681 113.351 91.441 113.151 91.281C112.951 91.121 112.711 90.981 112.451 90.861C112.171 90.741 111.991 90.681 111.891 90.661L111.651 90.601L111.651 90.481L111.851 90.441C111.991 90.421 112.151 90.361 112.351 90.261C112.551 90.181 112.731 90.061 112.931 89.921C113.131 89.781 113.291 89.581 113.431 89.301C113.571 89.041 113.651 88.741 113.651 88.401C113.651 87.641 113.271 86.981 112.511 86.381C111.751 85.801 110.731 85.501 109.451 85.501C108.311 85.501 107.351 85.781 106.551 86.321C105.751 86.881 105.351 87.361 105.351 87.801C105.351 88.041 105.411 88.241 105.551 88.381C105.671 88.541 105.851 88.601 106.051 88.601C106.251 88.601 106.451 88.501 106.651 88.301C107.411 87.381 108.351 86.901 109.451 86.901C110.291 86.901 110.931 87.061 111.371 87.361C111.811 87.681 112.051 88.021 112.051 88.401C112.051 89.481 111.171 90.001 109.451 90.001L108.251 90.001C107.851 90.001 107.651 90.221 107.651 90.661C107.651 91.101 107.851 91.301 108.251 91.301L109.251 91.301C110.271 91.301 111.051 91.481 111.571 91.841C112.091 92.201 112.351 92.621 112.351 93.101C112.351 93.601 112.091 94.021 111.571 94.381C111.051 94.741 110.271 94.901 109.251 94.901Z" fill="white"></path> <path d="M119.742 94.901C118.882 94.901 118.242 94.741 117.802 94.401C117.362 94.081 117.142 93.641 117.142 93.101C117.142 92.581 117.362 92.141 117.822 91.801C118.282 91.481 118.982 91.301 119.942 91.301L123.142 91.301L123.142 92.201C123.142 92.941 122.822 93.581 122.202 94.101C121.562 94.641 120.742 94.901 119.742 94.901ZM120.342 85.501C119.202 85.501 118.242 85.781 117.442 86.321C116.642 86.881 116.242 87.361 116.242 87.801C116.242 88.041 116.302 88.241 116.442 88.381C116.562 88.541 116.742 88.601 116.942 88.601C117.162 88.601 117.362 88.501 117.542 88.301C118.302 87.381 119.242 86.901 120.342 86.901C121.142 86.901 121.802 87.161 122.342 87.681C122.862 88.201 123.142 88.841 123.142 89.601L123.142 89.901L119.942 89.901C118.502 89.901 117.402 90.201 116.662 90.801C115.902 91.401 115.542 92.161 115.542 93.101C115.542 94.061 115.902 94.821 116.622 95.421C117.342 96.021 118.382 96.301 119.742 96.301C120.162 96.301 120.562 96.261 120.962 96.141C121.342 96.021 121.642 95.901 121.882 95.761C122.122 95.621 122.342 95.461 122.542 95.261C122.742 95.081 122.862 94.961 122.922 94.881C122.962 94.801 123.002 94.741 123.042 94.701L123.142 94.701L123.142 95.401C123.142 95.601 123.202 95.781 123.342 95.901C123.482 96.041 123.662 96.101 123.882 96.101C124.102 96.101 124.282 96.041 124.422 95.901C124.562 95.781 124.642 95.601 124.642 95.401L124.642 89.601C124.642 88.441 124.222 87.481 123.422 86.681C122.602 85.901 121.582 85.501 120.342 85.501Z" fill="white"></path> <path d="M128.85 88.201L128.75 88.201L128.75 87.801C128.75 86.601 129.03 85.641 129.61 84.941C130.19 84.241 131.01 83.801 132.05 83.601L135.95 82.901C136.35 82.821 136.55 82.581 136.55 82.201C136.55 82.001 136.47 81.841 136.33 81.701C136.17 81.581 135.99 81.501 135.75 81.501C135.55 81.501 135.27 81.541 134.95 81.601L131.85 82.101C130.41 82.341 129.27 82.941 128.47 83.901C127.65 84.861 127.25 86.161 127.25 87.801L127.25 91.801C127.25 93.081 127.69 94.141 128.61 95.001C129.51 95.881 130.65 96.301 132.05 96.301C133.47 96.301 134.63 95.901 135.51 95.081C136.39 94.261 136.85 93.241 136.85 92.001L136.85 91.101C136.85 89.881 136.39 88.861 135.51 88.041C134.63 87.221 133.47 86.801 132.05 86.801C131.45 86.801 130.89 86.941 130.33 87.201C129.77 87.461 129.39 87.661 129.23 87.821C129.07 87.981 128.93 88.101 128.85 88.201ZM135.35 92.001C135.35 92.821 135.03 93.501 134.43 94.061C133.81 94.621 133.01 94.901 132.05 94.901C131.11 94.901 130.33 94.601 129.69 94.001C129.05 93.401 128.75 92.661 128.75 91.801L128.75 91.101C128.75 90.301 129.05 89.601 129.67 89.041C130.27 88.481 131.07 88.201 132.05 88.201C133.01 88.201 133.81 88.481 134.43 89.041C135.03 89.601 135.35 90.301 135.35 91.101L135.35 92.001Z" fill="white"></path> <path d="M138.95 92.001C138.95 93.241 139.39 94.261 140.27 95.081C141.15 95.901 142.31 96.301 143.75 96.301C145.17 96.301 146.33 95.901 147.21 95.081C148.09 94.261 148.55 93.241 148.55 92.001L148.55 89.801C148.55 88.581 148.09 87.561 147.21 86.741C146.33 85.921 145.17 85.501 143.75 85.501C142.31 85.501 141.15 85.921 140.27 86.741C139.39 87.561 138.95 88.581 138.95 89.801L138.95 92.001ZM147.05 92.001C147.05 92.821 146.73 93.501 146.13 94.061C145.51 94.621 144.71 94.901 143.75 94.901C142.77 94.901 141.97 94.621 141.37 94.061C140.75 93.501 140.45 92.821 140.45 92.001L140.45 89.801C140.45 89.001 140.75 88.301 141.37 87.741C141.97 87.181 142.77 86.901 143.75 86.901C144.71 86.901 145.51 87.181 146.13 87.741C146.73 88.301 147.05 89.001 147.05 89.801L147.05 92.001Z" fill="white"></path> <path d="M155.051 87.201L158.451 87.201C158.651 87.201 158.811 87.141 158.951 87.001C159.071 86.881 159.151 86.701 159.151 86.501C159.151 86.301 159.071 86.141 158.951 86.001C158.811 85.881 158.651 85.801 158.451 85.801L150.151 85.801C149.951 85.801 149.771 85.881 149.651 86.001C149.511 86.141 149.451 86.301 149.451 86.501C149.451 86.701 149.511 86.881 149.651 87.001C149.771 87.141 149.951 87.201 150.151 87.201L153.551 87.201L153.551 95.401C153.551 95.601 153.611 95.781 153.751 95.901C153.891 96.041 154.071 96.101 154.311 96.101C154.511 96.101 154.691 96.041 154.831 95.901C154.971 95.781 155.051 95.601 155.051 95.401L155.051 87.201Z" fill="white"></path> <path d="M169.158 87.201L169.198 87.081C169.238 87.021 169.258 86.921 169.298 86.781C169.338 86.661 169.358 86.521 169.358 86.401C169.358 86.201 169.278 86.041 169.158 85.901C169.018 85.781 168.858 85.701 168.658 85.701C168.258 85.701 167.958 85.941 167.758 86.401L164.438 94.101L164.358 94.101L160.958 86.401C160.738 85.941 160.438 85.701 160.058 85.701C159.858 85.701 159.678 85.781 159.558 85.901C159.418 86.041 159.358 86.201 159.358 86.401C159.358 86.681 159.418 86.941 159.558 87.201L163.458 95.801L161.958 99.101L161.858 99.701C161.858 99.901 161.918 100.081 162.058 100.201C162.178 100.341 162.358 100.401 162.558 100.401C162.958 100.401 163.258 100.181 163.458 99.701L169.158 87.201Z" fill="white"></path> </g> <defs> <clipPath id="clip0"> <rect width="204.467" height="138.209" fill="white" transform="translate(0.03125 97.6904) rotate(-28.5406)"></rect> </clipPath> </defs> </svg> 