<?xml version="1.0" encoding="UTF-8"?> <svg xmlns="http://www.w3.org/2000/svg" viewBox="0 0 599.98 566.93"> <defs> <style>.cls-1{fill:#7ab882;}</style> </defs> <title>logo_circle</title> <g id="Слой_2" data-name="Слой 2"> <g id="Page_7" data-name="Page 7"> <path class="cls-1" d="M131.44,148.07l-40-33.46L83.38,124l-10.27-8.6L81.2,106l-1.74-1.46Q71.58,98,70.94,89.79T76.83,74a50.63,50.63,0,0,1,6.82-6.66,34.76,34.76,0,0,1,6.19-4.08l8.28,10.35a26.45,26.45,0,0,0-4.62,2.9,28.9,28.9,0,0,0-4.1,4q-3.34,3.9-3.25,7.08t4.13,6.57l.64.53,13.76-16L115,87.28l-13.76,16,40,33.46Z"></path> <path class="cls-1" d="M158.86,118.46l-39.6-52,11.83-8.77,5.13,6.74a23,23,0,0,1,9.37-18.51,50.06,50.06,0,0,1,5.48-3.47l8.86,12.43a25.49,25.49,0,0,0-5.8,3.26,15.86,15.86,0,0,0-5.94,8.11,18.05,18.05,0,0,0,.12,10.52,35,35,0,0,0,6,11.48l16.33,21.44Z"></path> <path class="cls-1" d="M197,92.54l-29.86-58L180.36,28l29.86,58ZM163.25,27.76,156.66,15l13.73-6.88L177,20.88Z"></path> <path class="cls-1" d="M257.59,30.49a18.07,18.07,0,0,0-5-6.85,15.18,15.18,0,0,0-6.92-3.15,19.69,19.69,0,0,0-8.22.34,21.62,21.62,0,0,0-8.17,3.75A17.33,17.33,0,0,0,222.42,39ZM251.74,73.2a39.44,39.44,0,0,1-19.1.17,31.57,31.57,0,0,1-15.29-8.7,33.88,33.88,0,0,1-8.57-15.76A35,35,0,0,1,208.73,31a29.85,29.85,0,0,1,9-14.52A37.41,37.41,0,0,1,234.4,8a33.68,33.68,0,0,1,17,0,29.09,29.09,0,0,1,13.56,8,31.22,31.22,0,0,1,7.74,14.44q.43,1.73.78,3.9t.64,4.79l-49,11.85a17.25,17.25,0,0,0,13.95,10,28,28,0,0,0,10.17-.69,27,27,0,0,0,8.87-3.68A18.35,18.35,0,0,0,263.92,50l11.27,5.95a39,39,0,0,1-9.56,10.87,36.25,36.25,0,0,1-13.89,6.42"></path> <path class="cls-1" d="M287.22,64.73,293.46,0l14.73,1.38-.76,7.92a30.91,30.91,0,0,1,6.45-4.22,29.63,29.63,0,0,1,7.92-2.53,34.25,34.25,0,0,1,9.28-.32,28.39,28.39,0,0,1,13.57,4.61,23.34,23.34,0,0,1,8.43,10.33,29.75,29.75,0,0,1,2,14.73l-3.75,38.86-15-1.41,3.54-36.73q.74-7.68-2.7-12.05t-11-5.08A18.35,18.35,0,0,0,316,17.19a19.43,19.43,0,0,0-7.47,6.63A21.72,21.72,0,0,0,305,34.1l-3.09,32Z"></path> <path class="cls-1" d="M393,75.17a22.89,22.89,0,0,0,10.72,2.36,17.55,17.55,0,0,0,9.65-3.28,22.33,22.33,0,0,0,7.11-8.75,21.78,21.78,0,0,0,2.39-10.84,17,17,0,0,0-3.48-9.46,22.63,22.63,0,0,0-8.6-6.75,20.78,20.78,0,0,0-10.5-2.12,18.68,18.68,0,0,0-9.54,3.46,21.29,21.29,0,0,0-6.9,8.32,21.73,21.73,0,0,0-2.39,10.84,18.08,18.08,0,0,0,3.27,9.49A20.47,20.47,0,0,0,393,75.17m-8.36,10.92A30.66,30.66,0,0,1,372,75.25a31.53,31.53,0,0,1-5.29-15.91,35,35,0,0,1,3.72-17.58A35.9,35.9,0,0,1,382,27.59a31,31,0,0,1,15.69-5.69,32.65,32.65,0,0,1,16.58,3.21,36.11,36.11,0,0,1,10.79,7.58A26.8,26.8,0,0,1,431.38,43l13.17-27.19L458,22.17l-38.27,79-13.46-6.34,3.37-7a28,28,0,0,1-12.21,1.67,36.28,36.28,0,0,1-12.79-3.46"></path> <polygon class="cls-1" points="428.52 110.57 485.62 43.52 496.95 52.9 439.85 119.96 428.52 110.57"></polygon> <path class="cls-1" d="M438.81,148.26a31.32,31.32,0,0,1-4-7.18,23.06,23.06,0,0,1-1.83-6.87l11.45-2.52a17.55,17.55,0,0,0,1.56,4.63,25.51,25.51,0,0,0,2.5,4.08q2.6,3.42,5.39,4a18.85,18.85,0,0,0,7.58-.41l1.35-.4L498.9,82.89l9.73,12.83L481,139.94l50.88-13.53,9.73,12.83-74.54,18.39a40,40,0,0,1-11.3,1.15,19.19,19.19,0,0,1-9-2.85,30.47,30.47,0,0,1-8-7.66"></path> <path class="cls-1" d="M521,254.4a22.16,22.16,0,0,0,3.31,10.33,17.32,17.32,0,0,0,7.71,6.59A22.82,22.82,0,0,0,543.21,273a22.46,22.46,0,0,0,10.69-3.41,17.2,17.2,0,0,0,6.54-7.72,22.11,22.11,0,0,0,1.6-10.72,20.14,20.14,0,0,0-3.41-10,18.44,18.44,0,0,0-7.82-6.4A21.78,21.78,0,0,0,540.07,233a22.44,22.44,0,0,0-10.69,3.41A18.32,18.32,0,0,0,522.7,244,20,20,0,0,0,521,254.4m-13.76-1.65a30.06,30.06,0,0,1,3.13-16.26A31.93,31.93,0,0,1,521.62,224a36.11,36.11,0,0,1,17.26-5.66,36.66,36.66,0,0,1,18.25,2.84A30.6,30.6,0,0,1,570,231.7a31.54,31.54,0,0,1,5.5,15.75,35.22,35.22,0,0,1-1.23,13A26.79,26.79,0,0,1,568.36,271l30.42-2.42L600,283.24l-88.39,7-1.2-14.67,7.79-.62a27.3,27.3,0,0,1-7.59-9.57,35.07,35.07,0,0,1-3.38-12.65"></path> <path class="cls-1" d="M535.48,356.38a18.56,18.56,0,0,0,8.49-1,15,15,0,0,0,6.13-4.46,19.06,19.06,0,0,0,3.66-7.26,20.94,20.94,0,0,0,.61-8.87,17.19,17.19,0,0,0-3.12-7.52,17.86,17.86,0,0,0-6.39-5.37Zm-35.13-25.63a38.18,38.18,0,0,1,9.06-16.58,31.55,31.55,0,0,1,15.1-9,34.94,34.94,0,0,1,18.13.19,36.08,36.08,0,0,1,15.92,8.57,29.83,29.83,0,0,1,8.56,14.8,36.24,36.24,0,0,1-.48,18.48,32.65,32.65,0,0,1-8.16,14.67,29.08,29.08,0,0,1-13.6,7.88,32.19,32.19,0,0,1-16.56-.26q-1.74-.46-3.84-1.2t-4.57-1.76l13.06-48A18.09,18.09,0,0,0,524.2,320a17.6,17.6,0,0,0-6.84,5.68,27.11,27.11,0,0,0-4.29,9.12,26.1,26.1,0,0,0-1,9.44,18.14,18.14,0,0,0,3.07,8.18l-10.71,6.87a38.41,38.41,0,0,1-5-13.5,35,35,0,0,1,1-15.09"></path> <path class="cls-1" d="M490.83,365.49l54.51,36.57L537,414.12l-6.67-4.47a30.21,30.21,0,0,1,.65,7.61,28.64,28.64,0,0,1-1.56,8.07,33.19,33.19,0,0,1-4.18,8.17A28,28,0,0,1,514.63,443a23.9,23.9,0,0,1-13.23,2.31,30.79,30.79,0,0,1-14-5.39l-32.73-22,8.46-12.26L494,426.47q6.47,4.34,12,3.47t9.81-7.05a17.71,17.71,0,0,0,3.34-9.6,19,19,0,0,0-2.29-9.65,22,22,0,0,0-7.43-8l-27-18.08Z"></path> <path class="cls-1" d="M423.68,440.27q8-6.29,15.85-5.43t14.24,8.75L474,468.54l9.78-7.7,8.41,10.39-10,7.85,9.91,13.76-10.62,8.37L470.82,488l-17.58,13.85-8.41-10.39,17.58-13.84-18.69-23.09q-3.08-3.81-6.78-4.38a8.91,8.91,0,0,0-7.08,2.09,34,34,0,0,0-4.67,4.59,25.93,25.93,0,0,0-3.64,5.3L412,454.94a29.3,29.3,0,0,1,4.87-7.86,45.74,45.74,0,0,1,6.81-6.81"></path> <path class="cls-1" d="M387.6,475.87a19.41,19.41,0,0,0-7.54,5.31,17.32,17.32,0,0,0-3.9,7.62,15.33,15.33,0,0,0,.35,8.14l.41,1a73.89,73.89,0,0,0,7.33-2.08q3.76-1.28,8.1-3,7.79-3.17,10.2-6.72a7.56,7.56,0,0,0,.72-7.61,6.84,6.84,0,0,0-5.69-4.42q-4.08-.59-10,1.81m-.54-14a25.9,25.9,0,0,1,12.15-2.06,19.74,19.74,0,0,1,10.26,3.84,20.68,20.68,0,0,1,6.74,8.81A21.93,21.93,0,0,1,418,483.6,19.22,19.22,0,0,1,413,494q-4.35,5-12.81,8.43t-18.65,6.44l0,.11a11.26,11.26,0,0,0,7.88,6.87q5.64,1.49,13.09-1.54a26.64,26.64,0,0,0,8.11-5.36,30.2,30.2,0,0,0,6.13-7.89l11,7.06a38.8,38.8,0,0,1-9.29,11.55,46,46,0,0,1-12.39,7.55q-14.12,5.75-24,2.07t-15-15.86l-15.06-36,13.79-5.61,3,7.13a28,28,0,0,1,3.42-6.14,30.26,30.26,0,0,1,5.94-6,36.46,36.46,0,0,1,8.84-5"></path> <polygon class="cls-1" points="340.84 478.16 355.45 564.53 340.86 566.93 326.24 480.56 340.84 478.16"></polygon> <path class="cls-1" d="M228.53,469a54.87,54.87,0,0,1,13.68,7.18,59.29,59.29,0,0,1,10.73,9.67l-10,9.46a49,49,0,0,0-9.39-8.62,44.14,44.14,0,0,0-10.34-5.31,35.69,35.69,0,0,0-6.88-1.81,9,9,0,0,0-4.9.47,5.13,5.13,0,0,0-2.79,3.11,4.49,4.49,0,0,0,.12,3.7,12.46,12.46,0,0,0,3.55,3.78,69.72,69.72,0,0,0,8.1,5.14,62,62,0,0,1,12.71,9q4.34,4.25,5.15,8.51a17.41,17.41,0,0,1-1,9.28,20,20,0,0,1-6.46,9.31,17.66,17.66,0,0,1-10.36,3.52,37,37,0,0,1-13.68-2.45A66.21,66.21,0,0,1,193.22,526a41.75,41.75,0,0,1-10.39-8.85l9.85-9.5a38.53,38.53,0,0,0,8.65,7.48,52.21,52.21,0,0,0,10.95,5.39,17.92,17.92,0,0,0,4.9,1.11,7,7,0,0,0,3.48-.6,4.08,4.08,0,0,0,2-2.38,4.17,4.17,0,0,0-.09-3.25,10.06,10.06,0,0,0-3.27-3.49q-2.56-1.92-7.48-4.92a68.89,68.89,0,0,1-13.12-9.95q-4.46-4.61-5.27-9.06a18.24,18.24,0,0,1,1.06-9.58,17.63,17.63,0,0,1,7.08-9.09,21.85,21.85,0,0,1,11.8-3.26A44,44,0,0,1,228.53,469"></path> <path class="cls-1" d="M173.36,439.79q8.4,5.76,9.8,13.44t-4.44,16l-18.47,26.21,10.27,7-7.69,10.91-10.47-7.18-10.54,13.29-11.16-7.65L140.41,498l-18.47-12.66,7.69-10.91,18.47,12.67,17.1-24.26q2.82-4,2.32-7.66a8.69,8.69,0,0,0-4.05-6.1,34,34,0,0,0-5.8-3.11,26.46,26.46,0,0,0-6.19-1.93l4.29-11.08a30.15,30.15,0,0,1,9,2.36,46,46,0,0,1,8.55,4.49"></path> <path class="cls-1" d="M138.2,406.77a27.54,27.54,0,0,1,6,12.88,22.59,22.59,0,0,1-1.81,13.1,30.6,30.6,0,0,1-9.5,11.51l-31.12,24.11L92.6,456.89,122,434.1q6.24-4.83,7.08-10.32t-4-11.54a18.29,18.29,0,0,0-8.1-5.95,18.56,18.56,0,0,0-10.06-.73,23.56,23.56,0,0,0-10,4.69L71.27,430.11,62,418.45l51.84-40.17,9.29,11.66-6.24,4.84a32.26,32.26,0,0,1,7.51,1.65,27.22,27.22,0,0,1,7.24,3.9,35.38,35.38,0,0,1,6.58,6.44"></path> <path class="cls-1" d="M87.62,344.49A22.3,22.3,0,0,0,82,335.2a17.47,17.47,0,0,0-9.06-4.64,22.82,22.82,0,0,0-11.32,1A22.35,22.35,0,0,0,52,337.27a17.08,17.08,0,0,0-4.55,9,22.07,22.07,0,0,0,1,10.8,20.21,20.21,0,0,0,5.68,9,18.58,18.58,0,0,0,9.12,4.43,21.78,21.78,0,0,0,10.87-.8,22.36,22.36,0,0,0,9.61-5.77A18.15,18.15,0,0,0,88.38,355a20,20,0,0,0-.76-10.55m13.78-1.55a30,30,0,0,1,.77,16.53,31.67,31.67,0,0,1-8,14.75,36,36,0,0,1-15.48,9.46,36.75,36.75,0,0,1-18.44,1.42,30.9,30.9,0,0,1-15-7.29,31.8,31.8,0,0,1-9.07-14.06A35.2,35.2,0,0,1,34.3,350.8a26.56,26.56,0,0,1,3.26-11.59L8.5,348.54l-4.62-14,84.43-27.09,4.62,14-7.44,2.39a27.56,27.56,0,0,1,9.65,7.58,35.16,35.16,0,0,1,6.27,11.52"></path> <path class="cls-1" d="M89.21,295.35l-65.79,4.22-1-14.56,65.79-4.22Zm-73.69,5.08L1,301.36,0,286.21l14.53-.93Z"></path> <path class="cls-1" d="M79.59,236.14a21.08,21.08,0,0,0-.71-10.67A18.59,18.59,0,0,0,73,217a21.66,21.66,0,0,0-10.31-4.51,21.89,21.89,0,0,0-11.19.76,18.78,18.78,0,0,0-8.53,6A22.89,22.89,0,0,0,39.26,240a18.2,18.2,0,0,0,5.88,8.44,21.78,21.78,0,0,0,10.2,4.43,22.66,22.66,0,0,0,11.24-.69,18.22,18.22,0,0,0,8.57-5.91,22,22,0,0,0,4.44-10.13m13.25,2.43a37.68,37.68,0,0,1-7.62,17.29A32,32,0,0,1,71,266.14a34.89,34.89,0,0,1-18.14,1.35A34.6,34.6,0,0,1,36.22,260a31.5,31.5,0,0,1-9.8-14.48,40,40,0,0,1,6.44-35.87A32.49,32.49,0,0,1,47,199.31a34.18,34.18,0,0,1,18.16-1.47,34.26,34.26,0,0,1,16.61,7.54,32.34,32.34,0,0,1,9.85,14.55,36.88,36.88,0,0,1,1.18,18.64"></path> <path class="cls-1" d="M300.79,410.83c-60.3,0-115.23-40.47-130.23-100.75-17.62-70.82,26.46-142.58,98.27-160,39.71-9.61,83-1.6,115.91,21.43,27,18.93,43.51,46.08,46.44,76.44,3.54,36.78-6.64,71.5-27.23,92.88-13.28,13.79-29.46,20.69-46.81,19.95-33.8-1.45-50.83-36.55-53.23-45.16a14.08,14.08,0,0,0-2.12-4.63,2.07,2.07,0,0,0-3.4,0,14.08,14.08,0,0,0-2.13,4.63c-.28,1-.61,2.73-1,4.75-2.55,13.23-7.84,40.77-31.14,40.77-11.4,0-19.76-9-23-17.86-5.31-14.6-7.3-36-8-51.29a79.55,79.55,0,0,0-3.89-21l-5.67-17.3A40,40,0,0,1,222,235.71c2.44-17.19,16.85-35,36.77-35,8.83,0,18.58.72,30.09,5.94,8.45,3.83,19.33,3.45,28.39-1,8.39-4.11,15.44-4.94,24.11-4.94,20.43,0,34.53,13.49,36.8,35.21S362,306.54,359.94,312a6.68,6.68,0,0,1-8.57,3.82,6.53,6.53,0,0,1-3.88-8.45c5.41-14.17,19.1-54.38,17.45-70.13-.92-8.75-5.19-23.44-23.57-23.44-7.08,0-12.07.57-18.19,3.57-12.77,6.26-27.67,6.7-39.87,1.17-8.67-3.93-16.08-4.74-24.54-4.74-9.74,0-21.53,9.05-23.6,23.67a27.11,27.11,0,0,0,1,12.24L241.86,267a92.56,92.56,0,0,1,4.52,24.38c.56,11.82,2.26,33.71,7.26,47.47,1.15,3.17,4.82,9.17,10.47,9.17,10.79,0,15.06-14.47,18.07-30.1.46-2.4.83-4.29,1.24-5.79a27,27,0,0,1,4.22-8.9,15.48,15.48,0,0,1,24.85,0,27,27,0,0,1,4.22,8.9c1.48,5.31,15.34,34.44,41,35.54,13.38.58,26-4.92,36.58-15.88,18-18.67,26.82-49.55,23.64-82.61-2.56-26.5-17.08-50.29-40.9-67-29.32-20.54-69.57-28-105-19.38-64.69,15.66-104.4,80.3-88.52,144.1s81.41,103,146.1,87.31a6.65,6.65,0,0,1,8,4.81,6.55,6.55,0,0,1-4.87,7.93,135.82,135.82,0,0,1-32,3.83"></path> </g> </g> </svg> 