<?xml version="1.0" encoding="UTF-8"?> <svg xmlns="http://www.w3.org/2000/svg" width="87" height="81" viewBox="0 0 87 81" fill="none"> <g clip-path="url(#clip0)"> <path d="M19.0594 21.1553L13.2592 16.3747L12.0905 17.7163L10.6013 16.4876L11.7744 15.1445L11.522 14.936C10.7603 14.313 10.3485 13.6106 10.2866 12.8286C10.2247 12.0466 10.5094 11.2946 11.1407 10.5726C11.4392 10.2254 11.7703 9.90685 12.1296 9.62101C12.4069 9.39573 12.7078 9.20031 13.0272 9.03809L14.2278 10.5168C13.9906 10.6318 13.7661 10.7707 13.5579 10.9312C13.341 11.1018 13.1419 11.2932 12.9634 11.5027C12.6405 11.8741 12.4834 12.2113 12.4921 12.5142C12.5008 12.8171 12.7005 13.13 13.091 13.4529L13.1838 13.5286L15.1791 11.2426L16.6755 12.4699L14.6802 14.7559L20.4804 19.5365L19.0594 21.1553Z" fill="white"></path> <path d="M23.0354 16.9253L17.2932 9.49585L19.0086 8.24284L19.7525 9.20582C19.7529 8.69094 19.876 8.18336 20.112 7.72399C20.348 7.26462 20.6903 6.86632 21.1112 6.5612C21.3649 6.37919 21.6303 6.21359 21.9058 6.06543L23.1906 7.84136C22.8908 7.95975 22.608 8.11634 22.3495 8.30713C21.9425 8.59113 21.6402 8.9978 21.4882 9.46585C21.3424 9.95745 21.3485 10.4807 21.5056 10.9689C21.6895 11.5642 21.9846 12.1205 22.3756 12.6091L24.7436 15.6723L23.0354 16.9253Z" fill="white"></path> <path d="M28.5659 13.2216L24.2361 4.93491L26.153 4.00051L30.4829 12.2872L28.5659 13.2216ZM23.672 3.96622L22.7164 2.14313L24.7073 1.16016L25.6658 2.98324L23.672 3.96622Z" fill="white"></path> <path d="M37.3518 4.35633C37.1924 3.97804 36.9439 3.64258 36.6268 3.37763C36.3365 3.14617 35.9912 2.9913 35.6234 2.92758C35.227 2.86089 34.8208 2.87745 34.4314 2.97616C34.0028 3.07099 33.5992 3.25353 33.2467 3.51194C32.9254 3.75159 32.6673 4.06388 32.4942 4.42245C32.3211 4.78102 32.238 5.17535 32.252 5.57219L37.3518 4.35633ZM36.5036 10.4585C35.5963 10.6901 34.6452 10.6984 33.734 10.4828C32.8903 10.2838 32.1214 9.85274 31.5168 9.23979C30.9048 8.61287 30.4755 7.83503 30.2741 6.98808C30.0465 6.15017 30.044 5.26834 30.2669 4.42919C30.4875 3.62718 30.9411 2.90613 31.5719 2.35465C32.2606 1.75565 33.0923 1.33876 33.9892 1.14307C34.7973 0.935382 35.6461 0.935382 36.4543 1.14307C37.2038 1.33875 37.8842 1.73423 38.4205 2.28607C38.9744 2.86307 39.3618 3.5753 39.5429 4.34918C39.5844 4.51396 39.6221 4.6997 39.656 4.90639C39.6898 5.11309 39.7207 5.34121 39.7488 5.59076L32.6435 7.28383C32.8248 7.67522 33.1069 8.01304 33.4618 8.26369C33.8167 8.51435 34.2319 8.66911 34.6663 8.71258C35.1599 8.7689 35.6597 8.73548 36.141 8.61399C36.5982 8.51587 37.0338 8.33779 37.4272 8.08822C37.7817 7.84541 38.0708 7.52129 38.2697 7.14381L39.9039 7.99392C39.5443 8.5923 39.0741 9.11906 38.5177 9.54697C37.9202 9.99045 37.2335 10.3032 36.5036 10.4642" fill="white"></path> <path d="M41.6483 9.24829L42.5531 0L44.6891 0.197167L44.5789 1.32874C44.8639 1.0901 45.1781 0.887544 45.5141 0.725804C45.8778 0.552728 46.2644 0.43104 46.6626 0.364331C47.1069 0.288974 47.5597 0.273593 48.0082 0.318611C48.7105 0.368741 49.388 0.595518 49.9759 0.977264C50.5204 1.34165 50.9452 1.85455 51.1983 2.45316C51.4742 3.11919 51.574 3.84331 51.4883 4.55771L50.9446 10.1098L48.7695 9.90837L49.2828 4.66058C49.3544 3.92906 49.2239 3.35518 48.8913 2.93893C48.5588 2.52269 48.0271 2.28076 47.2963 2.21313C46.7912 2.15355 46.2795 2.23784 45.8216 2.45602C45.3829 2.67338 45.0095 2.99992 44.7384 3.40328C44.4442 3.84221 44.268 4.34761 44.2265 4.87203L43.7784 9.44402L41.6483 9.24829Z" fill="white"></path> <path d="M56.9869 10.7398C57.4696 10.9748 58.0031 11.0905 58.5413 11.077C59.0445 11.0606 59.5315 10.8976 59.9406 10.6084C60.3872 10.2854 60.7421 9.85499 60.9716 9.35824C61.221 8.88014 61.3404 8.34656 61.3182 7.80947C61.2925 7.31904 61.1166 6.84779 60.8136 6.45788C60.4841 6.04082 60.0559 5.70969 59.5665 5.49347C59.0946 5.26314 58.5696 5.15871 58.044 5.19058C57.5454 5.22643 57.0666 5.39752 56.6606 5.68493C56.2289 5.98976 55.8843 6.3992 55.6601 6.87365C55.4104 7.35163 55.291 7.8853 55.3135 8.42241C55.3385 8.90941 55.5029 9.37948 55.7877 9.77829C56.0942 10.1976 56.508 10.5293 56.9869 10.7398ZM55.7746 12.3C55.0304 11.9603 54.396 11.4242 53.9418 10.7513C53.4826 10.0757 53.2175 9.29017 53.1747 8.47813C53.1296 7.6089 53.3155 6.74312 53.7141 5.96639C54.0866 5.16012 54.6646 4.46263 55.3918 3.94185C56.0605 3.47103 56.8474 3.18985 57.667 3.1289C58.4953 3.07138 59.3244 3.22955 60.0711 3.58752C60.6557 3.85084 61.1861 4.21796 61.6357 4.67052C62.0511 5.08632 62.3646 5.59016 62.5522 6.14355L64.4619 2.25879L66.4122 3.16747L60.8629 14.4546L58.9111 13.5488L59.3998 12.5486C58.8349 12.7567 58.2301 12.8382 57.6293 12.7872C56.9855 12.736 56.3568 12.5684 55.7746 12.2929" fill="white"></path> <path d="M62.1375 15.7985L70.4172 6.21875L72.0601 7.55892L63.7804 17.1401L62.1375 15.7985Z" fill="white"></path> <path d="M63.6296 21.1825C63.3913 20.8671 63.1963 20.5222 63.0495 20.1567C62.9101 19.845 62.8206 19.5138 62.7842 19.1751L64.4445 18.8151C64.4882 19.0449 64.5644 19.2675 64.6707 19.4766C64.7727 19.6816 64.8941 19.8768 65.0332 20.0595C65.2845 20.3853 65.5451 20.5757 65.8148 20.631C66.1814 20.6851 66.5554 20.6652 66.9139 20.5724L67.1097 20.5153L72.3429 11.8428L73.7538 13.6759L69.7473 19.9938L77.1252 18.0607L78.536 19.8938L67.7274 22.5212C67.1919 22.6525 66.6402 22.7078 66.0888 22.6855C65.6262 22.659 65.1776 22.519 64.7838 22.2783C64.3325 21.9864 63.9393 21.6155 63.6238 21.1839" fill="white"></path> <path d="M75.5475 36.3473C75.5809 36.8709 75.7459 37.378 76.0275 37.8232C76.2964 38.2399 76.6858 38.5679 77.1455 38.7648C77.6573 38.9777 78.2153 39.0603 78.7681 39.0048C79.3183 38.9742 79.8516 38.8066 80.3182 38.5176C80.7394 38.2519 81.0698 37.8676 81.2665 37.4146C81.4716 36.9309 81.5514 36.4046 81.4985 35.883C81.4657 35.3719 81.295 34.8786 81.0041 34.4542C80.7199 34.0513 80.3271 33.7346 79.8701 33.5398C79.3808 33.328 78.845 33.242 78.3128 33.2898C77.7625 33.3202 77.2291 33.4879 76.7627 33.777C76.3429 34.0418 76.0073 34.4176 75.794 34.8614C75.5785 35.3261 75.4934 35.8392 75.5475 36.3473ZM73.5522 36.1116C73.4798 35.3106 73.6371 34.5057 74.0061 33.7884C74.3783 33.0607 74.9416 32.4445 75.6374 32.0039C76.3881 31.5286 77.2496 31.2503 78.1402 31.1953C79.043 31.1058 79.954 31.2454 80.7865 31.601C81.5375 31.9228 82.1834 32.443 82.6528 33.1041C83.1188 33.77 83.3943 34.5473 83.4503 35.3543C83.5089 35.979 83.4484 36.609 83.2719 37.2117C83.1066 37.7719 82.8135 38.2875 82.415 38.719L86.826 38.3733L87.0029 40.4678L74.1859 41.4679L74.0119 39.372L75.1415 39.2834C74.6745 38.9154 74.2982 38.4479 74.0409 37.9161C73.7638 37.3493 73.5976 36.7361 73.5508 36.1087" fill="white"></path> <path d="M77.6472 50.9176C78.0633 50.965 78.4848 50.9161 78.8783 50.7747C79.2251 50.6408 79.5311 50.4214 79.7672 50.1375C80.0177 49.8334 80.1988 49.4796 80.2979 49.1002C80.4191 48.6889 80.4493 48.2568 80.3864 47.833C80.325 47.4443 80.1699 47.0758 79.9339 46.7585C79.6909 46.4343 79.3734 46.1713 79.0074 45.9913L77.6472 50.9176ZM72.5532 47.2557C72.7828 46.3701 73.2345 45.5556 73.8669 44.8869C74.4584 44.2625 75.2177 43.8166 76.0565 43.601C76.92 43.382 77.8268 43.3913 78.6854 43.6282C79.5479 43.8366 80.3424 44.258 80.9939 44.8526C81.6082 45.423 82.0397 46.1581 82.2352 46.9671C82.444 47.8384 82.42 48.7481 82.1656 49.6074C81.9633 50.3958 81.5554 51.1183 80.9823 51.7034C80.4423 52.2499 79.76 52.6395 79.0103 52.8293C78.2202 53.0235 77.3924 53.0107 76.609 52.7921C76.4408 52.7483 76.2552 52.6912 76.0521 52.6207C75.8491 52.5502 75.6282 52.4664 75.3895 52.3692L77.2832 45.5112C76.8483 45.4755 76.4112 45.5472 76.0116 45.7198C75.6159 45.9023 75.2744 46.1817 75.0197 46.5314C74.7315 46.9236 74.5205 47.3655 74.3976 47.8344C74.266 48.2714 74.2169 48.7286 74.2526 49.1831C74.3022 49.6026 74.455 50.0038 74.6978 50.3518L73.1448 51.3334C72.7819 50.7412 72.5359 50.0868 72.4198 49.4046C72.3081 48.6841 72.3576 47.9483 72.5648 47.2486" fill="white"></path> <path d="M71.1727 52.2188L79.077 57.4437L77.8676 59.1668L76.9004 58.5281C76.9784 58.8851 77.0101 59.2505 76.9947 59.6154C76.9759 60.0084 76.8997 60.3968 76.7685 60.7684C76.6223 61.1833 76.4183 61.5761 76.1623 61.9357C75.7768 62.5112 75.2468 62.9788 74.6238 63.293C74.0295 63.5814 73.3638 63.6959 72.7054 63.623C71.9746 63.5352 71.2772 63.2706 70.6753 62.8529L65.9293 59.7097L67.1561 57.958L71.6324 60.9313C72.2578 61.3446 72.8379 61.5099 73.3724 61.427C73.907 61.3442 74.3812 61.0084 74.7949 60.4198C75.0889 60.019 75.2573 59.5422 75.2793 59.0482C75.2944 58.5677 75.1798 58.0919 74.9472 57.6694C74.6912 57.2053 74.3207 56.8122 73.8698 56.5264L69.9547 53.9432L71.1727 52.2188Z" fill="white"></path> <path d="M61.4356 62.9039C62.209 62.3047 62.9751 62.0461 63.7339 62.1281C64.4928 62.21 65.1811 62.6267 65.7988 63.3782L68.7322 66.9429L70.1504 65.8428L71.3699 67.3273L69.9198 68.4488L71.3568 70.4148L69.8169 71.6107L68.2711 69.7233L65.7219 71.7021L64.5025 70.2176L67.0516 68.2402L64.3415 64.9413C64.0438 64.5784 63.716 64.3698 63.3584 64.3155C63.1755 64.2901 62.9893 64.3036 62.8122 64.3551C62.6351 64.4066 62.4713 64.4949 62.3317 64.6141C62.0851 64.8107 61.8583 65.0303 61.6546 65.2699C61.4474 65.4997 61.2701 65.7541 61.1267 66.0271L59.7419 64.9998C59.9155 64.591 60.1539 64.212 60.4481 63.8768C60.7416 63.5192 61.0726 63.1931 61.4356 62.9039Z" fill="white"></path> <path d="M56.2039 67.9904C55.7829 68.1531 55.4079 68.4133 55.1106 68.7491C54.8326 69.0597 54.6382 69.434 54.5451 69.8378C54.4552 70.2229 54.4728 70.6248 54.5958 71.0008L54.6553 71.1437C55.0145 71.0627 55.3693 70.9635 55.7182 70.8465C56.0816 70.7246 56.4732 70.5817 56.8927 70.4179C57.6458 70.1159 58.1388 69.7959 58.3718 69.4578C58.4856 69.302 58.5553 69.1192 58.5737 68.9281C58.592 68.737 58.5584 68.5445 58.4762 68.3705C58.4119 68.2 58.3006 68.0506 58.1548 67.939C58.0091 67.8275 57.8346 67.7582 57.6511 67.739C57.2567 67.6828 56.7733 67.769 56.201 67.9976L56.2039 67.9904ZM56.1227 65.9973C56.6774 65.761 57.2818 65.66 57.8845 65.703C58.4231 65.7439 58.9388 65.9341 59.3723 66.2517C59.8083 66.5757 60.1463 67.0109 60.3496 67.5104C60.5753 68.0071 60.6657 68.5532 60.6121 69.0949C60.5306 69.6516 60.2775 70.1703 59.8871 70.5808C59.4665 71.057 58.8474 71.4585 58.0295 71.7852C57.2117 72.1119 56.3103 72.4186 55.3252 72.7053V72.721C55.4209 72.9635 55.5749 73.1794 55.7739 73.3504C55.9729 73.5213 56.211 73.6422 56.4678 73.7026C57.0131 73.8445 57.6458 73.7712 58.366 73.4826C58.8023 73.3005 59.2009 73.0409 59.5419 72.7167C59.8997 72.3922 60.2001 72.0112 60.4308 71.5895L62.0259 72.5982C61.6886 73.2284 61.2313 73.7887 60.6788 74.2484C60.1416 74.6993 59.5352 75.0634 58.8822 75.3271C57.5172 75.8747 56.3572 75.9733 55.4021 75.6228C54.447 75.2723 53.7219 74.517 53.227 73.3568L51.0432 68.2133L53.0428 67.4118L53.4778 68.4305C53.6051 68.1187 53.7717 67.824 53.9738 67.5532C54.2188 67.2292 54.5087 66.9407 54.8351 66.696C55.2265 66.4001 55.6579 66.1597 56.1169 65.9816" fill="white"></path> <path d="M49.4235 68.3164L51.542 80.6565L49.4264 80.9994L47.3064 68.6593L49.4235 68.3164Z" fill="white"></path> <path d="M33.138 67.0077C33.845 67.2558 34.5128 67.6012 35.1216 68.0336C35.6955 68.4299 36.218 68.8939 36.6775 69.4152L35.2275 70.7668C34.83 70.2996 34.3722 69.8856 33.8659 69.5352C33.4022 69.2183 32.8981 68.9632 32.3665 68.7765C32.0436 68.6578 31.7094 68.5712 31.3689 68.5179C31.1303 68.4748 30.8843 68.4981 30.6584 68.5851C30.5631 68.627 30.4778 68.6883 30.4081 68.7648C30.3384 68.8414 30.2858 68.9315 30.2538 69.0294C30.2184 69.1137 30.2016 69.2044 30.2046 69.2956C30.2076 69.3867 30.2303 69.4762 30.2712 69.5581C30.4025 69.7717 30.5778 69.9557 30.786 70.0981C31.1599 70.3692 31.5524 70.6146 31.9605 70.8325C32.6273 71.1831 33.2465 71.6151 33.8035 72.1184C34.2231 72.5232 34.472 72.9285 34.5503 73.3342C34.6253 73.7809 34.5752 74.2394 34.4053 74.6601C34.2297 75.1832 33.9044 75.6451 33.4686 75.9903C33.0345 76.3104 32.5085 76.4865 31.9663 76.4932C31.2886 76.501 30.6155 76.3822 29.9826 76.1431C29.2912 75.8882 28.6319 75.5554 28.0178 75.1516C27.4486 74.8144 26.9396 74.3872 26.5112 73.8871L27.9395 72.5298C28.3013 72.9456 28.7241 73.3058 29.1938 73.5985C29.6907 73.9155 30.2236 74.174 30.7816 74.3686C31.0097 74.4541 31.2489 74.5075 31.4921 74.5272C31.665 74.5416 31.8388 74.5121 31.9968 74.4415C32.1352 74.3703 32.2394 74.2481 32.2868 74.1015C32.3163 74.0271 32.3303 73.9477 32.3281 73.868C32.3258 73.7882 32.3074 73.7097 32.2737 73.6371C32.1586 73.4358 31.996 73.2647 31.7996 73.1385C31.5521 72.9556 31.1905 72.7213 30.7149 72.4355C30.0254 72.0383 29.3866 71.561 28.8125 71.0139C28.3813 70.5748 28.1266 70.1434 28.0483 69.7195C27.974 69.2579 28.0271 68.7852 28.202 68.3508C28.3869 67.8168 28.7484 67.3594 29.2286 67.052C29.7423 66.7393 30.3359 66.5777 30.9397 66.5863C31.6919 66.598 32.4361 66.7406 33.138 67.0077Z" fill="white"></path> <path d="M25.138 62.8352C25.9501 63.3838 26.4237 64.0239 26.5591 64.7554C26.6944 65.487 26.4798 66.249 25.9153 67.0414L23.237 70.7862L24.7262 71.7863L23.6111 73.345L22.0929 72.3192L20.5646 74.218L18.9463 73.125L20.3601 71.1519L17.6819 69.3431L18.797 67.7844L21.4752 69.5946L23.9548 66.1285C24.2274 65.7475 24.3395 65.3827 24.2912 65.034C24.2636 64.8554 24.1967 64.6849 24.0953 64.5344C23.9938 64.3838 23.8603 64.2569 23.7039 64.1625C23.4388 63.9879 23.1572 63.8391 22.8629 63.7182C22.5763 63.5903 22.2749 63.4977 21.9653 63.4424L22.5874 61.8594C23.0375 61.9046 23.4778 62.0183 23.8924 62.1966C24.3274 62.3669 24.743 62.582 25.1322 62.8381" fill="white"></path> <path d="M20.0397 58.1164C20.4881 58.6443 20.7881 59.2788 20.9098 59.9566C21.0137 60.5923 20.9223 61.2442 20.6473 61.8283C20.3329 62.4801 19.8596 63.045 19.2697 63.4728L14.7572 66.9175L13.4275 65.2773L17.6906 62.0212C18.2939 61.5611 18.6361 61.0696 18.7173 60.5467C18.7985 60.0238 18.6051 59.4742 18.1373 58.8979C17.834 58.512 17.4271 58.2176 16.9627 58.0478C16.4956 57.881 15.9907 57.8449 15.504 57.9435C14.9736 58.0505 14.4766 58.2802 14.0539 58.6136L10.3346 61.4511L8.99036 59.7852L16.5074 54.0459L17.8545 55.7118L16.9497 56.4033C17.3209 56.4389 17.6865 56.518 18.0387 56.6391C18.4152 56.7714 18.7692 56.9592 19.0885 57.1963C19.4459 57.4607 19.7666 57.7701 20.0426 58.1164" fill="white"></path> <path d="M12.7053 49.2188C12.5488 48.717 12.2689 48.2611 11.8904 47.8915C11.529 47.547 11.0716 47.3162 10.5767 47.2286C10.026 47.1391 9.46137 47.1882 8.9352 47.3715C8.40755 47.5225 7.92753 47.8032 7.54025 48.1873C7.19399 48.5407 6.96404 48.9889 6.88048 49.4732C6.7978 49.9914 6.84764 50.5218 7.02549 51.0162C7.1785 51.5096 7.46291 51.9537 7.84912 52.3021C8.22185 52.6298 8.67972 52.8489 9.17156 52.935C9.6983 53.0292 10.2407 52.9898 10.7478 52.8207C11.2758 52.667 11.7553 52.3832 12.1413 51.9963C12.4836 51.6422 12.7174 51.1999 12.8155 50.7205C12.9167 50.2174 12.8787 49.6967 12.7053 49.2131V49.2188ZM14.7035 48.9917C14.9647 49.753 15.0034 50.5714 14.8151 51.3534C14.6278 52.1459 14.2271 52.8739 13.6551 53.4608C13.0363 54.0927 12.2635 54.5581 11.4104 54.8124C10.5513 55.1035 9.63082 55.1733 8.73654 55.0153C7.92834 54.8711 7.1759 54.5108 6.56147 53.9737C5.94894 53.4318 5.49483 52.7382 5.24628 51.9649C5.03956 51.3722 4.9471 50.7466 4.97367 50.1204C5.00052 49.54 5.16225 48.9735 5.44638 48.4645L1.23254 49.7975L0.562622 47.7972L12.8054 43.9268L13.4753 45.927L12.3965 46.2685C12.9396 46.5213 13.4179 46.8914 13.7958 47.3515C14.2009 47.8391 14.5093 48.3974 14.7049 48.9974" fill="white"></path> <path d="M12.9359 42.1984L3.39601 42.8014L3.25101 40.7211L12.7909 40.1182L12.9359 42.1984ZM2.25048 42.9242L0.145005 43.0571L0 40.8925L2.10692 40.7597L2.25048 42.9242Z" fill="white"></path> <path d="M11.541 33.7388C11.6402 33.2303 11.6048 32.7053 11.438 32.2143C11.2753 31.7398 10.9797 31.3202 10.5854 31.0041C10.1534 30.6633 9.63766 30.441 9.09041 30.3598C8.54915 30.2565 7.98992 30.2939 7.46781 30.4684C6.98164 30.6333 6.5528 30.9305 6.23091 31.3256C5.9067 31.7411 5.6886 32.2273 5.59497 32.7433C5.50135 33.2592 5.53495 33.7898 5.69295 34.2903C5.85356 34.7646 6.1496 35.1833 6.54557 35.4961C6.9747 35.8297 7.48433 36.0477 8.02462 36.1291C8.56767 36.2319 9.12827 36.1979 9.65448 36.0305C10.1432 35.8741 10.5751 35.5806 10.8972 35.1861C11.2334 34.7655 11.455 34.2674 11.541 33.7388ZM13.4623 34.086C13.3129 34.9885 12.9326 35.8386 12.3574 36.5563C11.8224 37.2256 11.1082 37.7343 10.2954 38.025C9.45134 38.3173 8.54369 38.3839 7.66501 38.2179C6.77802 38.0803 5.94475 37.7108 5.25213 37.1478C4.58981 36.6041 4.09714 35.8868 3.83108 35.0789C3.56367 34.2129 3.50888 33.2966 3.67124 32.4056C3.83359 31.5146 4.20844 30.6743 4.76491 29.954C5.29821 29.2859 6.00744 28.7749 6.81528 28.4767C7.65759 28.1732 8.56769 28.1006 9.44857 28.2667C10.3355 28.4047 11.1678 28.777 11.8571 29.3439C12.5188 29.8937 13.0131 30.6132 13.2854 31.4228C13.5734 32.2813 13.6323 33.1985 13.4565 34.086" fill="white"></path> <path d="M43.616 58.6971C34.8722 58.6971 26.9071 52.9149 24.732 44.3024C22.1771 34.184 28.5689 23.9313 38.9817 21.4425C44.7398 20.0694 51.0171 21.2139 55.7892 24.5043C59.7043 27.2089 62.0983 31.0879 62.5232 35.4256C63.0365 40.6805 61.5604 45.6412 58.5747 48.6958C56.6491 50.6661 54.3029 51.6519 51.787 51.5462C46.8859 51.339 44.4165 46.3241 44.0684 45.0939C44.0076 44.8569 43.9035 44.6327 43.761 44.4324C43.7334 44.3932 43.6965 44.3612 43.6536 44.3391C43.6107 44.317 43.563 44.3054 43.5145 44.3054C43.4661 44.3054 43.4184 44.317 43.3754 44.3391C43.3325 44.3612 43.2957 44.3932 43.268 44.4324C43.1251 44.6326 43.0204 44.8568 42.9592 45.0939C42.9186 45.2368 42.8707 45.484 42.8141 45.7726C42.4444 47.6628 41.6773 51.5976 38.2987 51.5976C36.6456 51.5976 35.4334 50.3117 34.9636 49.0459C34.1936 46.9599 33.9051 43.9024 33.8035 41.7178C33.7533 40.6973 33.5635 39.688 33.2395 38.7174L32.4173 36.2457C32.1443 35.4176 32.0669 34.5389 32.1911 33.6768C32.5449 31.2208 34.6344 28.6762 37.5229 28.6762C38.8033 28.6762 40.2171 28.7791 41.8861 29.5249C43.1114 30.0721 44.6891 30.0178 46.0028 29.382C47.2194 28.7948 48.2417 28.6762 49.4989 28.6762C52.4613 28.6762 54.5059 30.6036 54.835 33.7068C55.1642 36.8101 52.4918 43.7966 52.1931 44.5767C52.1003 44.8104 51.9179 44.9987 51.6853 45.1008C51.4528 45.2029 51.1887 45.2107 50.9504 45.1225C50.8324 45.0804 50.7242 45.0155 50.6319 44.9318C50.5396 44.8481 50.4652 44.7471 50.4128 44.6348C50.3605 44.5225 50.3313 44.401 50.327 44.2775C50.3227 44.154 50.3433 44.0308 50.3877 43.9152C51.1722 41.8907 53.1573 36.1457 52.9181 33.8954C52.7847 32.6453 52.1655 30.5464 49.5003 30.5464C48.4737 30.5464 47.7501 30.6279 46.8627 31.0565C45.011 31.9509 42.8504 32.0138 41.0813 31.2237C39.8241 30.6622 38.7497 30.5464 37.5229 30.5464C36.1106 30.5464 34.401 31.8395 34.1008 33.9283C34.0127 34.5145 34.0623 35.1127 34.2458 35.6771L35.0709 38.1474C35.4469 39.2743 35.6674 40.4459 35.7263 41.6307C35.8075 43.3194 36.054 46.447 36.779 48.4129C36.9458 48.8658 37.478 49.7231 38.2972 49.7231C39.8618 49.7231 40.481 47.6557 40.9175 45.4226C40.9842 45.0797 41.0378 44.8096 41.0973 44.5953C41.2204 44.1381 41.4278 43.707 41.7092 43.3237C41.9181 43.0468 42.1898 42.8219 42.5026 42.6669C42.8154 42.5119 43.1607 42.4312 43.5109 42.4312C43.861 42.4312 44.2063 42.5119 44.5192 42.6669C44.832 42.8219 45.1037 43.0468 45.3126 43.3237C45.594 43.707 45.8014 44.1381 45.9245 44.5953C46.1391 45.354 48.1489 49.5159 51.8697 49.6731C53.8099 49.756 55.6398 48.9701 57.174 47.4042C59.7841 44.7368 61.063 40.3248 60.6019 35.6013C60.2307 31.8152 58.1252 28.4162 54.6712 26.0287C50.4196 23.0941 44.5832 22.0282 39.4457 23.2598C30.0653 25.4972 24.3072 34.7327 26.6099 43.8481C28.9125 52.9635 38.4147 58.5642 47.7951 56.3225C48.0413 56.264 48.301 56.3033 48.518 56.4318C48.7351 56.5604 48.8921 56.768 48.9551 57.0097C48.9848 57.1298 48.9901 57.2545 48.9707 57.3767C48.9512 57.4988 48.9074 57.6159 48.8417 57.7213C48.7761 57.8266 48.6899 57.9181 48.5881 57.9904C48.4864 58.0628 48.3711 58.1145 48.2489 58.1427C46.7297 58.5059 45.172 58.6896 43.6088 58.6899" fill="white"></path> </g> <defs> <clipPath id="clip0"> <rect width="87" height="81" fill="white"></rect> </clipPath> </defs> </svg> 